<mxfile host="app.diagrams.net" modified="2022-06-28T11:54:21.965Z" agent="5.0 (X11; Linux x86_64) AppleWebKit/537.36 (KHTML, like Gecko) Chrome/103.0.0.0 Safari/537.36" etag="gsDqsQIxBVBToAHR-7qG" version="20.0.3" type="github">
  <diagram id="nu8VwKLnIfK9MVzOzkDa" name="Page-1">
    <mxGraphModel dx="1355" dy="773" grid="1" gridSize="10" guides="1" tooltips="1" connect="1" arrows="1" fold="1" page="1" pageScale="1" pageWidth="850" pageHeight="1100" math="0" shadow="0">
      <root>
        <mxCell id="0" />
        <mxCell id="1" parent="0" />
        <mxCell id="3JoruSJg1Iiz7nWv7cRH-5" value="" style="edgeStyle=orthogonalEdgeStyle;rounded=0;orthogonalLoop=1;jettySize=auto;html=1;fontSize=16;" edge="1" parent="1" source="3JoruSJg1Iiz7nWv7cRH-1" target="3JoruSJg1Iiz7nWv7cRH-4">
          <mxGeometry relative="1" as="geometry" />
        </mxCell>
        <mxCell id="3JoruSJg1Iiz7nWv7cRH-1" value="" style="shape=image;imageAspect=0;aspect=fixed;verticalLabelPosition=bottom;verticalAlign=top;image=data:image/svg+xml,PHN2ZyB4bWxuczp4bGluaz0iaHR0cDovL3d3dy53My5vcmcvMTk5OS94bGluayIgeG1sbnM9Imh0dHA6Ly93d3cudzMub3JnLzIwMDAvc3ZnIiB2aWV3Qm94PSIwIDAgNzAwIDcwMCIgdmVyc2lvbj0iMS4xIiBoZWlnaHQ9IjcwMHB0IiB3aWR0aD0iNzAwcHQiPiYjeGE7IDxkZWZzPiYjeGE7ICA8c3ltYm9sIG92ZXJmbG93PSJ2aXNpYmxlIiBpZD0idSI+JiN4YTsgICA8cGF0aCBkPSJtMTguNzY2LTEuMTI1Yy0wLjk2ODc1IDAuNS0xLjk4MDUgMC44NzUtMy4wMzEyIDEuMTI1LTEuMDQzIDAuMjU3ODEtMi4xMzY3IDAuMzkwNjItMy4yODEyIDAuMzkwNjItMy4zOTg0IDAtNi4wODk4LTAuOTQ1MzEtOC4wNzgxLTIuODQzOC0xLjk5MjItMS45MDYyLTIuOTg0NC00LjQ4NDQtMi45ODQ0LTcuNzM0NCAwLTMuMjU3OCAwLjk5MjE5LTUuODM1OSAyLjk4NDQtNy43MzQ0IDEuOTg4My0xLjkwNjIgNC42Nzk3LTIuODU5NCA4LjA3ODEtMi44NTk0IDEuMTQ0NSAwIDIuMjM4MyAwLjEzMjgxIDMuMjgxMiAwLjM5MDYyIDEuMDUwOCAwLjI1IDIuMDYyNSAwLjYyNSAzLjAzMTIgMS4xMjV2NC4yMTg4Yy0wLjk4MDQ3LTAuNjU2MjUtMS45NDUzLTEuMTQwNi0yLjg5MDYtMS40NTMxLTAuOTQ5MjItMC4zMTI1LTEuOTQ5Mi0wLjQ2ODc1LTMtMC40Njg3NS0xLjg3NSAwLTMuMzUxNiAwLjYwNTQ3LTQuNDIxOSAxLjgxMjUtMS4wNzQyIDEuMTk5Mi0xLjYwOTQgMi44NTU1LTEuNjA5NCA0Ljk2ODggMCAyLjEwNTUgMC41MzUxNiAzLjc2MTcgMS42MDk0IDQuOTY4OCAxLjA3MDMgMS4xOTkyIDIuNTQ2OSAxLjc5NjkgNC40MjE5IDEuNzk2OSAxLjA1MDggMCAyLjA1MDgtMC4xNDg0NCAzLTAuNDUzMTIgMC45NDUzMS0wLjMxMjUgMS45MTAyLTAuODAwNzggMi44OTA2LTEuNDY4OHoiLz4mI3hhOyAgPC9zeW1ib2w+JiN4YTsgIDxzeW1ib2wgb3ZlcmZsb3c9InZpc2libGUiIGlkPSJjIj4mI3hhOyAgIDxwYXRoIGQ9Im0xMy43MzQtMTEuMTQxYy0wLjQzNzUtMC4xOTUzMS0wLjg3MTA5LTAuMzQzNzUtMS4yOTY5LTAuNDM3NS0wLjQxNzk3LTAuMTAxNTYtMC44Mzk4NC0wLjE1NjI1LTEuMjY1Ni0wLjE1NjI1LTEuMjYxNyAwLTIuMjMwNSAwLjQwNjI1LTIuOTA2MiAxLjIxODgtMC42Nzk2OSAwLjgwNDY5LTEuMDE1NiAxLjk1MzEtMS4wMTU2IDMuNDUzMXY3LjA2MjVoLTQuODkwNnYtMTUuMzEyaDQuODkwNnYyLjUxNTZjMC42MjUtMSAxLjM0MzgtMS43MjY2IDIuMTU2Mi0yLjE4NzUgMC44MjAzMS0wLjQ2ODc1IDEuODAwOC0wLjcwMzEyIDIuOTM3NS0wLjcwMzEyIDAuMTY0MDYgMCAwLjM0Mzc1IDAuMDExNzE5IDAuNTMxMjUgMC4wMzEyNSAwLjE5NTMxIDAuMDExNzE5IDAuNDc2NTYgMC4wMzkwNjIgMC44NDM3NSAwLjA3ODEyNXoiLz4mI3hhOyAgPC9zeW1ib2w+JiN4YTsgIDxzeW1ib2wgb3ZlcmZsb3c9InZpc2libGUiIGlkPSJhIj4mI3hhOyAgIDxwYXRoIGQ9Im0xNy42NDEtNy43MDMxdjEuNDA2MmgtMTEuNDUzYzAuMTI1IDEuMTQ4NCAwLjUzOTA2IDIuMDA3OCAxLjI1IDIuNTc4MSAwLjcwNzAzIDAuNTc0MjIgMS43MDMxIDAuODU5MzggMi45ODQ0IDAuODU5MzggMS4wMzEyIDAgMi4wODItMC4xNDg0NCAzLjE1NjItMC40NTMxMiAxLjA4Mi0wLjMxMjUgMi4xOTE0LTAuNzczNDQgMy4zMjgxLTEuMzkwNnYzLjc2NTZjLTEuMTU2MiAwLjQzNzUtMi4zMTI1IDAuNzY1NjItMy40Njg4IDAuOTg0MzgtMS4xNTYyIDAuMjI2NTYtMi4zMTI1IDAuMzQzNzUtMy40Njg4IDAuMzQzNzUtMi43NzM0IDAtNC45Mjk3LTAuNzAzMTItNi40Njg4LTIuMTA5NC0xLjUzMTItMS40MDYyLTIuMjk2OS0zLjM3ODktMi4yOTY5LTUuOTIxOSAwLTIuNSAwLjc1MzkxLTQuNDYwOSAyLjI2NTYtNS44OTA2IDEuNTA3OC0xLjQzNzUgMy41ODItMi4xNTYyIDYuMjE4OC0yLjE1NjIgMi40MDYyIDAgNC4zMzIgMC43MzA0NyA1Ljc4MTIgMi4xODc1IDEuNDQ1MyAxLjQ0OTIgMi4xNzE5IDMuMzgyOCAyLjE3MTkgNS43OTY5em0tNS4wMzEyLTEuNjI1YzAtMC45MjU3OC0wLjI3MzQ0LTEuNjcxOS0wLjgxMjUtMi4yMzQ0LTAuNTQyOTctMC41NzAzMS0xLjI1LTAuODU5MzgtMi4xMjUtMC44NTkzOC0wLjk0OTIyIDAtMS43MTg4IDAuMjY1NjItMi4zMTI1IDAuNzk2ODhzLTAuOTY0ODQgMS4yOTY5LTEuMTA5NCAyLjI5Njl6Ii8+JiN4YTsgIDwvc3ltYm9sPiYjeGE7ICA8c3ltYm9sIG92ZXJmbG93PSJ2aXNpYmxlIiBpZD0iZiI+JiN4YTsgICA8cGF0aCBkPSJtOS4yMTg4LTYuODkwNmMtMS4wMjM0IDAtMS43OTMgMC4xNzE4OC0yLjMxMjUgMC41MTU2Mi0wLjUxMTcyIDAuMzQzNzUtMC43NjU2MiAwLjg1NTQ3LTAuNzY1NjIgMS41MzEyIDAgMC42MjUgMC4yMDcwMyAxLjExNzIgMC42MjUgMS40Njg4IDAuNDE0MDYgMC4zNDM3NSAwLjk4ODI4IDAuNTE1NjIgMS43MTg4IDAuNTE1NjIgMC45MjU3OCAwIDEuNzAzMS0wLjMyODEyIDIuMzI4MS0wLjk4NDM4IDAuNjMyODEtMC42NjQwNiAwLjk1MzEyLTEuNDkyMiAwLjk1MzEyLTIuNDg0NHYtMC41NjI1em03LjQ2ODgtMS44NDM4djguNzM0NGgtNC45MjE5di0yLjI2NTZjLTAuNjU2MjUgMC45Mjk2OS0xLjM5ODQgMS42MDU1LTIuMjE4OCAyLjAzMTItMC44MjQyMiAwLjQxNDA2LTEuODI0MiAwLjYyNS0zIDAuNjI1LTEuNTg1OSAwLTIuODcxMS0wLjQ1NzAzLTMuODU5NC0xLjM3NS0wLjk5MjE5LTAuOTI1NzgtMS40ODQ0LTIuMTI4OS0xLjQ4NDQtMy42MDk0IDAtMS43ODkxIDAuNjEzMjgtMy4xMDE2IDEuODQzOC0zLjkzNzUgMS4yMzgzLTAuODQzNzUgMy4xNzk3LTEuMjY1NiA1LjgyODEtMS4yNjU2aDIuODkwNnYtMC4zOTA2MmMwLTAuNzY5NTMtMC4zMDg1OS0xLjMzMi0wLjkyMTg4LTEuNjg3NS0wLjYxNzE5LTAuMzYzMjgtMS41NzAzLTAuNTQ2ODgtMi44NTk0LTAuNTQ2ODgtMS4wNTQ3IDAtMi4wMzEyIDAuMTA1NDctMi45Mzc1IDAuMzEyNS0wLjg5ODQ0IDAuMjEwOTQtMS43MzA1IDAuNTIzNDQtMi41IDAuOTM3NXYtMy43MzQ0YzEuMDM5MS0wLjI1IDIuMDg1OS0wLjQ0MTQxIDMuMTQwNi0wLjU3ODEyIDEuMDYyNS0wLjEzMjgxIDIuMTI1LTAuMjAzMTIgMy4xODc1LTAuMjAzMTIgMi43NTc4IDAgNC43NSAwLjU0Njg4IDUuOTY4OCAxLjY0MDYgMS4yMjY2IDEuMDg1OSAxLjg0MzggMi44NTU1IDEuODQzOCA1LjMxMjV6Ii8+JiN4YTsgIDwvc3ltYm9sPiYjeGE7ICA8c3ltYm9sIG92ZXJmbG93PSJ2aXNpYmxlIiBpZD0iYiI+JiN4YTsgICA8cGF0aCBkPSJtNy43MDMxLTE5LjY1NnY0LjM0MzhoNS4wNDY5djMuNWgtNS4wNDY5djYuNWMwIDAuNzEwOTQgMC4xNDA2MiAxLjE4NzUgMC40MjE4OCAxLjQzNzVzMC44MzU5NCAwLjM3NSAxLjY3MTkgMC4zNzVoMi41MTU2djMuNWgtNC4xODc1Yy0xLjkzNzUgMC0zLjMxMjUtMC4zOTg0NC00LjEyNS0xLjIwMzEtMC44MDQ2OS0wLjgxMjUtMS4yMDMxLTIuMTc5Ny0xLjIwMzEtNC4xMDk0di02LjVoLTIuNDIxOXYtMy41aDIuNDIxOXYtNC4zNDM4eiIvPiYjeGE7ICA8L3N5bWJvbD4mI3hhOyAgPHN5bWJvbCBvdmVyZmxvdz0idmlzaWJsZSIgaWQ9ImoiPiYjeGE7ICAgPHBhdGggZD0ibTEyLjc2Ni0xMy4wNzh2LTguMjAzMWg0LjkyMTl2MjEuMjgxaC00LjkyMTl2LTIuMjE4OGMtMC42Njc5NyAwLjkwNjI1LTEuNDA2MiAxLjU3MDMtMi4yMTg4IDEuOTg0NHMtMS43NTc4IDAuNjI1LTIuODI4MSAwLjYyNWMtMS44ODY3IDAtMy40MzM2LTAuNzUtNC42NDA2LTIuMjUtMS4yMTA5LTEuNS0xLjgxMjUtMy40MjU4LTEuODEyNS01Ljc4MTIgMC0yLjM2MzMgMC42MDE1Ni00LjI5NjkgMS44MTI1LTUuNzk2OSAxLjIwNy0xLjUgMi43NTM5LTIuMjUgNC42NDA2LTIuMjUgMS4wNjI1IDAgMiAwLjIxNDg0IDIuODEyNSAwLjY0MDYyIDAuODIwMzEgMC40Mjk2OSAxLjU2NjQgMS4wODU5IDIuMjM0NCAxLjk2ODh6bS0zLjIxODggOS45MjE5YzEuMDM5MSAwIDEuODM1OS0wLjM3ODkxIDIuMzkwNi0xLjE0MDYgMC41NTA3OC0wLjc2OTUzIDAuODI4MTItMS44ODI4IDAuODI4MTItMy4zNDM4IDAtMS40NTctMC4yNzczNC0yLjU2NjQtMC44MjgxMi0zLjMyODEtMC41NTQ2OS0wLjc2OTUzLTEuMzUxNi0xLjE1NjItMi4zOTA2LTEuMTU2Mi0xLjA0MyAwLTEuODM5OCAwLjM4NjcyLTIuMzkwNiAxLjE1NjItMC41NTQ2OSAwLjc2MTcyLTAuODI4MTIgMS44NzExLTAuODI4MTIgMy4zMjgxIDAgMS40NjA5IDAuMjczNDQgMi41NzQyIDAuODI4MTIgMy4zNDM4IDAuNTUwNzggMC43NjE3MiAxLjM0NzcgMS4xNDA2IDIuMzkwNiAxLjE0MDZ6Ii8+JiN4YTsgIDwvc3ltYm9sPiYjeGE7ICA8c3ltYm9sIG92ZXJmbG93PSJ2aXNpYmxlIiBpZD0iaSI+JiN4YTsgICA8cGF0aCBkPSJtMTAuNS0zLjE1NjJjMS4wNTA4IDAgMS44NTE2LTAuMzc4OTEgMi40MDYyLTEuMTQwNiAwLjU1MDc4LTAuNzY5NTMgMC44MjgxMi0xLjg4MjggMC44MjgxMi0zLjM0MzggMC0xLjQ1Ny0wLjI3NzM0LTIuNTY2NC0wLjgyODEyLTMuMzI4MS0wLjU1NDY5LTAuNzY5NTMtMS4zNTU1LTEuMTU2Mi0yLjQwNjItMS4xNTYyLTEuMDU0NyAwLTEuODU5NCAwLjM4NjcyLTIuNDIxOSAxLjE1NjItMC41NTQ2OSAwLjc3MzQ0LTAuODI4MTIgMS44ODI4LTAuODI4MTIgMy4zMjgxIDAgMS40NDkyIDAuMjczNDQgMi41NTg2IDAuODI4MTIgMy4zMjgxIDAuNTYyNSAwLjc3MzQ0IDEuMzY3MiAxLjE1NjIgMi40MjE5IDEuMTU2MnptLTMuMjUtOS45MjE5YzAuNjc1NzgtMC44ODI4MSAxLjQyMTktMS41MzkxIDIuMjM0NC0xLjk2ODggMC44MjAzMS0wLjQyNTc4IDEuNzY1Ni0wLjY0MDYyIDIuODI4MS0wLjY0MDYyIDEuODk0NSAwIDMuNDQ1MyAwLjc1IDQuNjU2MiAyLjI1IDEuMjA3IDEuNSAxLjgxMjUgMy40MzM2IDEuODEyNSA1Ljc5NjkgMCAyLjM1NTUtMC42MDU0NyA0LjI4MTItMS44MTI1IDUuNzgxMi0xLjIxMDkgMS41LTIuNzYxNyAyLjI1LTQuNjU2MiAyLjI1LTEuMDYyNSAwLTIuMDA3OC0wLjIxMDk0LTIuODI4MS0wLjYyNS0wLjgxMjUtMC40MjU3OC0xLjU1ODYtMS4wODU5LTIuMjM0NC0xLjk4NDR2Mi4yMTg4aC00Ljg5MDZ2LTIxLjI4MWg0Ljg5MDZ6Ii8+JiN4YTsgIDwvc3ltYm9sPiYjeGE7ICA8c3ltYm9sIG92ZXJmbG93PSJ2aXNpYmxlIiBpZD0iZSI+JiN4YTsgICA8cGF0aCBkPSJtMC4zNDM3NS0xNS4zMTJoNC44OTA2bDQuMTI1IDEwLjM5MSAzLjUtMTAuMzkxaDQuODkwNmwtNi40Mzc1IDE2Ljc2NmMtMC42NDg0NCAxLjY5NTMtMS40MDIzIDIuODgyOC0yLjI2NTYgMy41NjI1LTAuODY3MTkgMC42ODc1LTIgMS4wMzEyLTMuNDA2MiAxLjAzMTJoLTIuODQzOHYtMy4yMTg4aDEuNTMxMmMwLjgzMjAzIDAgMS40Mzc1LTAuMTM2NzIgMS44MTI1LTAuNDA2MjUgMC4zODI4MS0wLjI2MTcyIDAuNjc5NjktMC43MzA0NyAwLjg5MDYyLTEuNDA2MmwwLjE0MDYyLTAuNDIxODh6Ii8+JiN4YTsgIDwvc3ltYm9sPiYjeGE7ICA8c3ltYm9sIG92ZXJmbG93PSJ2aXNpYmxlIiBpZD0iaCI+JiN4YTsgICA8cGF0aCBkPSJtMi41NzgxLTIwLjQwNmg1LjI1djE2LjQyMmg5LjI1djMuOTg0NGgtMTQuNXoiLz4mI3hhOyAgPC9zeW1ib2w+JiN4YTsgIDxzeW1ib2wgb3ZlcmZsb3c9InZpc2libGUiIGlkPSJnIj4mI3hhOyAgIDxwYXRoIGQ9Im0xNi41NDctMTIuNzY2YzAuNjEzMjgtMC45NDUzMSAxLjM0NzctMS42NzE5IDIuMjAzMS0yLjE3MTkgMC44NTE1Ni0wLjUgMS43ODkxLTAuNzUgMi44MTI1LTAuNzUgMS43NTc4IDAgMy4wOTc3IDAuNTQ2ODggNC4wMTU2IDEuNjQwNiAwLjkyNTc4IDEuMDg1OSAxLjM5MDYgMi42NTYyIDEuMzkwNiA0LjcxODh2OS4zMjgxaC00LjkyMTl2LTcuOTg0NC0wLjM1OTM4YzAuMDA3ODEzLTAuMTMyODEgMC4wMTU2MjUtMC4zMjAzMSAwLjAxNTYyNS0wLjU2MjUgMC0xLjA4Mi0wLjE2NDA2LTEuODYzMy0wLjQ4NDM4LTIuMzQzOC0wLjMxMjUtMC40ODgyOC0wLjgyNDIyLTAuNzM0MzgtMS41MzEyLTAuNzM0MzgtMC45Mjk2OSAwLTEuNjQ4NCAwLjM4NjcyLTIuMTU2MiAxLjE1NjItMC41MTE3MiAwLjc2MTcyLTAuNzczNDQgMS44NjcyLTAuNzgxMjUgMy4zMTI1djcuNTE1NmgtNC45MjE5di03Ljk4NDRjMC0xLjY5NTMtMC4xNDg0NC0yLjc4NTItMC40Mzc1LTMuMjY1Ni0wLjI5Mjk3LTAuNDg4MjgtMC44MTI1LTAuNzM0MzgtMS41NjI1LTAuNzM0MzgtMC45Mzc1IDAtMS42NjQxIDAuMzg2NzItMi4xNzE5IDEuMTU2Mi0wLjUxMTcyIDAuNzYxNzItMC43NjU2MiAxLjg1OTQtMC43NjU2MiAzLjI5Njl2Ny41MzEyaC00LjkyMTl2LTE1LjMxMmg0LjkyMTl2Mi4yMzQ0YzAuNjAxNTYtMC44NjMyOCAxLjI4OTEtMS41MTU2IDIuMDYyNS0xLjk1MzEgMC43ODEyNS0wLjQzNzUgMS42NDA2LTAuNjU2MjUgMi41NzgxLTAuNjU2MjUgMS4wNjI1IDAgMiAwLjI1NzgxIDIuODEyNSAwLjc2NTYyIDAuODEyNSAwLjUxMTcyIDEuNDI1OCAxLjIzMDUgMS44NDM4IDIuMTU2MnoiLz4mI3hhOyAgPC9zeW1ib2w+JiN4YTsgIDxzeW1ib2wgb3ZlcmZsb3c9InZpc2libGUiIGlkPSJ0Ij4mI3hhOyAgIDxwYXRoIGQ9Im0yLjM1OTQtMTUuMzEyaDQuODkwNnYxNS4zMTJoLTQuODkwNnptMC01Ljk2ODhoNC44OTA2djRoLTQuODkwNnoiLz4mI3hhOyAgPC9zeW1ib2w+JiN4YTsgIDxzeW1ib2wgb3ZlcmZsb3c9InZpc2libGUiIGlkPSJzIj4mI3hhOyAgIDxwYXRoIGQ9Im0yLjM1OTQtMjEuMjgxaDQuODkwNnYxMS41OTRsNS42MjUtNS42MjVoNS42ODc1bC03LjQ2ODggNy4wMzEyIDguMDYyNSA4LjI4MTJoLTUuOTM3NWwtNS45Njg4LTYuMzkwNnY2LjM5MDZoLTQuODkwNnoiLz4mI3hhOyAgPC9zeW1ib2w+JiN4YTsgIDxzeW1ib2wgb3ZlcmZsb3c9InZpc2libGUiIGlkPSJyIj4mI3hhOyAgIDxwYXRoIGQ9Im0xMi40MjItMjEuMjgxdjMuMjE4OGgtMi43MDMxYy0wLjY4NzUgMC0xLjE3MTkgMC4xMjUtMS40NTMxIDAuMzc1LTAuMjczNDQgMC4yNS0wLjQwNjI1IDAuNjg3NS0wLjQwNjI1IDEuMzEyNXYxLjA2MjVoNC4xODc1djMuNWgtNC4xODc1djExLjgxMmgtNC44OTA2di0xMS44MTJoLTIuNDM3NXYtMy41aDIuNDM3NXYtMS4wNjI1YzAtMS42NjQxIDAuNDYwOTQtMi44OTg0IDEuMzkwNi0zLjcwMzEgMC45MjU3OC0wLjgwMDc4IDIuMzY3Mi0xLjIwMzEgNC4zMjgxLTEuMjAzMXoiLz4mI3hhOyAgPC9zeW1ib2w+JiN4YTsgIDxzeW1ib2wgb3ZlcmZsb3c9InZpc2libGUiIGlkPSJkIj4mI3hhOyAgIDxwYXRoIGQ9Im05LjY0MDYtMTIuMTg4Yy0xLjA4NTkgMC0xLjkxNDEgMC4zOTA2Mi0yLjQ4NDQgMS4xNzE5LTAuNTc0MjIgMC43ODEyNS0wLjg1OTM4IDEuOTA2Mi0wLjg1OTM4IDMuMzc1czAuMjg1MTYgMi41OTM4IDAuODU5MzggMy4zNzVjMC41NzAzMSAwLjc3MzQ0IDEuMzk4NCAxLjE1NjIgMi40ODQ0IDEuMTU2MiAxLjA2MjUgMCAxLjg3NS0wLjM4MjgxIDIuNDM3NS0xLjE1NjIgMC41NzAzMS0wLjc4MTI1IDAuODU5MzgtMS45MDYyIDAuODU5MzgtMy4zNzVzLTAuMjg5MDYtMi41OTM4LTAuODU5MzgtMy4zNzVjLTAuNTYyNS0wLjc4MTI1LTEuMzc1LTEuMTcxOS0yLjQzNzUtMS4xNzE5em0wLTMuNWMyLjYzMjggMCA0LjY5MTQgMC43MTQ4NCA2LjE3MTkgMi4xNDA2IDEuNDc2NiAxLjQxOCAyLjIxODggMy4zODY3IDIuMjE4OCA1LjkwNjIgMCAyLjUxMTctMC43NDIxOSA0LjQ4MDUtMi4yMTg4IDUuOTA2Mi0xLjQ4MDUgMS40MTgtMy41MzkxIDIuMTI1LTYuMTcxOSAyLjEyNS0yLjY0ODQgMC00LjcxNDgtMC43MDcwMy02LjIwMzEtMi4xMjUtMS40OTIyLTEuNDI1OC0yLjIzNDQtMy4zOTQ1LTIuMjM0NC01LjkwNjIgMC0yLjUxOTUgMC43NDIxOS00LjQ4ODMgMi4yMzQ0LTUuOTA2MiAxLjQ4ODMtMS40MjU4IDMuNTU0Ny0yLjE0MDYgNi4yMDMxLTIuMTQwNnoiLz4mI3hhOyAgPC9zeW1ib2w+JiN4YTsgIDxzeW1ib2wgb3ZlcmZsb3c9InZpc2libGUiIGlkPSJxIj4mI3hhOyAgIDxwYXRoIGQ9Im0xNy43NS05LjMyODF2OS4zMjgxaC00LjkyMTl2LTcuMTA5NGMwLTEuMzQzOC0wLjAzMTI1LTIuMjY1Ni0wLjA5Mzc1LTIuNzY1NnMtMC4xNjc5Ny0wLjg2NzE5LTAuMzEyNS0xLjEwOTRjLTAuMTg3NS0wLjMxMjUtMC40NDkyMi0wLjU1NDY5LTAuNzgxMjUtMC43MzQzOC0wLjMyNDIyLTAuMTc1NzgtMC42OTUzMS0wLjI2NTYyLTEuMTA5NC0wLjI2NTYyLTEuMDIzNCAwLTEuODI0MiAwLjM5ODQ0LTIuNDA2MiAxLjE4NzUtMC41ODU5NCAwLjc4MTI1LTAuODc1IDEuODcxMS0wLjg3NSAzLjI2NTZ2Ny41MzEyaC00Ljg5MDZ2LTIxLjI4MWg0Ljg5MDZ2OC4yMDMxYzAuNzM4MjgtMC44ODI4MSAxLjUxOTUtMS41MzkxIDIuMzQzOC0xLjk2ODggMC44MzIwMy0wLjQyNTc4IDEuNzUtMC42NDA2MiAyLjc1LTAuNjQwNjIgMS43Njk1IDAgMy4xMTMzIDAuNTQ2ODggNC4wMzEyIDEuNjQwNiAwLjkxNDA2IDEuMDg1OSAxLjM3NSAyLjY1NjIgMS4zNzUgNC43MTg4eiIvPiYjeGE7ICA8L3N5bWJvbD4mI3hhOyAgPHN5bWJvbCBvdmVyZmxvdz0idmlzaWJsZSIgaWQ9InAiPiYjeGE7ICAgPHBhdGggZD0ibTIuNTc4MS0yMC40MDZoNS44NzVsNy40MjE5IDE0di0xNGg0Ljk4NDR2MjAuNDA2aC01Ljg3NWwtNy40MjE5LTE0djE0aC00Ljk4NDR6Ii8+JiN4YTsgIDwvc3ltYm9sPiYjeGE7ICA8c3ltYm9sIG92ZXJmbG93PSJ2aXNpYmxlIiBpZD0ibyI+JiN4YTsgICA8cGF0aCBkPSJtMi4xODc1LTUuOTY4OHYtOS4zNDM4aDQuOTIxOXYxLjUzMTJjMCAwLjgzNTk0LTAuMDA3ODEzIDEuODc1LTAuMDE1NjI1IDMuMTI1LTAuMDExNzE5IDEuMjUtMC4wMTU2MjUgMi4wODU5LTAuMDE1NjI1IDIuNSAwIDEuMjQyMiAwLjAzMTI1IDIuMTMyOCAwLjA5Mzc1IDIuNjcxOSAwLjA3MDMxMyAwLjU0Mjk3IDAuMTc5NjkgMC45MzM1OSAwLjMyODEyIDEuMTcxOSAwLjIwNzAzIDAuMzI0MjIgMC40NzI2NiAwLjU3NDIyIDAuNzk2ODggMC43NSAwLjMyMDMxIDAuMTY3OTcgMC42OTE0MSAwLjI1IDEuMTA5NCAwLjI1IDEuMDE5NSAwIDEuODIwMy0wLjM5MDYyIDIuNDA2Mi0xLjE3MTkgMC41ODIwMy0wLjc4MTI1IDAuODc1LTEuODY3MiAwLjg3NS0zLjI2NTZ2LTcuNTYyNWg0Ljg5MDZ2MTUuMzEyaC00Ljg5MDZ2LTIuMjE4OGMtMC43NDIxOSAwLjg5ODQ0LTEuNTIzNCAxLjU1ODYtMi4zNDM4IDEuOTg0NC0wLjgyNDIyIDAuNDE0MDYtMS43MzQ0IDAuNjI1LTIuNzM0NCAwLjYyNS0xLjc2MTcgMC0zLjEwNTUtMC41MzkwNi00LjAzMTItMS42MjUtMC45Mjk2OS0xLjA4Mi0xLjM5MDYtMi42NjAyLTEuMzkwNi00LjczNDR6Ii8+JiN4YTsgIDwvc3ltYm9sPiYjeGE7ICA8c3ltYm9sIG92ZXJmbG93PSJ2aXNpYmxlIiBpZD0ibiI+JiN4YTsgICA8cGF0aCBkPSJtMTcuNzUtOS4zMjgxdjkuMzI4MWgtNC45MjE5di03LjE0MDZjMC0xLjMyMDMtMC4wMzEyNS0yLjIzNDQtMC4wOTM3NS0yLjczNDRzLTAuMTY3OTctMC44NjcxOS0wLjMxMjUtMS4xMDk0Yy0wLjE4NzUtMC4zMTI1LTAuNDQ5MjItMC41NTQ2OS0wLjc4MTI1LTAuNzM0MzgtMC4zMjQyMi0wLjE3NTc4LTAuNjk1MzEtMC4yNjU2Mi0xLjEwOTQtMC4yNjU2Mi0xLjAyMzQgMC0xLjgyNDIgMC4zOTg0NC0yLjQwNjIgMS4xODc1LTAuNTg1OTQgMC43ODEyNS0wLjg3NSAxLjg3MTEtMC44NzUgMy4yNjU2djcuNTMxMmgtNC44OTA2di0xNS4zMTJoNC44OTA2djIuMjM0NGMwLjczODI4LTAuODgyODEgMS41MTk1LTEuNTM5MSAyLjM0MzgtMS45Njg4IDAuODMyMDMtMC40MjU3OCAxLjc1LTAuNjQwNjIgMi43NS0wLjY0MDYyIDEuNzY5NSAwIDMuMTEzMyAwLjU0Njg4IDQuMDMxMiAxLjY0MDYgMC45MTQwNiAxLjA4NTkgMS4zNzUgMi42NTYyIDEuMzc1IDQuNzE4OHoiLz4mI3hhOyAgPC9zeW1ib2w+JiN4YTsgIDxzeW1ib2wgb3ZlcmZsb3c9InZpc2libGUiIGlkPSJtIj4mI3hhOyAgIDxwYXRoIGQ9Im0yLjU3ODEtMjAuNDA2aDguNzM0NGMyLjU5MzggMCA0LjU4MiAwLjU3ODEyIDUuOTY4OCAxLjczNDQgMS4zOTQ1IDEuMTQ4NCAyLjA5MzggMi43ODkxIDIuMDkzOCA0LjkyMTkgMCAyLjEzNjctMC42OTkyMiAzLjc4MTItMi4wOTM4IDQuOTM3NS0xLjM4NjcgMS4xNTYyLTMuMzc1IDEuNzM0NC01Ljk2ODggMS43MzQ0aC0zLjQ4NDR2Ny4wNzgxaC01LjI1em01LjI1IDMuODEyNXY1LjcwMzFoMi45MjE5YzEuMDE5NSAwIDEuODA0Ny0wLjI1IDIuMzU5NC0wLjc1IDAuNTYyNS0wLjUgMC44NDM3NS0xLjIwMzEgMC44NDM3NS0yLjEwOTQgMC0wLjkxNDA2LTAuMjgxMjUtMS42MTcyLTAuODQzNzUtMi4xMDk0LTAuNTU0NjktMC40ODgyOC0xLjMzOTgtMC43MzQzOC0yLjM1OTQtMC43MzQzOHoiLz4mI3hhOyAgPC9zeW1ib2w+JiN4YTsgIDxzeW1ib2wgb3ZlcmZsb3c9InZpc2libGUiIGlkPSJsIj4mI3hhOyAgIDxwYXRoIGQ9Im0yLjM1OTQtMTUuMzEyaDQuODkwNnYxNS4wMzFjMCAyLjA1MDgtMC40OTYwOSAzLjYxNzItMS40ODQ0IDQuNzAzMS0wLjk4MDQ3IDEuMDgyLTIuNDA2MiAxLjYyNS00LjI4MTIgMS42MjVoLTIuNDIxOXYtMy4yMTg4aDAuODU5MzhjMC45MjU3OCAwIDEuNTYyNS0wLjIxMDk0IDEuOTA2Mi0wLjYyNSAwLjM1MTU2LTAuNDE3OTcgMC41MzEyNS0xLjI0NjEgMC41MzEyNS0yLjQ4NDR6bTAtNS45Njg4aDQuODkwNnY0aC00Ljg5MDZ6Ii8+JiN4YTsgIDwvc3ltYm9sPiYjeGE7ICA8c3ltYm9sIG92ZXJmbG93PSJ2aXNpYmxlIiBpZD0iayI+JiN4YTsgICA8cGF0aCBkPSJtMTQuNzE5LTE0LjgyOHYzLjk4NDRjLTAuNjU2MjUtMC40NTcwMy0xLjMyNDItMC43OTY4OC0yLTEuMDE1Ni0wLjY2Nzk3LTAuMjE4NzUtMS4zNTk0LTAuMzI4MTItMi4wNzgxLTAuMzI4MTItMS4zNjcyIDAtMi40MzM2IDAuNDAyMzQtMy4yMDMxIDEuMjAzMS0wLjc2MTcyIDAuNzkyOTctMS4xNDA2IDEuOTA2Mi0xLjE0MDYgMy4zNDM4IDAgMS40Mjk3IDAuMzc4OTEgMi41NDMgMS4xNDA2IDMuMzQzOCAwLjc2OTUzIDAuNzkyOTcgMS44MzU5IDEuMTg3NSAzLjIwMzEgMS4xODc1IDAuNzU3ODEgMCAxLjQ4NDQtMC4xMDkzOCAyLjE3MTktMC4zMjgxMiAwLjY4NzUtMC4yMjY1NiAxLjMyMDMtMC41NjY0MSAxLjkwNjItMS4wMTU2djRjLTAuNzYxNzIgMC4yODEyNS0xLjUzOTEgMC40ODgyOC0yLjMyODEgMC42MjUtMC43ODEyNSAwLjE0NDUzLTEuNTc0MiAwLjIxODc1LTIuMzc1IDAuMjE4NzUtMi43NjE3IDAtNC45MjE5LTAuNzA3MDMtNi40ODQ0LTIuMTI1LTEuNTU0Ny0xLjQxNDEtMi4zMjgxLTMuMzgyOC0yLjMyODEtNS45MDYyIDAtMi41MzEyIDAuNzczNDQtNC41MDM5IDIuMzI4MS01LjkyMTkgMS41NjI1LTEuNDE0MSAzLjcyMjctMi4xMjUgNi40ODQ0LTIuMTI1IDAuODAwNzggMCAxLjU5MzggMC4wNzQyMTkgMi4zNzUgMC4yMTg3NSAwLjc4MTI1IDAuMTM2NzIgMS41NTQ3IDAuMzUxNTYgMi4zMjgxIDAuNjQwNjJ6Ii8+JiN4YTsgIDwvc3ltYm9sPiYjeGE7IDwvZGVmcz4mI3hhOyA8Zz4mI3hhOyAgPHBhdGggZD0ibTU0Ny41NSAyMjYuMmMtMTYuMTMzIDAtMzAuNjIxIDcuMDIzNC00MC41OTQgMTguMTcybC02Ny40MjYtNDQuNTc0YzMuMzA0Ny03LjAyNzMgNS4xNjQxLTE0Ljg2NyA1LjE2NDEtMjMuMTQ1IDAtMzAuMDctMjQuMzc1LTU0LjQ0OS01NC40NDktNTQuNDQ5LTE5LjIxOSAwLTM2LjA5OCA5Ljk2ODgtNDUuNzkzIDI1LjAwNGwtMTM5LjUzLTMyLjczYzEuMjc3My00LjYyNSAxLjk3MjctOS40ODgzIDEuOTcyNy0xNC41MTYgMC0zMC4wNy0yNC4zNzUtNTQuNDQ5LTU0LjQ0OS01NC40NDktMzAuMDcgMC01NC40NDUgMjQuMzcxLTU0LjQ0NSA1NC40NDFzMjQuMzc1IDU0LjQ0OSA1NC40NDkgNTQuNDQ5YzkuNDU3IDAgMTguMzUyLTIuNDE0MSAyNi4xMDItNi42NjAybDcxLjQ2OSA4MS42MzctNTEuMzYzIDIyLjQ2OWMtOS42MjExLTE1LjM5OC0yNi43MTEtMjUuNjQ4LTQ2LjIwNy0yNS42NDgtMzAuMDc0IDAtNTQuNDQ5IDI0LjM3OS01NC40NDkgNTQuNDQ5IDAgMzAuMDcgMjQuMzc1IDU0LjQ0OSA1NC40NDkgNTQuNDQ5IDE5LjU4MiAwIDM2Ljc0Mi0xMC4zNDQgNDYuMzM2LTI1Ljg1NWw1MS44NzEgMjIuNDc3LTcwLjQyMiA4MS41MDRjLTguMTM2Ny00LjgzOTgtMTcuNjMzLTcuNjI4OS0yNy43ODktNy42Mjg5LTMwLjA3IDAuMDAzOTA2LTU0LjQ0NSAyNC4zNzktNTQuNDQ1IDU0LjQ1MyAwIDMwLjA3IDI0LjM3NSA1NC40NDkgNTQuNDQ5IDU0LjQ0OSAzMC4wNyAwIDU0LjQ0OS0yNC4zNzUgNTQuNDQ5LTU0LjQ0OSAwLTUuMDU4Ni0wLjcwNzAzLTkuOTQ1My0xLjk5MjItMTQuNTlsMTM5LjUyLTMyLjUwNGM5LjY4MzYgMTUuMDYyIDI2LjU4MiAyNS4wNDcgNDUuODIgMjUuMDQ3IDMwLjA3IDAgNTQuNDQ5LTI0LjM3NSA1NC40NDktNTQuNDQ5IDAtOC4xNzk3LTEuODEyNS0xNS45MzgtNS4wNTA4LTIyLjkwMmw2Ny4xNDUtNDMuOTIyYzkuOTcyNyAxMS4yNjIgMjQuNTM5IDE4LjM3NSA0MC43NyAxOC4zNzUgMzAuMDcgMCA1NC40NDktMjQuMzc1IDU0LjQ0OS01NC40NDktMC4wMTE3MTktMzAuMDc0LTI0LjM4Ny01NC40NTMtNTQuNDYxLTU0LjQ1M3ptLTE5Ni0xMS4yNS00Ni4zMTYgNTMuNjAyLTI5LjE5OS0zMy4zNTkgNjguMDA4LTI5Ljc0MmMyLjE0ODQgMy40NDkyIDQuNjY4IDYuNjMyOCA3LjUwNzggOS41em0tMTYwLjM5LTc2LjcxNWMyLjczNDQtMi43NjE3IDUuMTY0MS01LjgyMDMgNy4yNTc4LTkuMTA5NGwxMzkuNDQgMzIuNzE1Yy0xLjMzMiA0LjcxMDktMi4wNTQ3IDkuNjc1OC0yLjA1NDcgMTQuODE2IDAgNC45NzY2IDAuNjgzNTkgOS43ODkxIDEuOTMzNiAxNC4zNzFsLTcyLjU3NCAzMS43NDJ6bTEzLjg3NSAxNTYuNTVjMS4yMTA5LTQuNTA3OCAxLjg2MzMtOS4yNDYxIDEuODYzMy0xNC4xMzMgMC00Ljk3NjYtMC42ODM1OS05Ljc4OTEtMS45MzM2LTE0LjM3MWw1NS45MzQtMjQuNDYxIDMzLjk0MSAzOC43Ny0zMy4zODcgMzguNjQ1em0xMzguODggNjAuMTc2LTY3LjMxNi0yOS4xNzIgMjguNzIzLTMzLjI0MiA0Ni4xODQgNTIuNzU4Yy0yLjg3NSAyLjkyMTktNS40MjE5IDYuMTU2Mi03LjU4OTggOS42NTYyem0tMTQ1LjUzIDc1Ljg0OGMtMS43NDIyLTIuNzI2Ni0zLjcxMDktNS4yOTMtNS44OTg0LTcuNjYwMmw3My4zMjgtODQuODYzIDcxLjg1OSAzMS4xMzdjLTEuMjEwOSA0LjUwNzgtMS44NjMzIDkuMjQ2MS0xLjg2MzMgMTQuMTMzIDAgNS4xMTcyIDAuNzIyNjYgMTAuMDYyIDIuMDQzIDE0Ljc2MnptMjMyLjYzLTgzLjMzNmMtOS45NzI3LTExLjI2Mi0yNC41MzUtMTguMzc1LTQwLjc2Mi0xOC4zNzUtOS40ODA1IDAtMTguMzkxIDIuNDI1OC0yNi4xNTIgNi42ODc1bC00OC4zODMtNTUuMjczIDQ4LjQ0NS01Ni4wNjZjNy43NDYxIDQuMjM4MyAxNi42MzcgNi42NDg0IDI2LjA5IDYuNjQ4NCAxNi4xMzMgMCAzMC42MjEtNy4wMjM0IDQwLjU5NC0xOC4xNzJsNjcuNDI2IDQ0LjU3NGMtMy4zMDQ3IDcuMDI3My01LjE2NDEgMTQuODY3LTUuMTY0MSAyMy4xNDUgMCA4LjE3OTcgMS44MjAzIDE1LjkzOCA1LjA1MDggMjIuOTAyeiIvPiYjeGE7ICA8dXNlIHhsaW5rOmhyZWY9IiN1IiB5PSI2NDQiIHg9IjcwIi8+JiN4YTsgIDx1c2UgeGxpbms6aHJlZj0iI2MiIHk9IjY0NCIgeD0iOTAuNTUwNzgxIi8+JiN4YTsgIDx1c2UgeGxpbms6aHJlZj0iI2EiIHk9IjY0NCIgeD0iMTA0LjM1OTM3NSIvPiYjeGE7ICA8dXNlIHhsaW5rOmhyZWY9IiNmIiB5PSI2NDQiIHg9IjEyMy4zNDc2NTYiLz4mI3hhOyAgPHVzZSB4bGluazpocmVmPSIjYiIgeT0iNjQ0IiB4PSIxNDIuMjQyMTg4Ii8+JiN4YTsgIDx1c2UgeGxpbms6aHJlZj0iI2EiIHk9IjY0NCIgeD0iMTU1LjYyODkwNiIvPiYjeGE7ICA8dXNlIHhsaW5rOmhyZWY9IiNqIiB5PSI2NDQiIHg9IjE3NC42MTcxODgiLz4mI3hhOyAgPHVzZSB4bGluazpocmVmPSIjaSIgeT0iNjQ0IiB4PSIyMDQuNDEwMTU2Ii8+JiN4YTsgIDx1c2UgeGxpbms6aHJlZj0iI2UiIHk9IjY0NCIgeD0iMjI0LjQ1MzEyNSIvPiYjeGE7ICA8dXNlIHhsaW5rOmhyZWY9IiNoIiB5PSI2NDQiIHg9IjI1Mi40NTMxMjUiLz4mI3hhOyAgPHVzZSB4bGluazpocmVmPSIjZiIgeT0iNjQ0IiB4PSIyNzAuMjkyOTY5Ii8+JiN4YTsgIDx1c2UgeGxpbms6aHJlZj0iI2UiIHk9IjY0NCIgeD0iMjg5LjE4NzUiLz4mI3hhOyAgPHVzZSB4bGluazpocmVmPSIjZyIgeT0iNjQ0IiB4PSIzMDcuNDM3NSIvPiYjeGE7ICA8dXNlIHhsaW5rOmhyZWY9IiN0IiB5PSI2NDQiIHg9IjMzNi42MTcxODgiLz4mI3hhOyAgPHVzZSB4bGluazpocmVmPSIjcyIgeT0iNjQ0IiB4PSIzNDYuMjEwOTM4Ii8+JiN4YTsgIDx1c2UgeGxpbms6aHJlZj0iI3IiIHk9IjY3MiIgeD0iNzAiLz4mI3hhOyAgPHVzZSB4bGluazpocmVmPSIjYyIgeT0iNjcyIiB4PSI4Mi4xODM1OTQiLz4mI3hhOyAgPHVzZSB4bGluazpocmVmPSIjZCIgeT0iNjcyIiB4PSI5NS45OTIxODgiLz4mI3hhOyAgPHVzZSB4bGluazpocmVmPSIjZyIgeT0iNjcyIiB4PSIxMTUuMjI2NTYyIi8+JiN4YTsgIDx1c2UgeGxpbms6aHJlZj0iI2IiIHk9IjY3MiIgeD0iMTU0LjE1MjM0NCIvPiYjeGE7ICA8dXNlIHhsaW5rOmhyZWY9IiNxIiB5PSI2NzIiIHg9IjE2Ny41MzUxNTYiLz4mI3hhOyAgPHVzZSB4bGluazpocmVmPSIjYSIgeT0iNjcyIiB4PSIxODcuNDY4NzUiLz4mI3hhOyAgPHVzZSB4bGluazpocmVmPSIjcCIgeT0iNjcyIiB4PSIyMTYuMjA3MDMxIi8+JiN4YTsgIDx1c2UgeGxpbms6aHJlZj0iI2QiIHk9IjY3MiIgeD0iMjM5LjY0MDYyNSIvPiYjeGE7ICA8dXNlIHhsaW5rOmhyZWY9IiNvIiB5PSI2NzIiIHg9IjI1OC44Nzg5MDYiLz4mI3hhOyAgPHVzZSB4bGluazpocmVmPSIjbiIgeT0iNjcyIiB4PSIyNzguODEyNSIvPiYjeGE7ICA8dXNlIHhsaW5rOmhyZWY9IiNtIiB5PSI2NzIiIHg9IjMwOC40OTIxODgiLz4mI3hhOyAgPHVzZSB4bGluazpocmVmPSIjYyIgeT0iNjcyIiB4PSIzMjkuMDE1NjI1Ii8+JiN4YTsgIDx1c2UgeGxpbms6aHJlZj0iI2QiIHk9IjY3MiIgeD0iMzQyLjgyMDMxMiIvPiYjeGE7ICA8dXNlIHhsaW5rOmhyZWY9IiNsIiB5PSI2NzIiIHg9IjM2Mi4wNTg1OTQiLz4mI3hhOyAgPHVzZSB4bGluazpocmVmPSIjYSIgeT0iNjcyIiB4PSIzNzEuNjU2MjUiLz4mI3hhOyAgPHVzZSB4bGluazpocmVmPSIjayIgeT0iNjcyIiB4PSIzOTAuNjQ4NDM4Ii8+JiN4YTsgIDx1c2UgeGxpbms6aHJlZj0iI2IiIHk9IjY3MiIgeD0iNDA3LjI0MjE4OCIvPiYjeGE7IDwvZz4mI3hhOzwvc3ZnPg==;" vertex="1" parent="1">
          <mxGeometry x="55" y="250" width="130" height="130" as="geometry" />
        </mxCell>
        <mxCell id="3JoruSJg1Iiz7nWv7cRH-2" value="" style="rounded=0;whiteSpace=wrap;html=1;" vertex="1" parent="1">
          <mxGeometry x="60" y="360" width="80" height="20" as="geometry" />
        </mxCell>
        <mxCell id="3JoruSJg1Iiz7nWv7cRH-3" value="&lt;b&gt;&lt;font style=&quot;font-size: 16px;&quot;&gt;Model Training&lt;/font&gt;&lt;/b&gt;" style="text;html=1;align=center;verticalAlign=middle;resizable=0;points=[];autosize=1;strokeColor=none;fillColor=none;" vertex="1" parent="1">
          <mxGeometry x="45" y="375" width="140" height="30" as="geometry" />
        </mxCell>
        <mxCell id="3JoruSJg1Iiz7nWv7cRH-9" value="" style="edgeStyle=orthogonalEdgeStyle;rounded=0;orthogonalLoop=1;jettySize=auto;html=1;fontSize=16;" edge="1" parent="1" source="3JoruSJg1Iiz7nWv7cRH-4" target="3JoruSJg1Iiz7nWv7cRH-7">
          <mxGeometry relative="1" as="geometry" />
        </mxCell>
        <mxCell id="3JoruSJg1Iiz7nWv7cRH-4" value="" style="shape=image;imageAspect=0;aspect=fixed;verticalLabelPosition=bottom;verticalAlign=top;fontSize=16;image=data:image/svg+xml,PHN2ZyB4bWxuczp4bGluaz0iaHR0cDovL3d3dy53My5vcmcvMTk5OS94bGluayIgeG1sbnM9Imh0dHA6Ly93d3cudzMub3JnLzIwMDAvc3ZnIiB4bWw6c3BhY2U9InByZXNlcnZlIiB2aWV3Qm94PSIwIDAgNjQgNjQiIHZlcnNpb249IjEuMSIgc3R5bGU9ImVuYWJsZS1iYWNrZ3JvdW5kOm5ldyAwIDAgNjQgNjQ7IiBpZD0iTGF5ZXJfMV8xXyI+PGc+PHBhdGggZD0iTTYzLDIzLjc3NnYtNy41NTNsLTMuNzI5LTAuOTU1Yy0wLjI5Mi0wLjk0NS0wLjY3LTEuODU4LTEuMTI2LTIuNzI0bDEuOTYxLTMuMzFsLTUuMzQxLTUuMzQxbC0zLjMxLDEuOTYxICAgYy0wLjg2NS0wLjQ1Ni0xLjc3OC0wLjgzNC0yLjcyNC0xLjEyNkw0Ny43NzYsMWgtNy41NTNsLTAuOTU1LDMuNzI5Yy0wLjk0NSwwLjI5Mi0xLjg1OCwwLjY3LTIuNzI0LDEuMTI2bC0zLjMxLTEuOTYxTDMyLjEzLDVIMTcgICBWNGMwLTEuNjU0LTEuMzQ2LTMtMy0zaC00QzguMzQ2LDEsNywyLjM0Niw3LDR2MUgxdjU4aDQ2VjM5aDAuNzc2bDAuOTU1LTMuNzI5YzAuOTQ1LTAuMjkyLDEuODU4LTAuNjcsMi43MjQtMS4xMjZsMy4zMSwxLjk2MSAgIGw1LjM0MS01LjM0MWwtMS45NjEtMy4zMWMwLjQ1Ni0wLjg2NSwwLjgzNC0xLjc3OCwxLjEyNi0yLjcyNEw2MywyMy43NzZ6IE0xNSwzMWgtMlYxNWgyVjMxeiBNOSwxNWgydjE2SDlWMTV6IE0xNC4xMzIsMzMgICBMMTIsMzYuMTk3TDkuODY4LDMzSDE0LjEzMnogTTE1LDEzSDl2LTJoNlYxM3ogTTEyLDM5LjgwM0wxNS4yMDIsMzVIMTd2OEg3di04aDEuNzk4TDEyLDM5LjgwM3ogTTEwLDNoNGMwLjU1MiwwLDEsMC40NDgsMSwxdjVIOSAgIFY0QzksMy40NDgsOS40NDgsMywxMCwzeiBNNDUsNjFIM1Y3aDR2MjUuMzAzTDcuNDY1LDMzSDV2MTJoMTRWMzNoLTIuNDY1TDE3LDMyLjMwM1Y3aDEzLjEzbC0yLjIzNSwyLjIzNWwxLjk2MSwzLjMxICAgYy0wLjQ1NiwwLjg2NS0wLjgzNCwxLjc3OC0xLjEyNiwyLjcyNEwyNSwxNi4yMjR2Ny41NTNsMy43MjksMC45NTVjMC4yOTIsMC45NDUsMC42NywxLjg1OCwxLjEyNiwyLjcyNGwtMS45NjEsMy4zMWw1LjM0MSw1LjM0MSAgIGwzLjMxLTEuOTYxYzAuODY1LDAuNDU2LDEuNzc4LDAuODM0LDIuNzI0LDEuMTI2TDQwLjIyNCwzOUg0NVY2MXogTTU3LjY1NSwyMy4wOGwtMC4xNTIsMC41NjMgICBjLTAuMzE2LDEuMTc1LTAuNzc5LDIuMjk1LTEuMzc2LDMuMzMxbC0wLjI5MiwwLjUwNmwxLjc1OSwyLjk2OGwtMy4xNDYsMy4xNDZsLTIuOTY4LTEuNzU5bC0wLjUwNiwwLjI5MiAgIGMtMS4wMzYsMC41OTctMi4xNTYsMS4wNi0zLjMzMSwxLjM3NmwtMC41NjMsMC4xNTJMNDYuMjI0LDM3aC00LjQ0N2wtMC44NTYtMy4zNDVsLTAuNTYzLTAuMTUyICAgYy0xLjE3NS0wLjMxNi0yLjI5NS0wLjc3OS0zLjMzMS0xLjM3NmwtMC41MDYtMC4yOTJsLTIuOTY4LDEuNzU5bC0zLjE0Ni0zLjE0NmwxLjc1OS0yLjk2OGwtMC4yOTItMC41MDYgICBjLTAuNTk3LTEuMDM2LTEuMDYtMi4xNTYtMS4zNzYtMy4zMzFsLTAuMTUyLTAuNTYzTDI3LDIyLjIyNHYtNC40NDdsMy4zNDUtMC44NTZsMC4xNTItMC41NjNjMC4zMTYtMS4xNzUsMC43NzktMi4yOTUsMS4zNzYtMy4zMzEgICBsMC4yOTItMC41MDZsLTEuNzU5LTIuOTY4bDMuMTQ2LTMuMTQ2bDIuOTY4LDEuNzU5bDAuNTA2LTAuMjkyYzEuMDM2LTAuNTk3LDIuMTU2LTEuMDYsMy4zMzEtMS4zNzZsMC41NjMtMC4xNTJMNDEuNzc2LDNoNC40NDcgICBsMC44NTYsMy4zNDVsMC41NjMsMC4xNTJjMS4xNzUsMC4zMTYsMi4yOTUsMC43NzksMy4zMzEsMS4zNzZsMC41MDYsMC4yOTJsMi45NjgtMS43NTlsMy4xNDYsMy4xNDZsLTEuNzU5LDIuOTY4bDAuMjkyLDAuNTA2ICAgYzAuNTk3LDEuMDM2LDEuMDYsMi4xNTYsMS4zNzYsMy4zMzFsMC4xNTIsMC41NjNMNjEsMTcuNzc2djQuNDQ3TDU3LjY1NSwyMy4wOHoiLz48cGF0aCBkPSJNNDQsOGMtNi42MTcsMC0xMiw1LjM4My0xMiwxMnM1LjM4MywxMiwxMiwxMnMxMi01LjM4MywxMi0xMlM1MC42MTcsOCw0NCw4eiBNNDQsMzBjLTUuNTE0LDAtMTAtNC40ODYtMTAtMTAgICBzNC40ODYtMTAsMTAtMTBzMTAsNC40ODYsMTAsMTBTNDkuNTE0LDMwLDQ0LDMweiIvPjxwYXRoIGQ9Ik00NCwxMmMtNC40MTEsMC04LDMuNTg5LTgsOHMzLjU4OSw4LDgsOHM4LTMuNTg5LDgtOFM0OC40MTEsMTIsNDQsMTJ6IE00NCwyNmMtMy4zMDksMC02LTIuNjkxLTYtNnMyLjY5MS02LDYtNiAgIHM2LDIuNjkxLDYsNlM0Ny4zMDksMjYsNDQsMjZ6Ii8+PHBhdGggZD0iTTE5LjI5Myw0NS4yOTNMMTcuNTg2LDQ3SDV2MTJoMTRWNDguNDE0bDEuNzA3LTEuNzA3TDE5LjI5Myw0NS4yOTN6IE0xNyw1N0g3di04aDguNTg2TDExLDUzLjU4NmwtMS4yOTMtMS4yOTMgICBsLTEuNDE0LDEuNDE0TDExLDU2LjQxNGw2LTZWNTd6Ii8+PHJlY3QgeT0iNTciIHg9IjQxIiB3aWR0aD0iMiIgaGVpZ2h0PSIyIi8+PHJlY3QgeT0iNTciIHg9IjIxIiB3aWR0aD0iMTgiIGhlaWdodD0iMiIvPjxyZWN0IHk9IjUzIiB4PSIyMSIgd2lkdGg9IjIyIiBoZWlnaHQ9IjIiLz48cmVjdCB5PSI0OSIgeD0iMjEiIHdpZHRoPSIyMiIgaGVpZ2h0PSIyIi8+PHJlY3QgeT0iNDMiIHg9IjIxIiB3aWR0aD0iMTgiIGhlaWdodD0iMiIvPjxyZWN0IHk9IjM5IiB4PSIyMSIgd2lkdGg9IjE4IiBoZWlnaHQ9IjIiLz48cmVjdCB5PSIzNSIgeD0iMjEiIHdpZHRoPSI4IiBoZWlnaHQ9IjIiLz48L2c+PC9zdmc+;" vertex="1" parent="1">
          <mxGeometry x="220" y="255" width="120" height="120" as="geometry" />
        </mxCell>
        <mxCell id="3JoruSJg1Iiz7nWv7cRH-6" value="&lt;b&gt;Model Evaluation&lt;/b&gt;" style="text;html=1;align=center;verticalAlign=middle;resizable=0;points=[];autosize=1;strokeColor=none;fillColor=none;fontSize=16;" vertex="1" parent="1">
          <mxGeometry x="180" y="375" width="160" height="30" as="geometry" />
        </mxCell>
        <mxCell id="3JoruSJg1Iiz7nWv7cRH-12" value="" style="edgeStyle=orthogonalEdgeStyle;rounded=0;orthogonalLoop=1;jettySize=auto;html=1;fontSize=16;" edge="1" parent="1" source="3JoruSJg1Iiz7nWv7cRH-7" target="3JoruSJg1Iiz7nWv7cRH-10">
          <mxGeometry relative="1" as="geometry" />
        </mxCell>
        <mxCell id="3JoruSJg1Iiz7nWv7cRH-7" value="" style="shape=image;imageAspect=0;aspect=fixed;verticalLabelPosition=bottom;verticalAlign=top;fontSize=16;image=data:image/svg+xml,PHN2ZyB4bWxuczp4bGluaz0iaHR0cDovL3d3dy53My5vcmcvMTk5OS94bGluayIgeG1sbnM9Imh0dHA6Ly93d3cudzMub3JnLzIwMDAvc3ZnIiB4bWw6c3BhY2U9InByZXNlcnZlIiBzdHlsZT0iZW5hYmxlLWJhY2tncm91bmQ6bmV3IDAgMCA2NCA2NDsiIHZpZXdCb3g9IjAgMCA2NCA2NCIgeT0iMHB4IiB4PSIwcHgiIHZlcnNpb249IjEuMSI+JiN4YTs8c3R5bGUgdHlwZT0idGV4dC9jc3MiPiYjeGE7CS5zdDB7ZGlzcGxheTpub25lO30mI3hhOwkuc3Qxe2Rpc3BsYXk6aW5saW5lO2ZpbGw6I0ZGRkZGRjt9JiN4YTsJLnN0MntkaXNwbGF5OmlubGluZTtmaWxsOm5vbmU7c3Ryb2tlOiM0QzUxNTk7c3Ryb2tlLXdpZHRoOjI7c3Ryb2tlLW1pdGVybGltaXQ6MTA7fSYjeGE7CS5zdDN7ZGlzcGxheTppbmxpbmU7fSYjeGE7CS5zdDR7ZmlsbDpub25lO3N0cm9rZTojNEM1MTU5O3N0cm9rZS13aWR0aDoyO3N0cm9rZS1taXRlcmxpbWl0OjEwO30mI3hhOwkuc3Q1e2Rpc3BsYXk6aW5saW5lO2ZpbGw6bm9uZTtzdHJva2U6IzRDNTE1OTtzdHJva2Utd2lkdGg6MjtzdHJva2UtbWl0ZXJsaW1pdDoxMDtzdHJva2UtZGFzaGFycmF5OjEuOTg1NywxLjk4NTc7fSYjeGE7CS5zdDZ7ZmlsbDpub25lO3N0cm9rZTojNEM1MTU5O3N0cm9rZS13aWR0aDoyO3N0cm9rZS1taXRlcmxpbWl0OjEwO3N0cm9rZS1kYXNoYXJyYXk6MS45ODU3LDEuOTg1Nzt9JiN4YTsJLnN0N3tmaWxsOiM0QzUxNTk7fSYjeGE7CS5zdDh7Zm9udC1mYW1pbHk6J01vbnRzZXJyYXQtQm9sZCc7fSYjeGE7CS5zdDl7Zm9udC1zaXplOjdweDt9JiN4YTsJLnN0MTB7ZGlzcGxheTppbmxpbmU7ZmlsbDojNzRFMkYwO30mI3hhOwkuc3QxMXtkaXNwbGF5OmlubGluZTtmaWxsOiNGQkRBNzM7fSYjeGE7CS5zdDEye2Rpc3BsYXk6aW5saW5lO2ZpbGw6I0YwOEU3MDt9JiN4YTs8L3N0eWxlPiYjeGE7PGcgY2xhc3M9InN0MCIgaWQ9ImJnIj4mI3hhOwk8cmVjdCBoZWlnaHQ9IjYwMC4zIiB3aWR0aD0iNTAwIiBjbGFzcz0ic3QxIiB5PSItMjY4LjIiIHg9Ii0yMTgiIGlkPSJYTUxJRF8xMTlfIi8+JiN4YTs8L2c+JiN4YTs8ZyBjbGFzcz0ic3QwIiBpZD0iZ3VpZGVsaW5lIj4mI3hhOzwvZz4mI3hhOzxnIGlkPSJpY29ucyI+JiN4YTsJPGcgY2xhc3M9InN0MCIgaWQ9IlhNTElEXzU0XyI+JiN4YTsJCTxwYXRoIGQ9Ik01Mi42LDUyLjlIMTEuNGMtMC41LDAtMS0wLjQtMS4xLTAuOUwxMCw0OS41aDE4LjNsMC43LDFoNWwwLjgtMUg1NEw1My42LDUyJiMxMDsmIzk7JiM5OyYjOTtDNTMuNSw1Mi41LDUzLjEsNTIuOSw1Mi42LDUyLjl6IiBjbGFzcz0ic3QyIiBpZD0iWE1MSURfNzk3XyIvPiYjeGE7CQk8cGF0aCBkPSJNMTQuMSwyMy43SDEyYy0wLjEsMC0wLjMsMC4xLTAuMywwLjN2MjUuNiIgY2xhc3M9InN0MiIgaWQ9IlhNTElEXzlfIi8+JiN4YTsJCTxwYXRoIGQ9Ik01Mi4zLDQ5LjVWMjRjMC0wLjEtMC4xLTAuMy0wLjMtMC4zaC0yLjgiIGNsYXNzPSJzdDIiIGlkPSJYTUxJRF84XyIvPiYjeGE7CQk8bGluZSB5Mj0iNDUuNSIgeDI9IjQ3LjciIHkxPSI0NS41IiB4MT0iMTUuOCIgY2xhc3M9InN0MiIgaWQ9IlhNTElEXzMyNF8iLz4mI3hhOwkJPHBhdGggZD0iTTQ2LjcsNDEuNkgxNi44Yy0wLjEsMC0wLjItMC4xLTAuMi0wLjJWMTEuM2MwLTAuMSwwLjEtMC4yLDAuMi0wLjJoMjkuOSYjMTA7JiM5OyYjOTsmIzk7YzAuMSwwLDAuMiwwLjEsMC4yLDAuMnYzMC4xQzQ2LjksNDEuNSw0Ni44LDQxLjYsNDYuNyw0MS42eiIgY2xhc3M9InN0MiIgaWQ9IlhNTElEXzRfIi8+JiN4YTsJCTxsaW5lIHkyPSIxNi41IiB4Mj0iNDYuOSIgeTE9IjE2LjUiIHgxPSIxNS44IiBjbGFzcz0ic3QyIiBpZD0iWE1MSURfMTNfIi8+JiN4YTsJCTxsaW5lIHkyPSIxMy42IiB4Mj0iMjEuMyIgeTE9IjEzLjYiIHgxPSIxOS40IiBjbGFzcz0ic3QyIiBpZD0iWE1MSURfMTRfIi8+JiN4YTsJCTxsaW5lIHkyPSIxMy42IiB4Mj0iMjQuNCIgeTE9IjEzLjYiIHgxPSIyMi41IiBjbGFzcz0ic3QyIiBpZD0iWE1MSURfN18iLz4mI3hhOwkJPGxpbmUgeTI9IjEzLjYiIHgyPSIyNy41IiB5MT0iMTMuNiIgeDE9IjI1LjYiIGNsYXNzPSJzdDIiIGlkPSJYTUxJRF8xNV8iLz4mI3hhOwkJPGxpbmUgeTI9IjIyIiB4Mj0iMjIuMiIgeTE9IjIyIiB4MT0iMjAuMyIgY2xhc3M9InN0MiIgaWQ9IlhNTElEXzE2XyIvPiYjeGE7CQk8bGluZSB5Mj0iMjIiIHgyPSIzNS40IiB5MT0iMjIiIHgxPSIyNC42IiBjbGFzcz0ic3QyIiBpZD0iWE1MSURfMzZfIi8+JiN4YTsJCTxsaW5lIHkyPSIyMiIgeDI9IjM3LjQiIHkxPSIyMiIgeDE9IjQwLjgiIGNsYXNzPSJzdDIiIGlkPSJYTUxJRF80MF8iLz4mI3hhOwkJPGxpbmUgeTI9IjI1LjgiIHgyPSIyMi4yIiB5MT0iMjUuOCIgeDE9IjIwLjMiIGNsYXNzPSJzdDIiIGlkPSJYTUxJRF8xN18iLz4mI3hhOwkJPGxpbmUgeTI9IjI1LjgiIHgyPSIyOS4yIiB5MT0iMjUuOCIgeDE9IjI0LjQiIGNsYXNzPSJzdDIiIGlkPSJYTUxJRF80NF8iLz4mI3hhOwkJPGxpbmUgeTI9IjI1LjgiIHgyPSIzMS40IiB5MT0iMjUuOCIgeDE9IjQzLjYiIGNsYXNzPSJzdDIiIGlkPSJYTUxJRF80OF8iLz4mI3hhOwkJPGxpbmUgeTI9IjI5LjYiIHgyPSIyMi4yIiB5MT0iMjkuNiIgeDE9IjIwLjMiIGNsYXNzPSJzdDIiIGlkPSJYTUxJRF8yMV8iLz4mI3hhOwkJPGxpbmUgeTI9IjI5LjYiIHgyPSIzNS44IiB5MT0iMjkuNiIgeDE9IjI0LjciIGNsYXNzPSJzdDIiIGlkPSJYTUxJRF80OV8iLz4mI3hhOwkJPGxpbmUgeTI9IjMzLjMiIHgyPSIyMi4yIiB5MT0iMzMuMyIgeDE9IjIwLjMiIGNsYXNzPSJzdDIiIGlkPSJYTUxJRF8yNV8iLz4mI3hhOwkJPGxpbmUgeTI9IjMzLjMiIHgyPSIzMS44IiB5MT0iMzMuMyIgeDE9IjI0LjUiIGNsYXNzPSJzdDIiIGlkPSJYTUxJRF81MF8iLz4mI3hhOwkJPGxpbmUgeTI9IjMzLjMiIHgyPSIzMy45IiB5MT0iMzMuMyIgeDE9IjM5LjkiIGNsYXNzPSJzdDIiIGlkPSJYTUxJRF81MV8iLz4mI3hhOwkJPGxpbmUgeTI9IjM3LjEiIHgyPSIyMi4yIiB5MT0iMzcuMSIgeDE9IjIwLjMiIGNsYXNzPSJzdDIiIGlkPSJYTUxJRF8yOV8iLz4mI3hhOwkJPGxpbmUgeTI9IjM3LjEiIHgyPSIzNy40IiB5MT0iMzcuMSIgeDE9IjI0LjYiIGNsYXNzPSJzdDIiIGlkPSJYTUxJRF81Ml8iLz4mI3hhOwkJPGxpbmUgeTI9IjM3LjEiIHgyPSIzOC40IiB5MT0iMzcuMSIgeDE9IjQwLjkiIGNsYXNzPSJzdDIiIGlkPSJYTUxJRF81M18iLz4mI3hhOwk8L2c+JiN4YTsJPGcgY2xhc3M9InN0MCIgaWQ9IlhNTElEXzE0NV8iPiYjeGE7CQk8ZyBjbGFzcz0ic3QzIiBpZD0iWE1MSURfNTZfIj4mI3hhOwkJCTxwYXRoIGQ9Ik01NS40LDUyLjlIOC42Yy0wLjEsMC0wLjItMC4xLTAuMi0wLjJ2LTguNWMwLTAuMSwwLjEtMC4yLDAuMi0wLjJoNDYuOCYjMTA7JiM5OyYjOTsmIzk7JiM5O2MwLjEsMCwwLjIsMC4xLDAuMiwwLjJ2OC41QzU1LjYsNTIuOCw1NS41LDUyLjksNTUuNCw1Mi45eiIgY2xhc3M9InN0NCIgaWQ9IlhNTElEXzc5XyIvPiYjeGE7CQkJPGxpbmUgeTI9IjQ3LjYiIHgyPSIxMi45IiB5MT0iNDQiIHgxPSIxMi45IiBjbGFzcz0ic3Q0IiBpZD0iWE1MSURfNzhfIi8+JiN4YTsJCQk8bGluZSB5Mj0iNDcuNiIgeDI9IjE3LjYiIHkxPSI0NCIgeDE9IjE3LjYiIGNsYXNzPSJzdDQiIGlkPSJYTUxJRF83NV8iLz4mI3hhOwkJCTxsaW5lIHkyPSI0Ny42IiB4Mj0iMjIuNCIgeTE9IjQ0IiB4MT0iMjIuNCIgY2xhc3M9InN0NCIgaWQ9IlhNTElEXzc0XyIvPiYjeGE7CQkJPGxpbmUgeTI9IjQ3LjYiIHgyPSIyNy4xIiB5MT0iNDQiIHgxPSIyNy4xIiBjbGFzcz0ic3Q0IiBpZD0iWE1MSURfNzBfIi8+JiN4YTsJCQk8bGluZSB5Mj0iNDcuNiIgeDI9IjMxLjgiIHkxPSI0NCIgeDE9IjMxLjgiIGNsYXNzPSJzdDQiIGlkPSJYTUxJRF82OV8iLz4mI3hhOwkJCTxsaW5lIHkyPSI0Ny42IiB4Mj0iMzYuNSIgeTE9IjQ0IiB4MT0iMzYuNSIgY2xhc3M9InN0NCIgaWQ9IlhNTElEXzY4XyIvPiYjeGE7CQkJPGxpbmUgeTI9IjQ3LjYiIHgyPSI0MS4yIiB5MT0iNDQiIHgxPSI0MS4yIiBjbGFzcz0ic3Q0IiBpZD0iWE1MSURfNTlfIi8+JiN4YTsJCQk8bGluZSB5Mj0iNDcuNiIgeDI9IjQ1LjkiIHkxPSI0NCIgeDE9IjQ1LjkiIGNsYXNzPSJzdDQiIGlkPSJYTUxJRF81OF8iLz4mI3hhOwkJCTxsaW5lIHkyPSI0Ny42IiB4Mj0iNTAuNiIgeTE9IjQ0IiB4MT0iNTAuNiIgY2xhc3M9InN0NCIgaWQ9IlhNTElEXzU3XyIvPiYjeGE7CQk8L2c+JiN4YTsJCTxwYXRoIGQ9Ik01MC42LDQyVjExLjRjMC0wLjEtMC4xLTAuMi0wLjItMC4ySDEzLjJjLTAuMSwwLTAuMiwwLjEtMC4yLDAuMlY0MiIgY2xhc3M9InN0MiIgaWQ9IlhNTElEXzY0XyIvPiYjeGE7CQk8bGluZSB5Mj0iMTYuNSIgeDI9IjUwLjYiIHkxPSIxNi41IiB4MT0iMTIuOSIgY2xhc3M9InN0MiIgaWQ9IlhNTElEXzY1XyIvPiYjeGE7CQk8bGluZSB5Mj0iMTMuNiIgeDI9IjE5LjEiIHkxPSIxMy42IiB4MT0iMTYuNiIgY2xhc3M9InN0MiIgaWQ9IlhNTElEXzcyXyIvPiYjeGE7CQk8bGluZSB5Mj0iMTMuNiIgeDI9IjIzLjEiIHkxPSIxMy42IiB4MT0iMjAuNiIgY2xhc3M9InN0MiIgaWQ9IlhNTElEXzYyXyIvPiYjeGE7CQk8bGluZSB5Mj0iMTMuNiIgeDI9IjI3LjEiIHkxPSIxMy42IiB4MT0iMjQuNiIgY2xhc3M9InN0MiIgaWQ9IlhNTElEXzgwXyIvPiYjeGE7CQk8cG9seWxpbmUgcG9pbnRzPSI0NS44LDI5LjYgMTcuNiwyOS42IDE3LjYsMjAiIGNsYXNzPSJzdDIiIGlkPSJYTUxJRF84Ml8iLz4mI3hhOwkJPHBvbHlsaW5lIHBvaW50cz0iMTcuNiw0MC40IDE3LjYsMzMuOCAyNC4zLDMzLjgiIGNsYXNzPSJzdDIiIGlkPSJYTUxJRF84M18iLz4mI3hhOwkJPHBvbHlsaW5lIHBvaW50cz0iMjcuNiw0MC40IDI3LjYsMzMuOCAzNC4zLDMzLjgiIGNsYXNzPSJzdDIiIGlkPSJYTUxJRF84MV8iLz4mI3hhOwkJPHBvbHlsaW5lIHBvaW50cz0iMzcuNiw0MC40IDM3LjYsMzMuOCA0NC4zLDMzLjgiIGNsYXNzPSJzdDIiIGlkPSJYTUxJRF84NF8iLz4mI3hhOwk8L2c+JiN4YTsJPGcgY2xhc3M9InN0MCIgaWQ9IlhNTElEXzczXyI+JiN4YTsJCTxwYXRoIGQ9Ik00NC42LDEzYzAtMS4yLTAuOS0yLjEtMi4xLTIuMUgyMS42Yy0xLjIsMC0yLjEsMC45LTIuMSwyLjF2MzhjMCwxLjIsMC45LDIuMSwyLjEsMi4xaDIwLjkmIzEwOyYjOTsmIzk7JiM5O2MxLjIsMCwyLjEtMC45LDIuMS0yLjFWMTN6IiBjbGFzcz0ic3QyIiBpZD0iWE1MSURfNzZfIi8+JiN4YTsJCTxsaW5lIHkyPSIxNy4zIiB4Mj0iNDQuNiIgeTE9IjE3LjMiIHgxPSIxOS40IiBjbGFzcz0ic3QyIiBpZD0iWE1MSURfOTFfIi8+JiN4YTsJCTxsaW5lIHkyPSIxNC4yIiB4Mj0iMzYiIHkxPSIxNC4yIiB4MT0iMjgiIGNsYXNzPSJzdDIiIGlkPSJYTUxJRF85MF8iLz4mI3hhOwkJPGxpbmUgeTI9IjQ2LjgiIHgyPSI0NC42IiB5MT0iNDYuOCIgeDE9IjE5LjQiIGNsYXNzPSJzdDIiIGlkPSJYTUxJRF84OV8iLz4mI3hhOwkJPGcgY2xhc3M9InN0MyIgaWQ9IlhNTElEXzM0Nl8iPiYjeGE7CQkJPHBhdGggZD0iTTI1LjMsMzkuNFYzNmMwLTAuMywwLjItMC42LDAuNS0wLjdsNC4zLTEuNXYtMi40IiBjbGFzcz0ic3Q0IiBpZD0iWE1MSURfMzU3XyIvPiYjeGE7CQkJPHBhdGggZD0iTTM4LjcsMzkuNFYzNmMwLTAuMy0wLjItMC42LTAuNS0wLjdsLTQuMy0xLjV2LTIuNCIgY2xhc3M9InN0NCIgaWQ9IlhNTElEXzM1NV8iLz4mI3hhOwkJCTxwYXRoIGQ9Ik0zNS4yLDI2YzAtMS44LTEuNC0zLjItMy4yLTMuMmMtMS44LDAtMy4yLDEuNC0zLjIsMy4ybDAuMywzLjljMCwwLjUsMC4zLDEsMC44LDEuMmwxLjYsMSYjMTA7JiM5OyYjOTsmIzk7JiM5O2gxbDEuNi0xYzAuNS0wLjIsMC44LTAuNywwLjgtMS4yTDM1LjIsMjZ6IiBjbGFzcz0ic3Q0IiBpZD0iWE1MSURfMzU0XyIvPiYjeGE7CQkJPHBvbHlsaW5lIHBvaW50cz0iMzAuMSwzMy44IDMxLjMsMzUuMiAzMi43LDM1LjIgMzQsMzMuOCIgY2xhc3M9InN0NCIgaWQ9IlhNTElEXzM0N18iLz4mI3hhOwkJPC9nPiYjeGE7CQk8bGluZSB5Mj0iMzkuNCIgeDI9IjQxLjgiIHkxPSIzOS40IiB4MT0iMjIuNiIgY2xhc3M9InN0MiIgaWQ9IlhNTElEXzg2XyIvPiYjeGE7CTwvZz4mI3hhOwk8ZyBjbGFzcz0ic3QwIiBpZD0iWE1MSURfMTIyXyI+JiN4YTsJCTxwYXRoIGQ9Ik01MiwxNC4xYzAsMS0wLjQsMS44LTEsMi41Yy0wLjYsMC42LTEuNSwxLTIuNSwxcy0xLjgtMC40LTIuNS0xYy0wLjYtMC42LTEtMS41LTEtMi41JiMxMDsmIzk7JiM5OyYjOTtzMC40LTEuOCwxLTIuNWMwLjYtMC42LDEuNS0xLDIuNS0xczEuOCwwLjQsMi41LDFDNTEuNiwxMi4zLDUyLDEzLjIsNTIsMTQuMXoiIGNsYXNzPSJzdDIiIGlkPSJYTUxJRF8xMTNfIi8+JiN4YTsJCTxnIGNsYXNzPSJzdDMiIGlkPSJYTUxJRF8xMTFfIj4mI3hhOwkJCTxwYXRoIGQ9Ik0yNy42LDQxLjloLTEuNVYyMC43YzAtMy45LDIuMi03LjQsNS43LTkuMWwwLDBsMCwwYzMuNSwxLjcsNS43LDUuMiw1LjcsOS4xdjIxLjJIMzYiIGNsYXNzPSJzdDQiIGlkPSJYTUxJRF85NF8iLz4mI3hhOwkJCTxwYXRoIGQ9Ik0yMi41LDQ0LjloLTV2LTkuMmMwLTEuNywxLTMuMiwyLjUtMy45bDAsMGwwLDBjMS41LDAuNywyLjUsMi4zLDIuNSwzLjlWNDQuOXoiIGNsYXNzPSJzdDQiIGlkPSJYTUxJRF82N18iLz4mI3hhOwkJCTxwYXRoIGQ9Ik0xOC4yLDQ3djMuNmMwLDEuMiwwLjcsMi4zLDEuOCwyLjlsMCwwbDAsMGMxLjEtMC41LDEuOC0xLjYsMS44LTIuOVY0NyIgY2xhc3M9InN0NCIgaWQ9IlhNTElEXzExOF8iLz4mI3hhOwkJCTxwYXRoIGQ9Ik0zMCw0N3YzLjZjMCwxLjIsMC43LDIuMywxLjgsMi45bDAsMGwwLDBjMS4xLTAuNSwxLjgtMS42LDEuOC0yLjlWNDciIGNsYXNzPSJzdDQiIGlkPSJYTUxJRF8xMjBfIi8+JiN4YTsJCQk8cGF0aCBkPSJNNDEuOCw0N3YzLjZjMCwxLjIsMC43LDIuMywxLjgsMi45bDAsMGwwLDBjMS4xLTAuNSwxLjgtMS42LDEuOC0yLjlWNDciIGNsYXNzPSJzdDQiIGlkPSJYTUxJRF8xMjFfIi8+JiN4YTsJCQk8cGF0aCBkPSJNNDYsNDQuOWgtNXYtOS4yYzAtMS43LDEtMy4yLDIuNS0zLjlsMCwwbDAsMGMxLjUsMC43LDIuNSwyLjMsMi41LDMuOVY0NC45eiIgY2xhc3M9InN0NCIgaWQ9IlhNTElEXzcxXyIvPiYjeGE7CQkJPHBhdGggZD0iTTM0LjIsNDQuOWgtNXYtOS4yYzAtMS43LDEtMy4yLDIuNS0zLjlsMCwwbDAsMGMxLjUsMC43LDIuNSwyLjMsMi41LDMuOVY0NC45eiIgY2xhc3M9InN0NCIgaWQ9IlhNTElEXzg4XyIvPiYjeGE7CQkJPGxpbmUgeTI9IjM0LjUiIHgyPSIyNi4xIiB5MT0iMzguNCIgeDE9IjIyLjUiIGNsYXNzPSJzdDQiIGlkPSJYTUxJRF85M18iLz4mI3hhOwkJCTxsaW5lIHkyPSIzOC4yIiB4Mj0iMjYuMSIgeTE9IjQyIiB4MT0iMjIuNSIgY2xhc3M9InN0NCIgaWQ9IlhNTElEXzkyXyIvPiYjeGE7CQkJPGxpbmUgeTI9IjM0LjUiIHgyPSIzNy42IiB5MT0iMzguNCIgeDE9IjQxLjIiIGNsYXNzPSJzdDQiIGlkPSJYTUxJRF85Nl8iLz4mI3hhOwkJCTxsaW5lIHkyPSIzOC4yIiB4Mj0iMzcuNiIgeTE9IjQyIiB4MT0iNDEuMiIgY2xhc3M9InN0NCIgaWQ9IlhNTElEXzk1XyIvPiYjeGE7CQkJPGNpcmNsZSByPSIyLjMiIGN5PSIyMy43IiBjeD0iMzEuOCIgY2xhc3M9InN0NCIgaWQ9IlhNTElEXzY2XyIvPiYjeGE7CQkJPGxpbmUgeTI9IjE2LjgiIHgyPSIzNi44IiB5MT0iMTYuOCIgeDE9IjI2LjgiIGNsYXNzPSJzdDQiIGlkPSJYTUxJRF85OF8iLz4mI3hhOwkJCTxsaW5lIHkyPSIzOS4xIiB4Mj0iMjIuOCIgeTE9IjM5LjEiIHgxPSIxNy45IiBjbGFzcz0ic3Q0IiBpZD0iWE1MSURfOTdfIi8+JiN4YTsJCQk8bGluZSB5Mj0iMzkuMSIgeDI9IjM0LjYiIHkxPSIzOS4xIiB4MT0iMjkuNiIgY2xhc3M9InN0NCIgaWQ9IlhNTElEXzEwMF8iLz4mI3hhOwkJCTxsaW5lIHkyPSIzOS4xIiB4Mj0iNDYuNCIgeTE9IjM5LjEiIHgxPSI0MS40IiBjbGFzcz0ic3Q0IiBpZD0iWE1MSURfMTAyXyIvPiYjeGE7CQk8L2c+JiN4YTsJCTxwYXRoIGQ9Ik01MCwyNy41YzEuNiwwLDMuMSwwLjcsNC4xLDEuN2MxLjEsMS4xLDEuNywyLjUsMS43LDQuMWMwLDEuNi0wLjcsMy4xLTEuNyw0LjEiIGNsYXNzPSJzdDIiIGlkPSJYTUxJRF8xMTdfIi8+JiN4YTsJCTxwYXRoIGQ9Ik00OC45LDMwLjZjMC43LTAuNywxLjEtMS42LDEuMS0yLjdjMC0xLTAuNC0yLTEuMS0yLjdjLTAuNy0wLjctMS42LTEuMS0yLjctMS4xJiMxMDsmIzk7JiM5OyYjOTtjLTEsMC0yLDAuNC0yLjcsMS4xYy0wLjcsMC43LTEuMSwxLjYtMS4xLDIuN2gtMi42IiBjbGFzcz0ic3QyIiBpZD0iWE1MSURfMTE2XyIvPiYjeGE7CQk8ZyBjbGFzcz0ic3QzIiBpZD0iWE1MSURfMTE1XyI+JiN4YTsJCQk8cGF0aCBkPSJNOC4yLDIyLjhjMC0wLjgsMC4zLTEuNSwwLjktMi4xYzAuNS0wLjUsMS4zLTAuOSwyLjEtMC45YzAuOCwwLDEuNSwwLjMsMi4xLDAuOSYjMTA7JiM5OyYjOTsmIzk7JiM5O2MwLjUsMC41LDAuOSwxLjMsMC45LDIuMWMwLDAuOC0wLjMsMS41LTAuOSwyLjEiIGNsYXNzPSJzdDQiIGlkPSJYTUxJRF8xMTJfIi8+JiN4YTsJCQk8cGF0aCBkPSJNMTMuOSwyMS43YzAtMi4yLDEuOC00LDQtNHM0LDEuOCw0LDRoMi40IiBjbGFzcz0ic3Q0IiBpZD0iWE1MSURfMTE0XyIvPiYjeGE7CQk8L2c+JiN4YTsJPC9nPiYjeGE7CTxnIGNsYXNzPSJzdDAiIGlkPSJYTUxJRF8xMjlfIj4mI3hhOwkJPGcgY2xhc3M9InN0MyIgaWQ9IlhNTElEXzEyNF8iPiYjeGE7CQkJPHBhdGggZD0iTTU0LjMsMjUuMmMwLTAuNy0wLjUtMS4yLTEuMi0xLjJINDEuM2MtMC43LDAtMS4yLDAuNS0xLjIsMS4ydjIxLjZjMCwwLjcsMC41LDEuMiwxLjIsMS4yJiMxMDsmIzk7JiM5OyYjOTsmIzk7aDExLjhjMC43LDAsMS4yLTAuNSwxLjItMS4yVjI1LjJ6IiBjbGFzcz0ic3Q0IiBpZD0iWE1MSURfMTM2XyIvPiYjeGE7CQkJPGxpbmUgeTI9IjI5LjciIHgyPSI1NC4zIiB5MT0iMjkuNyIgeDE9IjQwLjEiIGNsYXNzPSJzdDQiIGlkPSJYTUxJRF8xMzRfIi8+JiN4YTsJCQk8bGluZSB5Mj0iMjYuOSIgeDI9IjQ5LjUiIHkxPSIyNi45IiB4MT0iNDQuOSIgY2xhc3M9InN0NCIgaWQ9IlhNTElEXzEzM18iLz4mI3hhOwkJCTxsaW5lIHkyPSI0My40IiB4Mj0iNTQuMyIgeTE9IjQzLjQiIHgxPSI0MC4xIiBjbGFzcz0ic3Q0IiBpZD0iWE1MSURfMTMyXyIvPiYjeGE7CQk8L2c+JiN4YTsJCTxnIGNsYXNzPSJzdDMiIGlkPSJYTUxJRF8yNDNfIj4mI3hhOwkJCTxwYXRoIGQ9Ik0zNy42LDQxLjVoLTI3Yy0wLjUsMC0xLTAuNC0xLTFWMTdjMC0wLjUsMC40LTEsMS0xaDM5YzAuNSwwLDEsMC40LDEsMXY0LjQiIGNsYXNzPSJzdDQiIGlkPSJYTUxJRF8xMjZfIi8+JiN4YTsJCQk8bGluZSB5Mj0iMzYiIHgyPSIzNy42IiB5MT0iMzYiIHgxPSI5LjciIGNsYXNzPSJzdDQiIGlkPSJYTUxJRF8yNDFfIi8+JiN4YTsJCQk8bGluZSB5Mj0iNDgiIHgyPSIxOS45IiB5MT0iNDEiIHgxPSIxOS45IiBjbGFzcz0ic3Q0IiBpZD0iWE1MSURfMjQyXyIvPiYjeGE7CQkJPGxpbmUgeTI9IjQ4IiB4Mj0iMzcuNiIgeTE9IjQ4IiB4MT0iMTYuMyIgY2xhc3M9InN0NCIgaWQ9IlhNTElEXzI0NF8iLz4mI3hhOwkJPC9nPiYjeGE7CQk8bGluZSB5Mj0iMjEuNCIgeDI9IjM3LjciIHkxPSIyMS40IiB4MT0iMTQuNCIgY2xhc3M9InN0NSIgaWQ9IlhNTElEXzEyN18iLz4mI3hhOwkJPGxpbmUgeTI9IjI2LjkiIHgyPSIzNy43IiB5MT0iMjYuOSIgeDE9IjE0LjQiIGNsYXNzPSJzdDUiIGlkPSJYTUxJRF8xMjVfIi8+JiN4YTsJCTxsaW5lIHkyPSIzMi40IiB4Mj0iMzcuNyIgeTE9IjMyLjQiIHgxPSIxNC40IiBjbGFzcz0ic3Q1IiBpZD0iWE1MSURfMTI4XyIvPiYjeGE7CQk8bGluZSB5Mj0iMzMuOCIgeDI9IjUzLjIiIHkxPSIzMy44IiB4MT0iNDIuMyIgY2xhc3M9InN0NSIgaWQ9IlhNTElEXzEzMV8iLz4mI3hhOwkJPGxpbmUgeTI9IjM5LjMiIHgyPSI1My4yIiB5MT0iMzkuMyIgeDE9IjQyLjMiIGNsYXNzPSJzdDUiIGlkPSJYTUxJRF8xMzBfIi8+JiN4YTsJPC9nPiYjeGE7CTxnIGNsYXNzPSJzdDAiIGlkPSJYTUxJRF8xMzhfIj4mI3hhOwkJPHBhdGggZD0iTTUwLjksNTIuOVYxMS4zYzAtMC4xLTAuMS0wLjItMC4yLTAuMkgxMy4zYy0wLjEsMC0wLjIsMC4xLTAuMiwwLjJ2NDEuNiIgY2xhc3M9InN0MiIgaWQ9IlhNTElEXzE0NF8iLz4mI3hhOwkJPGxpbmUgeTI9IjE2LjQiIHgyPSI1MC45IiB5MT0iMTYuNCIgeDE9IjEzLjEiIGNsYXNzPSJzdDIiIGlkPSJYTUxJRF8xNDNfIi8+JiN4YTsJCTxsaW5lIHkyPSIxMy41IiB4Mj0iMTkuNCIgeTE9IjEzLjUiIHgxPSIxNi45IiBjbGFzcz0ic3QyIiBpZD0iWE1MSURfMTQyXyIvPiYjeGE7CQk8bGluZSB5Mj0iMTMuNSIgeDI9IjIzLjQiIHkxPSIxMy41IiB4MT0iMjAuOSIgY2xhc3M9InN0MiIgaWQ9IlhNTElEXzE0MV8iLz4mI3hhOwkJPGxpbmUgeTI9IjEzLjUiIHgyPSIyNy40IiB5MT0iMTMuNSIgeDE9IjI0LjkiIGNsYXNzPSJzdDIiIGlkPSJYTUxJRF8xNDBfIi8+JiN4YTsJCTxwb2x5bGluZSBwb2ludHM9IjQ2LDMyIDE3LjksMzIgMTcuOSwyMCIgY2xhc3M9InN0MiIgaWQ9IlhNTElEXzEzOV8iLz4mI3hhOwkJPHBhdGggZD0iTTQ3LjQsNTIuOWMwLTQuMy0xLjctOC4yLTQuNi0xMWMtMi44LTIuOC02LjctNC42LTExLTQuNnMtOC4yLDEuNy0xMSw0LjYmIzEwOyYjOTsmIzk7JiM5O2MtMi44LDIuOC00LjYsNi43LTQuNiwxMSIgY2xhc3M9InN0NSIgaWQ9IlhNTElEXzE2M18iLz4mI3hhOwkJPGcgY2xhc3M9InN0MyIgaWQ9IlhNTElEXzE2Ml8iPiYjeGE7CQkJPHBhdGggZD0iTTQzLjQsNTIuOWwwLTEuMmwtMy45LTAuNmMtMC4yLTAuOC0wLjUtMS42LTEtMi4zbDIuNC0zLjJsLTEuOC0xLjhsLTMuMiwyLjQmIzEwOyYjOTsmIzk7JiM5OyYjOTtjLTAuNy0wLjQtMS41LTAuOC0yLjMtMUwzMyw0MS4zaC0yLjVMMzAsNDUuMmMtMC44LDAuMi0xLjYsMC41LTIuMywxbC0zLjItMi40bC0xLjgsMS43bDIuNCwzLjJjLTAuNCwwLjctMC44LDEuNS0xLDIuMyYjMTA7JiM5OyYjOTsmIzk7JiM5O2wtMy45LDAuNmwwLDEuMyIgY2xhc3M9InN0NCIgaWQ9IlhNTElEXzEzNV8iLz4mI3hhOwkJCTxwYXRoIGQ9Ik0yOC4yLDUyLjljMC0yLDEuNi0zLjUsMy41LTMuNWMyLDAsMy41LDEuNiwzLjUsMy41IiBjbGFzcz0ic3Q0IiBpZD0iWE1MSURfNzdfIi8+JiN4YTsJCTwvZz4mI3hhOwk8L2c+JiN4YTsJPGcgY2xhc3M9InN0MCIgaWQ9IlhNTElEXzE2Nl8iPiYjeGE7CQk8cGF0aCBkPSJNNTIuMiw1Mi42YzAuMSwwLDAuMy0wLjEsMC4zLTAuM1YxMS43YzAtMC4xLTAuMS0wLjMtMC4zLTAuM0gxMS44Yy0wLjEsMC0wLjMsMC4xLTAuMywwLjMmIzEwOyYjOTsmIzk7JiM5O3Y0MC42YzAsMC4xLDAuMSwwLjMsMC4zLDAuM0g1Mi4yeiIgY2xhc3M9InN0MiIgaWQ9IlhNTElEXzE0Nl8iLz4mI3hhOwkJPGxpbmUgeTI9IjE4LjYiIHgyPSI1Mi41IiB5MT0iMTguNiIgeDE9IjExLjUiIGNsYXNzPSJzdDIiIGlkPSJYTUxJRF8xODVfIi8+JiN4YTsJCTxsaW5lIHkyPSIxNC44IiB4Mj0iMTcuOSIgeTE9IjE0LjgiIHgxPSIxNS40IiBjbGFzcz0ic3QyIiBpZD0iWE1MSURfMTg0XyIvPiYjeGE7CQk8bGluZSB5Mj0iMTQuOCIgeDI9IjIyLjEiIHkxPSIxNC44IiB4MT0iMTkuNiIgY2xhc3M9InN0MiIgaWQ9IlhNTElEXzE4M18iLz4mI3hhOwkJPGxpbmUgeTI9IjE0LjgiIHgyPSIyNi4zIiB5MT0iMTQuOCIgeDE9IjIzLjgiIGNsYXNzPSJzdDIiIGlkPSJYTUxJRF8xODJfIi8+JiN4YTsJCTxnIGNsYXNzPSJzdDMiIGlkPSJYTUxJRF8xNjBfIj4mI3hhOwkJCTxwYXRoIGQ9Ik00My42LDM2LjZsMC0yLjRsLTMuOS0wLjZjLTAuMi0wLjgtMC41LTEuNi0xLTIuM2wyLjMtMy4xbC0xLjctMS43bC0zLjEsMi4zJiMxMDsmIzk7JiM5OyYjOTsmIzk7Yy0wLjctMC40LTEuNS0wLjgtMi4zLTFMMzMuNCwyNEgzMWwtMC42LDMuOWMtMC44LDAuMi0xLjYsMC41LTIuMywwLjlMMjUsMjYuNGwtMS43LDEuN2wyLjMsMy4xYy0wLjQsMC43LTAuOCwxLjUtMSwyLjMmIzEwOyYjOTsmIzk7JiM5OyYjOTtsLTMuOSwwLjZsMCwyLjRsMy45LDAuNmMwLjIsMC44LDAuNSwxLjYsMC45LDIuM2wtMi4zLDMuMWwxLjcsMS43bDMuMS0yLjNjMC43LDAuNCwxLjUsMC44LDIuMywxbDAuNiwzLjlsMi40LDBsMC42LTMuOSYjMTA7JiM5OyYjOTsmIzk7JiM5O2MwLjgtMC4yLDEuNi0wLjUsMi4zLTAuOWwzLjEsMi4zbDEuNy0xLjdsLTIuMy0zLjFjMC40LTAuNywwLjgtMS41LDEtMi4zTDQzLjYsMzYuNnoiIGNsYXNzPSJzdDQiIGlkPSJYTUxJRF8xNjVfIi8+JiN4YTsJCQk8cGF0aCBkPSJNMzUuNywzNS4zYzAsMS0wLjQsMS44LTEsMi41Yy0wLjYsMC42LTEuNSwxLTIuNSwxYy0xLDAtMS44LTAuNC0yLjUtMSYjMTA7JiM5OyYjOTsmIzk7JiM5O2MtMC42LTAuNi0xLTEuNS0xLTIuNWMwLTEsMC40LTEuOCwxLTIuNWMwLjYtMC42LDEuNS0xLDIuNS0xIiBjbGFzcz0ic3Q0IiBpZD0iWE1MSURfMTY3XyIvPiYjeGE7CQk8L2c+JiN4YTsJPC9nPiYjeGE7CTxnIGNsYXNzPSJzdDAiIGlkPSJYTUxJRF85OV8iPiYjeGE7CQk8ZyBjbGFzcz0ic3QzIiBpZD0iWE1MSURfMTY4XyI+JiN4YTsJCQk8cGF0aCBkPSJNNDQsMzEuNXYtNS4xaDIuMmMwLjEsMCwwLjItMC4xLDAuMi0wLjJ2LTUuOGMwLTAuMS0wLjEtMC4yLTAuMi0wLjJIMzQuNiYjMTA7JiM5OyYjOTsmIzk7JiM5O2MtMC4xLDAtMC4yLDAuMS0wLjIsMC4ydjUuOGMwLDAuMSwwLjEsMC4yLDAuMiwwLjJoMi4ydjUuMWMtNC45LDEuNy04LjMsNi42LTcuNSwxMi4yYzAuNyw1LjEsNC44LDkuMSw5LjgsOS43JiMxMDsmIzk7JiM5OyYjOTsmIzk7YzYuOCwwLjgsMTIuNi00LjUsMTIuNi0xMS4yQzUxLjYsMzcuMiw0OC40LDMzLjEsNDQsMzEuNXoiIGNsYXNzPSJzdDQiIGlkPSJYTUxJRF8xNzBfIi8+JiN4YTsJCQk8bGluZSB5Mj0iMjYuNCIgeDI9IjM5LjMiIHkxPSIyNi40IiB4MT0iMzYuOSIgY2xhc3M9InN0NCIgaWQ9IlhNTElEXzE2OV8iLz4mI3hhOwkJPC9nPiYjeGE7CQk8ZyBjbGFzcz0ic3QzIiBpZD0iWE1MSURfMTgxXyI+JiN4YTsJCQk8cGF0aCBkPSJNMTUuOCw1My41TDE1LjgsNTMuNWMtMS45LDAtMy40LTEuNS0zLjQtMy40VjIwLjVoNi44djI5LjZDMTkuMiw1MS45LDE3LjYsNTMuNSwxNS44LDUzLjV6IiBjbGFzcz0ic3Q0IiBpZD0iWE1MSURfMTcxXyIvPiYjeGE7CQkJPGxpbmUgeTI9IjI0LjkiIHgyPSIxNS44IiB5MT0iMjQuOSIgeDE9IjEyLjQiIGNsYXNzPSJzdDQiIGlkPSJYTUxJRF8xNzNfIi8+JiN4YTsJCQk8bGluZSB5Mj0iMjkuMyIgeDI9IjE1LjgiIHkxPSIyOS4zIiB4MT0iMTIuNCIgY2xhc3M9InN0NCIgaWQ9IlhNTElEXzE3Ml8iLz4mI3hhOwkJCTxsaW5lIHkyPSIzMy43IiB4Mj0iMTUuOCIgeTE9IjMzLjciIHgxPSIxMi40IiBjbGFzcz0ic3Q0IiBpZD0iWE1MSURfMTc0XyIvPiYjeGE7CQkJPGxpbmUgeTI9IjMzLjciIHgyPSIxNS44IiB5MT0iMzMuNyIgeDE9IjEyLjQiIGNsYXNzPSJzdDQiIGlkPSJYTUxJRF8xNzVfIi8+JiN4YTsJCQk8bGluZSB5Mj0iMzguMiIgeDI9IjE1LjgiIHkxPSIzOC4yIiB4MT0iMTIuNCIgY2xhc3M9InN0NCIgaWQ9IlhNTElEXzE3Nl8iLz4mI3hhOwkJCTxsaW5lIHkyPSI0Mi42IiB4Mj0iMTUuOCIgeTE9IjQyLjYiIHgxPSIxMi40IiBjbGFzcz0ic3Q0IiBpZD0iWE1MSURfMTc3XyIvPiYjeGE7CQkJPGxpbmUgeTI9IjQ3IiB4Mj0iMTUuOCIgeTE9IjQ3IiB4MT0iMTIuNCIgY2xhc3M9InN0NCIgaWQ9IlhNTElEXzE3OF8iLz4mI3hhOwkJPC9nPiYjeGE7CQk8cGF0aCBkPSJNMTUuOCwxOC4zbDAtNGMwLTIuMSwxLjctMy43LDMuOC0zLjdsMCwwYzIuMSwwLDMuOCwxLjcsMy44LDMuOFYyMWMwLDIuMSwxLjcsMy45LDMuOSwzLjkmIzEwOyYjOTsmIzk7JiM5O2wwLDBjMi4xLDAsMy45LTEuNywzLjktMy45di01LjhjMC0yLjYsMi4xLTQuNyw0LjctNC43bDAsMGMyLjYsMCw0LjcsMi4xLDQuNyw0Ljd2Mi41IiBjbGFzcz0ic3QyIiBpZD0iWE1MSURfMTg5XyIvPiYjeGE7CQk8Y2lyY2xlIHI9IjUuMiIgY3k9IjQxLjgiIGN4PSI0MC4zIiBjbGFzcz0ic3QyIiBpZD0iWE1MSURfMTg3XyIvPiYjeGE7CQk8bGluZSB5Mj0iNDEuOCIgeDI9IjQxLjQiIHkxPSI0MS44IiB4MT0iMzkuMyIgY2xhc3M9InN0MiIgaWQ9IlhNTElEXzE5MV8iLz4mI3hhOwk8L2c+JiN4YTsJPGcgY2xhc3M9InN0MCIgaWQ9IlhNTElEXzE3OV8iPiYjeGE7CQk8ZyBjbGFzcz0ic3QzIiBpZD0iWE1MSURfMjI0XyI+JiN4YTsJCQk8cGF0aCBkPSJNNTUuNCw1My4ySDguNmMtMC4xLDAtMC4yLTAuMS0wLjItMC4ydi04LjVjMC0wLjEsMC4xLTAuMiwwLjItMC4yaDQ2LjgmIzEwOyYjOTsmIzk7JiM5OyYjOTtjMC4xLDAsMC4yLDAuMSwwLjIsMC4yVjUzQzU1LjYsNTMuMSw1NS41LDUzLjIsNTUuNCw1My4yeiIgY2xhc3M9InN0NCIgaWQ9IlhNTElEXzIzNF8iLz4mI3hhOwkJCTxsaW5lIHkyPSI0Ny45IiB4Mj0iMTIuOSIgeTE9IjQ0LjMiIHgxPSIxMi45IiBjbGFzcz0ic3Q0IiBpZD0iWE1MSURfMjMzXyIvPiYjeGE7CQkJPGxpbmUgeTI9IjQ3LjkiIHgyPSIxNy42IiB5MT0iNDQuMyIgeDE9IjE3LjYiIGNsYXNzPSJzdDQiIGlkPSJYTUxJRF8yMzJfIi8+JiN4YTsJCQk8bGluZSB5Mj0iNDcuOSIgeDI9IjIyLjQiIHkxPSI0NC4zIiB4MT0iMjIuNCIgY2xhc3M9InN0NCIgaWQ9IlhNTElEXzIzMV8iLz4mI3hhOwkJCTxsaW5lIHkyPSI0Ny45IiB4Mj0iMjcuMSIgeTE9IjQ0LjMiIHgxPSIyNy4xIiBjbGFzcz0ic3Q0IiBpZD0iWE1MSURfMjMwXyIvPiYjeGE7CQkJPGxpbmUgeTI9IjQ3LjkiIHgyPSIzMS44IiB5MT0iNDQuMyIgeDE9IjMxLjgiIGNsYXNzPSJzdDQiIGlkPSJYTUxJRF8yMjlfIi8+JiN4YTsJCQk8bGluZSB5Mj0iNDcuOSIgeDI9IjM2LjUiIHkxPSI0NC4zIiB4MT0iMzYuNSIgY2xhc3M9InN0NCIgaWQ9IlhNTElEXzIyOF8iLz4mI3hhOwkJCTxsaW5lIHkyPSI0Ny45IiB4Mj0iNDEuMiIgeTE9IjQ0LjMiIHgxPSI0MS4yIiBjbGFzcz0ic3Q0IiBpZD0iWE1MSURfMjI3XyIvPiYjeGE7CQkJPGxpbmUgeTI9IjQ3LjkiIHgyPSI0NS45IiB5MT0iNDQuMyIgeDE9IjQ1LjkiIGNsYXNzPSJzdDQiIGlkPSJYTUxJRF8yMjZfIi8+JiN4YTsJCQk8bGluZSB5Mj0iNDcuOSIgeDI9IjUwLjYiIHkxPSI0NC4zIiB4MT0iNTAuNiIgY2xhc3M9InN0NCIgaWQ9IlhNTElEXzIyNV8iLz4mI3hhOwkJPC9nPiYjeGE7CQk8cGF0aCBkPSJNNTIuMiwyNS43SDExLjdjLTAuMSwwLTAuMi0wLjEtMC4yLTAuMlYxMWMwLTAuMSwwLjEtMC4yLDAuMi0wLjJoNDAuNSYjMTA7JiM5OyYjOTsmIzk7YzAuMSwwLDAuMiwwLjEsMC4yLDAuMnYxNC41QzUyLjQsMjUuNyw1Mi4zLDI1LjcsNTIuMiwyNS43eiIgY2xhc3M9InN0MiIgaWQ9IlhNTElEXzE4Nl8iLz4mI3hhOwkJPGcgY2xhc3M9InN0MyIgaWQ9IlhNTElEXzE5Ml8iPiYjeGE7CQkJPHBvbHlsaW5lIHBvaW50cz0iMTQuNSwxNS43IDE0LjUsMTMuNCAyMS40LDEzLjQgMjEuNCwxNS43IiBjbGFzcz0ic3Q0IiBpZD0iWE1MSURfMTkzXyIvPiYjeGE7CQkJPGxpbmUgeTI9IjE5LjUiIHgyPSIxNy45IiB5MT0iMTMuNSIgeDE9IjE3LjkiIGNsYXNzPSJzdDQiIGlkPSJYTUxJRF8xOTdfIi8+JiN4YTsJCTwvZz4mI3hhOwkJPGxpbmUgeTI9IjEzLjkiIHgyPSI0OC45IiB5MT0iMTMuOSIgeDE9IjI0LjIiIGNsYXNzPSJzdDIiIGlkPSJYTUxJRF8xOTlfIi8+JiN4YTsJCTxsaW5lIHkyPSIxOC4zIiB4Mj0iNDguOSIgeTE9IjE4LjMiIHgxPSIyNC4yIiBjbGFzcz0ic3QyIiBpZD0iWE1MSURfMTk4XyIvPiYjeGE7CQk8bGluZSB5Mj0iMjIuNyIgeDI9IjQ4LjkiIHkxPSIyMi43IiB4MT0iMTQuMyIgY2xhc3M9InN0MiIgaWQ9IlhNTElEXzIwMF8iLz4mI3hhOwkJPHBhdGggZD0iTTIxLjgsNDBIMTEuN2MtMC4xLDAtMC4yLTAuMS0wLjItMC4yVjI5LjdjMC0wLjEsMC4xLTAuMiwwLjItMC4yaDEwLjEmIzEwOyYjOTsmIzk7JiM5O2MwLjEsMCwwLjIsMC4xLDAuMiwwLjJ2MTAuMUMyMiwzOS45LDIxLjksNDAsMjEuOCw0MHoiIGNsYXNzPSJzdDIiIGlkPSJYTUxJRF8yMDNfIi8+JiN4YTsJCTxsaW5lIHkyPSIyOS43IiB4Mj0iMjIiIHkxPSIzOS45IiB4MT0iMTEuNSIgY2xhc3M9InN0MiIgaWQ9IlhNTElEXzIwN18iLz4mI3hhOwkJPGxpbmUgeTI9IjM5LjkiIHgyPSIyMiIgeTE9IjI5LjciIHgxPSIxMS41IiBjbGFzcz0ic3QyIiBpZD0iWE1MSURfMjA4XyIvPiYjeGE7CQk8cGF0aCBkPSJNMzcsNDBIMjYuOWMtMC4xLDAtMC4yLTAuMS0wLjItMC4yVjI5LjdjMC0wLjEsMC4xLTAuMiwwLjItMC4ySDM3YzAuMSwwLDAuMiwwLjEsMC4yLDAuMiYjMTA7JiM5OyYjOTsmIzk7djEwLjFDMzcuMiwzOS45LDM3LjEsNDAsMzcsNDB6IiBjbGFzcz0ic3QyIiBpZD0iWE1MSURfMjEwXyIvPiYjeGE7CQk8bGluZSB5Mj0iMjkuNyIgeDI9IjM3LjIiIHkxPSIzOS45IiB4MT0iMjYuNyIgY2xhc3M9InN0MiIgaWQ9IlhNTElEXzIwOV8iLz4mI3hhOwkJPGxpbmUgeTI9IjM5LjkiIHgyPSIzNy4yIiB5MT0iMjkuNyIgeDE9IjI2LjciIGNsYXNzPSJzdDIiIGlkPSJYTUxJRF8yMDVfIi8+JiN4YTsJCTxwYXRoIGQ9Ik01Mi4yLDQwSDQyLjFjLTAuMSwwLTAuMi0wLjEtMC4yLTAuMlYyOS43YzAtMC4xLDAuMS0wLjIsMC4yLTAuMmgxMC4xJiMxMDsmIzk7JiM5OyYjOTtjMC4xLDAsMC4yLDAuMSwwLjIsMC4ydjEwLjFDNTIuNCwzOS45LDUyLjMsNDAsNTIuMiw0MHoiIGNsYXNzPSJzdDIiIGlkPSJYTUxJRF8yMTNfIi8+JiN4YTsJCTxsaW5lIHkyPSIyOS43IiB4Mj0iNTIuNCIgeTE9IjM5LjkiIHgxPSI0MS45IiBjbGFzcz0ic3QyIiBpZD0iWE1MSURfMjEyXyIvPiYjeGE7CQk8bGluZSB5Mj0iMzkuOSIgeDI9IjUyLjQiIHkxPSIyOS43IiB4MT0iNDEuOSIgY2xhc3M9InN0MiIgaWQ9IlhNTElEXzIxMV8iLz4mI3hhOwk8L2c+JiN4YTsJPGcgY2xhc3M9InN0MCIgaWQ9IlhNTElEXzIyMF8iPiYjeGE7CQk8cGF0aCBkPSJNNTIuMiw1Mi42YzAuMSwwLDAuMy0wLjEsMC4zLTAuM1YxMS43YzAtMC4xLTAuMS0wLjMtMC4zLTAuM0gxMS44Yy0wLjEsMC0wLjMsMC4xLTAuMywwLjMmIzEwOyYjOTsmIzk7JiM5O3Y0MC42YzAsMC4xLDAuMSwwLjMsMC4zLDAuM0g1Mi4yeiIgY2xhc3M9InN0MiIgaWQ9IlhNTElEXzIzOV8iLz4mI3hhOwkJPGxpbmUgeTI9IjE4LjYiIHgyPSI1Mi41IiB5MT0iMTguNiIgeDE9IjExLjUiIGNsYXNzPSJzdDIiIGlkPSJYTUxJRF8yMzhfIi8+JiN4YTsJCTxsaW5lIHkyPSIxNC44IiB4Mj0iMTcuOSIgeTE9IjE0LjgiIHgxPSIxNS40IiBjbGFzcz0ic3QyIiBpZD0iWE1MSURfMjM2XyIvPiYjeGE7CQk8bGluZSB5Mj0iMTQuOCIgeDI9IjIyLjEiIHkxPSIxNC44IiB4MT0iMTkuNiIgY2xhc3M9InN0MiIgaWQ9IlhNTElEXzIzNV8iLz4mI3hhOwkJPGxpbmUgeTI9IjE0LjgiIHgyPSIyNi4zIiB5MT0iMTQuOCIgeDE9IjIzLjgiIGNsYXNzPSJzdDIiIGlkPSJYTUxJRF8yMjJfIi8+JiN4YTsJCTxwYXRoIGQ9Ik0xNy4xLDM2LjljMC0yLjEsMC40LTQsMS4yLTUuOGMwLjgtMS44LDEuOC0zLjQsMy4yLTQuN2MxLjMtMS4zLDIuOS0yLjQsNC43LTMuMiYjMTA7JiM5OyYjOTsmIzk7QzI4LDIyLjQsMjkuOSwyMiwzMiwyMmMyLjEsMCw0LDAuNCw1LjgsMS4yYzEuOCwwLjgsMy40LDEuOCw0LjcsMy4yYzEuMywxLjMsMi40LDIuOSwzLjIsNC43IiBjbGFzcz0ic3Q1IiBpZD0iWE1MSURfMjE4XyIvPiYjeGE7CQk8Y2lyY2xlIHI9IjIiIGN5PSIzNi45IiBjeD0iMzIiIGNsYXNzPSJzdDIiIGlkPSJYTUxJRF8yMTlfIi8+JiN4YTsJCTxwYXRoIGQ9Ik00Mi40LDM2LjljMCw1LjctNC43LDEwLjQtMTAuNCwxMC40Yy01LjcsMC0xMC40LTQuNy0xMC40LTEwLjRTMjYuMywyNi41LDMyLDI2LjUmIzEwOyYjOTsmIzk7JiM5O2MyLjgsMCw1LjQsMS4xLDcuMywzIiBjbGFzcz0ic3QyIiBpZD0iWE1MSURfMjQwXyIvPiYjeGE7CQk8bGluZSB5Mj0iMjkuNCIgeDI9IjQ3LjIiIHkxPSIzNiIgeDE9IjM0IiBjbGFzcz0ic3QyIiBpZD0iWE1MSURfMjIxXyIvPiYjeGE7CTwvZz4mI3hhOwk8ZyBjbGFzcz0ic3QwIiBpZD0iWE1MSURfMjcxXyI+JiN4YTsJCTxwYXRoIGQ9Ik0zNC40LDUwLjJjMCwxLjEtMC45LDItMiwyaC0yMGMtMS4xLDAtMi0wLjktMi0yVjEzLjhjMC0xLjEsMC45LTIsMi0yaDIwYzEuMSwwLDIsMC45LDIsMiYjMTA7JiM5OyYjOTsmIzk7VjUwLjJ6IiBjbGFzcz0ic3QyIiBpZD0iWE1MSURfMjE2XyIvPiYjeGE7CQk8bGluZSB5Mj0iMTcuOSIgeDI9IjM0LjQiIHkxPSIxNy45IiB4MT0iMTAuMyIgY2xhc3M9InN0MiIgaWQ9IlhNTElEXzI1M18iLz4mI3hhOwkJPGxpbmUgeTI9IjE1IiB4Mj0iMjYuMiIgeTE9IjE1IiB4MT0iMTguNSIgY2xhc3M9InN0MiIgaWQ9IlhNTElEXzI1Ml8iLz4mI3hhOwkJPGxpbmUgeTI9IjQ2LjIiIHgyPSIzNC40IiB5MT0iNDYuMiIgeDE9IjEwLjMiIGNsYXNzPSJzdDIiIGlkPSJYTUxJRF8yNTFfIi8+JiN4YTsJCTxnIGNsYXNzPSJzdDMiIGlkPSJYTUxJRF8yMTdfIj4mI3hhOwkJCTxwYXRoIGQ9Ik0zNi4zLDQ5LjRsMS44LDBsMC45LTUuOWMxLjMtMC4zLDIuNC0wLjgsMy41LTEuNGw0LjgsMy42bDIuNi0yLjZsLTMuNi00LjgmIzEwOyYjOTsmIzk7JiM5OyYjOTtjMC43LTEuMSwxLjItMi4yLDEuNS0zLjVsNS45LTAuOXYtMy43bC01LjktMC45Yy0wLjMtMS4yLTAuOC0yLjQtMS40LTMuNWwzLjYtNC44bC0yLjYtMi42TDQyLjYsMjJjLTEuMS0wLjctMi4yLTEuMi0zLjUtMS41JiMxMDsmIzk7JiM5OyYjOTsmIzk7bC0wLjgtNS45bC0xLjksMCIgY2xhc3M9InN0NCIgaWQ9IlhNTElEXzI1N18iLz4mI3hhOwkJCTxwYXRoIGQ9Ik0zNi4zLDI2LjdjMi45LDAsNS4zLDIuNCw1LjMsNS4zcy0yLjQsNS4zLTUuMyw1LjMiIGNsYXNzPSJzdDQiIGlkPSJYTUxJRF8yNTRfIi8+JiN4YTsJCTwvZz4mI3hhOwkJPGxpbmUgeTI9IjIzLjIiIHgyPSIxNS45IiB5MT0iMjMuMiIgeDE9IjEzLjUiIGNsYXNzPSJzdDIiIGlkPSJYTUxJRF8yNTlfIi8+JiN4YTsJCTxsaW5lIHkyPSIyMy4yIiB4Mj0iMjAuOSIgeTE9IjIzLjIiIHgxPSIxOC41IiBjbGFzcz0ic3QyIiBpZD0iWE1MSURfMTk1XyIvPiYjeGE7CQk8bGluZSB5Mj0iMjMuMiIgeDI9IjI1LjkiIHkxPSIyMy4yIiB4MT0iMjMuNSIgY2xhc3M9InN0MiIgaWQ9IlhNTElEXzI2MV8iLz4mI3hhOwkJPGxpbmUgeTI9IjIzLjIiIHgyPSIzMC45IiB5MT0iMjMuMiIgeDE9IjI4LjUiIGNsYXNzPSJzdDIiIGlkPSJYTUxJRF8yNjJfIi8+JiN4YTsJCTxsaW5lIHkyPSIyOC4yIiB4Mj0iMTYiIHkxPSIyOC4yIiB4MT0iMTMuNiIgY2xhc3M9InN0MiIgaWQ9IlhNTElEXzI2Nl8iLz4mI3hhOwkJPGxpbmUgeTI9IjI4LjIiIHgyPSIyMSIgeTE9IjI4LjIiIHgxPSIxOC42IiBjbGFzcz0ic3QyIiBpZD0iWE1MSURfMjY1XyIvPiYjeGE7CQk8bGluZSB5Mj0iMjguMiIgeDI9IjI2IiB5MT0iMjguMiIgeDE9IjIzLjYiIGNsYXNzPSJzdDIiIGlkPSJYTUxJRF8yNjRfIi8+JiN4YTsJCTxsaW5lIHkyPSIyOC4yIiB4Mj0iMzEiIHkxPSIyOC4yIiB4MT0iMjguNiIgY2xhc3M9InN0MiIgaWQ9IlhNTElEXzI2M18iLz4mI3hhOwkJPGxpbmUgeTI9IjMzLjIiIHgyPSIxNi4xIiB5MT0iMzMuMiIgeDE9IjEzLjciIGNsYXNzPSJzdDIiIGlkPSJYTUxJRF8yNzBfIi8+JiN4YTsJCTxsaW5lIHkyPSIzMy4yIiB4Mj0iMjEuMSIgeTE9IjMzLjIiIHgxPSIxOC43IiBjbGFzcz0ic3QyIiBpZD0iWE1MSURfMjY5XyIvPiYjeGE7CQk8bGluZSB5Mj0iMzMuMiIgeDI9IjI2LjEiIHkxPSIzMy4yIiB4MT0iMjMuNyIgY2xhc3M9InN0MiIgaWQ9IlhNTElEXzI2OF8iLz4mI3hhOwkJPGxpbmUgeTI9IjMzLjIiIHgyPSIzMS4xIiB5MT0iMzMuMiIgeDE9IjI4LjciIGNsYXNzPSJzdDIiIGlkPSJYTUxJRF8yNjdfIi8+JiN4YTsJCTxsaW5lIHkyPSI0Mi4zIiB4Mj0iMTYuMyIgeTE9IjQyLjMiIHgxPSIxMy45IiBjbGFzcz0ic3QyIiBpZD0iWE1MSURfMjc4XyIvPiYjeGE7CQk8bGluZSB5Mj0iNDIuMyIgeDI9IjIxLjMiIHkxPSI0Mi4zIiB4MT0iMTguOSIgY2xhc3M9InN0MiIgaWQ9IlhNTElEXzI3N18iLz4mI3hhOwkJPGxpbmUgeTI9IjQyLjMiIHgyPSIyNi4zIiB5MT0iNDIuMyIgeDE9IjIzLjkiIGNsYXNzPSJzdDIiIGlkPSJYTUxJRF8yNzZfIi8+JiN4YTsJCTxsaW5lIHkyPSI0Mi4zIiB4Mj0iMzEuMyIgeTE9IjQyLjMiIHgxPSIyOC45IiBjbGFzcz0ic3QyIiBpZD0iWE1MSURfMjc1XyIvPiYjeGE7CTwvZz4mI3hhOwk8ZyBjbGFzcz0ic3QwIiBpZD0iWE1MSURfMjg3XyI+JiN4YTsJCTxwYXRoIGQ9Ik0zOC43LDUzLjdIMThjLTAuMSwwLTAuMi0wLjEtMC4yLTAuMlYzMC42YzAtMC4xLDAuMS0wLjIsMC4yLTAuMmgyMC43JiMxMDsmIzk7JiM5OyYjOTtjMC4xLDAsMC4yLDAuMSwwLjIsMC4ydjIyLjlDMzguOSw1My42LDM4LjgsNTMuNywzOC43LDUzLjd6IiBjbGFzcz0ic3QyIiBpZD0iWE1MSURfMjczXyIvPiYjeGE7CQk8bGluZSB5Mj0iMzguMiIgeDI9IjM4LjkiIHkxPSIzOC4yIiB4MT0iMTcuOCIgY2xhc3M9InN0MiIgaWQ9IlhNTElEXzI3OV8iLz4mI3hhOwkJPGxpbmUgeTI9IjQ2LjIiIHgyPSIzOC45IiB5MT0iNDYuMiIgeDE9IjE3LjgiIGNsYXNzPSJzdDIiIGlkPSJYTUxJRF8yNzRfIi8+JiN4YTsJCTxsaW5lIHkyPSI1MC4yIiB4Mj0iMjQuMSIgeTE9IjUwLjIiIHgxPSIyMS45IiBjbGFzcz0ic3QyIiBpZD0iWE1MSURfMjgxXyIvPiYjeGE7CQk8bGluZSB5Mj0iNTAuMiIgeDI9IjI5LjMiIHkxPSI1MC4yIiB4MT0iMjcuMSIgY2xhc3M9InN0MiIgaWQ9IlhNTElEXzI4MF8iLz4mI3hhOwkJPGxpbmUgeTI9IjUwLjIiIHgyPSIzNC41IiB5MT0iNTAuMiIgeDE9IjMyLjQiIGNsYXNzPSJzdDIiIGlkPSJYTUxJRF8yODJfIi8+JiN4YTsJCTxnIGNsYXNzPSJzdDMiIGlkPSJYTUxJRF8zODVfIj4mI3hhOwkJCTxwYXRoIGQ9Ik00OSw0MS41di0zLjloM2MwLjEsMCwwLjItMC4xLDAuMS0wLjJsLTYuOC02LjhjMCwwLTAuMSwwLTAuMiwwbC0zLjksMy45IiBjbGFzcz0ic3Q0IiBpZD0iWE1MSURfMjg2XyIvPiYjeGE7CQkJPGxpbmUgeTI9IjQyLjUiIHgyPSI0OSIgeTE9IjUzLjciIHgxPSI0OSIgY2xhc3M9InN0NiIgaWQ9IlhNTElEXzM4N18iLz4mI3hhOwkJCTxsaW5lIHkyPSIzOC41IiB4Mj0iNDQiIHkxPSI1My43IiB4MT0iNDQiIGNsYXNzPSJzdDYiIGlkPSJYTUxJRF8yOTNfIi8+JiN4YTsJCTwvZz4mI3hhOwkJPHBhdGggZD0iTTE2LjIsMjUuNWMtMC43LTEuNC0xLjEtMy0xLjEtNC43YzAtMi45LDEuMi01LjUsMy4xLTcuNGMxLjktMS45LDQuNS0zLjEsNy40LTMuMSYjMTA7JiM5OyYjOTsmIzk7YzIuOSwwLDUuNSwxLjIsNy40LDMuMWMxLjksMS45LDMuMSw0LjUsMy4xLDcuNCIgY2xhc3M9InN0MiIgaWQ9IlhNTElEXzI5MF8iLz4mI3hhOwkJPHBhdGggZD0iTTUyLjksMzIuOGMxLTEuNSwxLjYtMy4zLDEuNi01LjJjMC01LjItNC4yLTkuNC05LjQtOS40aC05LjIiIGNsYXNzPSJzdDIiIGlkPSJYTUxJRF8yODlfIi8+JiN4YTsJCTxwYXRoIGQ9Ik0xNS42LDM1Yy0zLjMsMC02LjEtMi43LTYuMS02LjFzMi43LTYuMSw2LjEtNi4xIiBjbGFzcz0ic3QyIiBpZD0iWE1MSURfMjkyXyIvPiYjeGE7CTwvZz4mI3hhOwk8ZyBjbGFzcz0ic3QwIiBpZD0iWE1MSURfMzA4XyI+JiN4YTsJCTxnIGNsYXNzPSJzdDMiIGlkPSJYTUxJRF8yNDhfIj4mI3hhOwkJCTxwYXRoIGQ9Ik0zOSwzNC4xbDMuNC0wLjVsMC0yLjJMMzksMzFjLTAuMi0wLjctMC41LTEuNC0wLjgtMmwyLjEtMi44bC0xLjUtMS41bC0yLjgsMi4xJiMxMDsmIzk7JiM5OyYjOTsmIzk7Yy0wLjYtMC40LTEuMy0wLjctMi0wLjhsLTAuNS0zLjRoLTIuMmwtMC41LDMuNGMtMC43LDAuMi0xLjQsMC41LTIsMC44TDI2LDI0LjZsLTEuNSwxLjVsMi4xLDIuOGMtMC40LDAuNi0wLjcsMS4zLTAuOCwyJiMxMDsmIzk7JiM5OyYjOTsmIzk7bC0zLjQsMC41bDAsMi4ybDMuNCwwLjVjMC4yLDAuNywwLjUsMS40LDAuOCwybC0yLjEsMi44bDEuNSwxLjVsMi44LTIuMWMwLjYsMC40LDEuMywwLjcsMiwwLjhsMC41LDMuNCIgY2xhc3M9InN0NCIgaWQ9IlhNTElEXzI1MF8iLz4mI3hhOwkJCTxjaXJjbGUgcj0iMy4xIiBjeT0iMzIuNSIgY3g9IjMyLjMiIGNsYXNzPSJzdDQiIGlkPSJYTUxJRF8yNDlfIi8+JiN4YTsJCTwvZz4mI3hhOwkJPGcgY2xhc3M9InN0MyIgaWQ9IlhNTElEXzMwNF8iPiYjeGE7CQkJPHBhdGggZD0iTTUwLjQsMjEuNHYtMy45aDNjMC4xLDAsMC4yLTAuMSwwLjEtMC4ybC02LjgtNi44YzAsMC0wLjEsMC0wLjIsMGwtNi44LDYuOCYjMTA7JiM5OyYjOTsmIzk7JiM5O2MtMC4xLDAuMSwwLDAuMiwwLjEsMC4yaDN2NC4xIiBjbGFzcz0ic3Q0IiBpZD0iWE1MSURfMzA3XyIvPiYjeGE7CQkJPGxpbmUgeTI9IjIxLjQiIHgyPSI1MC40IiB5MT0iMzMuNiIgeDE9IjUwLjQiIGNsYXNzPSJzdDYiIGlkPSJYTUxJRF8zMDZfIi8+JiN4YTsJCTwvZz4mI3hhOwkJPGcgY2xhc3M9InN0MyIgaWQ9IlhNTElEXzMwOV8iPiYjeGE7CQkJPHBhdGggZD0iTTEzLjgsNDIuNnYzLjloLTNjLTAuMSwwLTAuMiwwLjEtMC4xLDAuMmw2LjgsNi44YzAsMCwwLjEsMCwwLjIsMGw2LjgtNi44JiMxMDsmIzk7JiM5OyYjOTsmIzk7YzAuMS0wLjEsMC0wLjItMC4xLTAuMmgtM3YtNC4xIiBjbGFzcz0ic3Q0IiBpZD0iWE1MSURfMzExXyIvPiYjeGE7CQkJPGxpbmUgeTI9IjQyLjYiIHgyPSIxMy44IiB5MT0iMzAuNCIgeDE9IjEzLjgiIGNsYXNzPSJzdDYiIGlkPSJYTUxJRF8zMTBfIi8+JiN4YTsJCTwvZz4mI3hhOwkJPHBhdGggZD0iTTIwLjksMjUuMkMyMC4zLDI0LDIwLDIyLjcsMjAsMjEuM2MwLTIuNCwxLTQuNiwyLjYtNi4yYzEuNi0xLjYsMy44LTIuNiw2LjItMi42JiMxMDsmIzk7JiM5OyYjOTtjMi40LDAsNC42LDEsNi4yLDIuNmMxLjYsMS42LDIuNiwzLjgsMi42LDYuMiIgY2xhc3M9InN0MiIgaWQ9IlhNTElEXzMwNV8iLz4mI3hhOwkJPHBhdGggZD0iTTM0LjQsNDkuM2MtMC42LTEuMi0wLjktMi41LTAuOS0zLjljMC0yLjQsMS00LjYsMi42LTYuMmMxLjYtMS42LDMuOC0yLjYsNi4yLTIuNiYjMTA7JiM5OyYjOTsmIzk7YzIuNCwwLDQuNiwxLDYuMiwyLjZjMS42LDEuNiwyLjYsMy44LDIuNiw2LjJsNC40LDAiIGNsYXNzPSJzdDIiIGlkPSJYTUxJRF8yOTFfIi8+JiN4YTsJCTxwYXRoIGQ9Ik0xOS43LDIwLjVjLTEuNiwwLTMsMC42LTQuMSwxLjdjLTEsMS0xLjcsMi41LTEuNyw0LjFIOC42IiBjbGFzcz0ic3QyIiBpZD0iWE1MSURfMzAzXyIvPiYjeGE7CTwvZz4mI3hhOwk8ZyBjbGFzcz0ic3QwIiBpZD0iWE1MSURfMzAwXyI+JiN4YTsJCTxwYXRoIGQ9Ik0zNS4yLDMxLjFWMjljMi4zLTEuNSwzLjgtNCwzLjgtN2MwLTQuNi0zLjctOC4zLTguMy04LjNzLTguMywzLjctOC4zLDguMyYjMTA7JiM5OyYjOTsmIzk7YzAsMi45LDEuNSw1LjUsMy44LDd2Mi4xIiBjbGFzcz0ic3QyIiBpZD0iWE1MSURfMjk1XyIvPiYjeGE7CQk8ZyBjbGFzcz0ic3QzIiBpZD0iWE1MSURfMjk4XyI+JiN4YTsJCQk8cGF0aCBkPSJNMTguMywyMi40YzAtNi44LDUuNS0xMi40LDEyLjQtMTIuNFM0MywxNS42LDQzLDIyLjQiIGNsYXNzPSJzdDYiIGlkPSJYTUxJRF8yOTlfIi8+JiN4YTsJCTwvZz4mI3hhOwkJPGcgY2xhc3M9InN0MyIgaWQ9IlhNTElEXzI5NF8iPiYjeGE7CQkJPHBhdGggZD0iTTIzLjEsMzMuMmgtNi45djIwLjZjMCwwLjEsMC4xLDAuMSwwLjEsMC4xSDQ3YzAuMSwwLDAuMS0wLjEsMC4xLTAuMXYtMTlsMy4yLTQmIzEwOyYjOTsmIzk7JiM5OyYjOTtjMCwwLDAsMCwwLDBoLTdjMCwwLDAsMCwwLDBsLTIuMiwyLjRoLTYuM0gyMy4xeiIgY2xhc3M9InN0NCIgaWQ9IlhNTElEXzI5N18iLz4mI3hhOwkJCTxwYXRoIGQ9Ik0xNi4yLDMzLjJsLTIuNi0zLjhjMCwwLDAtMC4xLDAtMC4xaDQuOWMwLDAsMCwwLDAsMGwyLjksMy45IiBjbGFzcz0ic3Q0IiBpZD0iWE1MSURfMzY5XyIvPiYjeGE7CQkJPGxpbmUgeTI9IjM1IiB4Mj0iNDEuMiIgeTE9IjUzLjkiIHgxPSI0MS4yIiBjbGFzcz0ic3Q0IiBpZD0iWE1MSURfMzcwXyIvPiYjeGE7CQkJPGxpbmUgeTI9IjM1IiB4Mj0iNDMiIHkxPSIzNSIgeDE9IjQ1LjciIGNsYXNzPSJzdDQiIGlkPSJYTUxJRF8zODZfIi8+JiN4YTsJCTwvZz4mI3hhOwkJPHBhdGggZD0iTTMzLjMsMjEuNmMwLDAuNy0wLjMsMS40LTAuOCwxLjljLTAuNSwwLjUtMS4xLDAuOC0xLjksMC44Yy0wLjcsMC0xLjQtMC4zLTEuOS0wLjgmIzEwOyYjOTsmIzk7JiM5O0MyOC4zLDIzLDI4LDIyLjQsMjgsMjEuNmMwLTAuNywwLjMtMS40LDAuOC0xLjljMC41LTAuNSwxLjEtMC44LDEuOS0wLjhjMC43LDAsMS40LDAuMywxLjksMC44QzMzLDIwLjIsMzMuMywyMC45LDMzLjMsMjEuNnoiIGNsYXNzPSJzdDIiIGlkPSJYTUxJRF8yOTZfIi8+JiN4YTsJCTxsaW5lIHkyPSIzMS4yIiB4Mj0iMzAuNyIgeTE9IjI0LjIiIHgxPSIzMC43IiBjbGFzcz0ic3QyIiBpZD0iWE1MSURfMzAxXyIvPiYjeGE7CTwvZz4mI3hhOwk8ZyBjbGFzcz0ic3QwIiBpZD0iWE1MSURfMzU5XyI+JiN4YTsJCTxnIGNsYXNzPSJzdDMiIGlkPSJYTUxJRF8zMzlfIj4mI3hhOwkJCTxwYXRoIGQ9Ik01NS40LDU0LjFIOC42Yy0wLjEsMC0wLjItMC4xLTAuMi0wLjJ2LTguNWMwLTAuMSwwLjEtMC4yLDAuMi0wLjJoNDYuOCYjMTA7JiM5OyYjOTsmIzk7JiM5O2MwLjEsMCwwLjIsMC4xLDAuMiwwLjJ2OC41QzU1LjYsNTQuMSw1NS41LDU0LjEsNTUuNCw1NC4xeiIgY2xhc3M9InN0NCIgaWQ9IlhNTElEXzM1MV8iLz4mI3hhOwkJCTxsaW5lIHkyPSI0OC45IiB4Mj0iMTIuOSIgeTE9IjQ1LjMiIHgxPSIxMi45IiBjbGFzcz0ic3Q0IiBpZD0iWE1MSURfMzUwXyIvPiYjeGE7CQkJPGxpbmUgeTI9IjQ4LjkiIHgyPSIxNy42IiB5MT0iNDUuMyIgeDE9IjE3LjYiIGNsYXNzPSJzdDQiIGlkPSJYTUxJRF8zNDlfIi8+JiN4YTsJCQk8bGluZSB5Mj0iNDguOSIgeDI9IjIyLjQiIHkxPSI0NS4zIiB4MT0iMjIuNCIgY2xhc3M9InN0NCIgaWQ9IlhNTElEXzM0OF8iLz4mI3hhOwkJCTxsaW5lIHkyPSI0OC45IiB4Mj0iMjcuMSIgeTE9IjQ1LjMiIHgxPSIyNy4xIiBjbGFzcz0ic3Q0IiBpZD0iWE1MSURfMzQ1XyIvPiYjeGE7CQkJPGxpbmUgeTI9IjQ4LjkiIHgyPSIzMS44IiB5MT0iNDUuMyIgeDE9IjMxLjgiIGNsYXNzPSJzdDQiIGlkPSJYTUxJRF8zNDRfIi8+JiN4YTsJCQk8bGluZSB5Mj0iNDguOSIgeDI9IjM2LjUiIHkxPSI0NS4zIiB4MT0iMzYuNSIgY2xhc3M9InN0NCIgaWQ9IlhNTElEXzM0M18iLz4mI3hhOwkJCTxsaW5lIHkyPSI0OC45IiB4Mj0iNDEuMiIgeTE9IjQ1LjMiIHgxPSI0MS4yIiBjbGFzcz0ic3Q0IiBpZD0iWE1MSURfMzQyXyIvPiYjeGE7CQkJPGxpbmUgeTI9IjQ4LjkiIHgyPSI0NS45IiB5MT0iNDUuMyIgeDE9IjQ1LjkiIGNsYXNzPSJzdDQiIGlkPSJYTUxJRF8zNDFfIi8+JiN4YTsJCQk8bGluZSB5Mj0iNDguOSIgeDI9IjUwLjYiIHkxPSI0NS4zIiB4MT0iNTAuNiIgY2xhc3M9InN0NCIgaWQ9IlhNTElEXzM0MF8iLz4mI3hhOwkJPC9nPiYjeGE7CQk8ZyBjbGFzcz0ic3QzIiBpZD0iWE1MSURfMzIyXyI+JiN4YTsJCQk8cGF0aCBkPSJNMTYsNDIuMlYxOC41YzAtMC4xLDAuMS0wLjIsMC4yLTAuMmgzMC44YzAuMSwwLDAuMiwwLjEsMC4yLDAuMnYyMy43IiBjbGFzcz0ic3Q0IiBpZD0iWE1MSURfMzE0XyIvPiYjeGE7CQkJPGxpbmUgeTI9IjM4LjQiIHgyPSI0Ny41IiB5MT0iMzguNCIgeDE9IjE2IiBjbGFzcz0ic3Q0IiBpZD0iWE1MSURfMzE4XyIvPiYjeGE7CQkJPHBhdGggZD0iTTE2LDM0LjNjMS4yLTEuNiwzLjEtMi42LDUuMi0yLjZjMy42LDAsNi42LDIuOSw2LjYsNi42IiBjbGFzcz0ic3Q0IiBpZD0iWE1MSURfMzE2XyIvPiYjeGE7CQkJPHBhdGggZD0iTTI1LjYsMzQuM2MxLjItMS42LDMuMS0yLjYsNS4yLTIuNmMzLjYsMCw2LjYsMi45LDYuNiw2LjYiIGNsYXNzPSJzdDQiIGlkPSJYTUxJRF8zMjFfIi8+JiN4YTsJCQk8Y2lyY2xlIHI9IjIuOSIgY3k9IjI0LjciIGN4PSIzOC41IiBjbGFzcz0ic3Q0IiBpZD0iWE1MSURfMzE5XyIvPiYjeGE7CQkJPGxpbmUgeTI9IjM1IiB4Mj0iNDQuNiIgeTE9IjM1IiB4MT0iMzkiIGNsYXNzPSJzdDQiIGlkPSJYTUxJRF8zMjNfIi8+JiN4YTsJCTwvZz4mI3hhOwkJPGxpbmUgeTI9IjQyLjIiIHgyPSIxMi4xIiB5MT0iNDAuNCIgeDE9IjEyLjEiIGNsYXNzPSJzdDIiIGlkPSJYTUxJRF8zMjZfIi8+JiN4YTsJCTxsaW5lIHkyPSIzNy4xIiB4Mj0iMTIuMSIgeTE9IjM1LjMiIHgxPSIxMi4xIiBjbGFzcz0ic3QyIiBpZD0iWE1MSURfMzI1XyIvPiYjeGE7CQk8bGluZSB5Mj0iMzIiIHgyPSIxMi4xIiB5MT0iMzAuMiIgeDE9IjEyLjEiIGNsYXNzPSJzdDIiIGlkPSJYTUxJRF8zMjdfIi8+JiN4YTsJCTxsaW5lIHkyPSIyNi45IiB4Mj0iMTIuMSIgeTE9IjI1LjEiIHgxPSIxMi4xIiBjbGFzcz0ic3QyIiBpZD0iWE1MSURfMzI4XyIvPiYjeGE7CQk8bGluZSB5Mj0iMjEuOCIgeDI9IjEyLjEiIHkxPSIyMCIgeDE9IjEyLjEiIGNsYXNzPSJzdDIiIGlkPSJYTUxJRF8zMzFfIi8+JiN4YTsJCTxsaW5lIHkyPSIxNi43IiB4Mj0iMTIuMSIgeTE9IjE1IiB4MT0iMTIuMSIgY2xhc3M9InN0MiIgaWQ9IlhNTElEXzMzM18iLz4mI3hhOwkJPGxpbmUgeTI9IjExLjciIHgyPSIxMi4xIiB5MT0iOS45IiB4MT0iMTIuMSIgY2xhc3M9InN0MiIgaWQ9IlhNTElEXzMzNV8iLz4mI3hhOwkJPGxpbmUgeTI9IjQyLjIiIHgyPSI1MS4xIiB5MT0iNDAuNCIgeDE9IjUxLjEiIGNsYXNzPSJzdDIiIGlkPSJYTUxJRF8zNThfIi8+JiN4YTsJCTxsaW5lIHkyPSIzNy4xIiB4Mj0iNTEuMSIgeTE9IjM1LjMiIHgxPSI1MS4xIiBjbGFzcz0ic3QyIiBpZD0iWE1MSURfMzU2XyIvPiYjeGE7CQk8bGluZSB5Mj0iMzIiIHgyPSI1MS4xIiB5MT0iMzAuMiIgeDE9IjUxLjEiIGNsYXNzPSJzdDIiIGlkPSJYTUxJRF8zNTNfIi8+JiN4YTsJCTxsaW5lIHkyPSIyNi45IiB4Mj0iNTEuMSIgeTE9IjI1LjEiIHgxPSI1MS4xIiBjbGFzcz0ic3QyIiBpZD0iWE1MSURfMzUyXyIvPiYjeGE7CQk8bGluZSB5Mj0iMjEuOCIgeDI9IjUxLjEiIHkxPSIyMCIgeDE9IjUxLjEiIGNsYXNzPSJzdDIiIGlkPSJYTUxJRF8zMzhfIi8+JiN4YTsJCTxsaW5lIHkyPSIxNi43IiB4Mj0iNTEuMSIgeTE9IjE1IiB4MT0iNTEuMSIgY2xhc3M9InN0MiIgaWQ9IlhNTElEXzMzN18iLz4mI3hhOwkJPGxpbmUgeTI9IjExLjciIHgyPSI1MS4xIiB5MT0iOS45IiB4MT0iNTEuMSIgY2xhc3M9InN0MiIgaWQ9IlhNTElEXzMzNl8iLz4mI3hhOwkJPGxpbmUgeTI9IjEzLjEiIHgyPSI0NS4yIiB5MT0iMTMuMSIgeDE9IjE4LjQiIGNsYXNzPSJzdDIiIGlkPSJYTUxJRF8zNjBfIi8+JiN4YTsJCTxwb2x5bGluZSBwb2ludHM9IjQzLjIsMTAuMSA0NiwxMyA0My4yLDE2LjEiIGNsYXNzPSJzdDIiIGlkPSJYTUxJRF8zNjJfIi8+JiN4YTsJCTxwb2x5bGluZSBwb2ludHM9IjIwLjQsMTAuMSAxNy42LDEzIDIwLjQsMTYuMSIgY2xhc3M9InN0MiIgaWQ9IlhNTElEXzMzMl8iLz4mI3hhOwk8L2c+JiN4YTsJPGcgY2xhc3M9InN0MCIgaWQ9IlhNTElEXzM4OF8iPiYjeGE7CQk8ZyBjbGFzcz0ic3QzIiBpZD0iWE1MSURfMzYxXyI+JiN4YTsJCQk8cGF0aCBkPSJNMTYuOSwxOC44bC0xLjUsMi42bDE2LjgsMTkuMWMwLjEsMC4xLDAuMSwwLjEsMC4yLDBsMTYuOC0xOS4xTDQ0LjksMTRIMjQuMSIgY2xhc3M9InN0NCIgaWQ9IlhNTElEXzM4NF8iLz4mI3hhOwkJCTxsaW5lIHkyPSIyMS40IiB4Mj0iNDkuMiIgeTE9IjIxLjQiIHgxPSIxNS40IiBjbGFzcz0ic3Q0IiBpZD0iWE1MSURfMzgzXyIvPiYjeGE7CQkJPGxpbmUgeTI9IjIyLjkiIHgyPSIyNC42IiB5MT0iNDAuNSIgeDE9IjMyLjMiIGNsYXNzPSJzdDQiIGlkPSJYTUxJRF8zODJfIi8+JiN4YTsJCQk8bGluZSB5Mj0iMjIuOSIgeDI9IjM5LjgiIHkxPSI0MC4xIiB4MT0iMzIuMyIgY2xhc3M9InN0NCIgaWQ9IlhNTElEXzM4MV8iLz4mI3hhOwkJCTxsaW5lIHkyPSI0MC4xIiB4Mj0iMzIuMyIgeTE9IjIyLjkiIHgxPSIzMi4zIiBjbGFzcz0ic3Q0IiBpZD0iWE1MSURfNzkxXyIvPiYjeGE7CQkJPHBvbHlsaW5lIHBvaW50cz0iMjguNSwxMy44IDI0LjEsMTkuOCAyMi45LDE4LjMiIGNsYXNzPSJzdDQiIGlkPSJYTUxJRF8zNzdfIi8+JiN4YTsJCQk8cG9seWxpbmUgcG9pbnRzPSIzNi42LDEzLjggMzIuMSwxOS44IDI4LjIsMTQuNyIgY2xhc3M9InN0NCIgaWQ9IlhNTElEXzM3NF8iLz4mI3hhOwkJCTxwb2x5bGluZSBwb2ludHM9IjQ0LjYsMTMuOCA0MC4yLDE5LjggMzYuMiwxNC43IiBjbGFzcz0ic3Q0IiBpZD0iWE1MSURfMzczXyIvPiYjeGE7CQkJPGcgaWQ9IlhNTElEXzM2NF8iPiYjeGE7CQkJCTxsaW5lIHkyPSIxMS41IiB4Mj0iMTkuNSIgeTE9IjkuMyIgeDE9IjE5LjUiIGNsYXNzPSJzdDQiIGlkPSJYTUxJRF8zNzJfIi8+JiN4YTsJCQkJPGxpbmUgeTI9IjEyLjgiIHgyPSIyMS43IiB5MT0iMTEuNyIgeDE9IjIzLjYiIGNsYXNzPSJzdDQiIGlkPSJYTUxJRF8zNzFfIi8+JiN4YTsJCQkJPGxpbmUgeTI9IjE1LjMiIHgyPSIyMS43IiB5MT0iMTYuNCIgeDE9IjIzLjYiIGNsYXNzPSJzdDQiIGlkPSJYTUxJRF8zNjhfIi8+JiN4YTsJCQkJPGxpbmUgeTI9IjE2LjYiIHgyPSIxOS41IiB5MT0iMTguOCIgeDE9IjE5LjUiIGNsYXNzPSJzdDQiIGlkPSJYTUxJRF8zNjdfIi8+JiN4YTsJCQkJPGxpbmUgeTI9IjE1LjMiIHgyPSIxNy40IiB5MT0iMTYuNCIgeDE9IjE1LjUiIGNsYXNzPSJzdDQiIGlkPSJYTUxJRF8zNjZfIi8+JiN4YTsJCQkJPGxpbmUgeTI9IjEyLjgiIHgyPSIxNy4zIiB5MT0iMTEuNyIgeDE9IjE1LjQiIGNsYXNzPSJzdDQiIGlkPSJYTUxJRF8zNjVfIi8+JiN4YTsJCQk8L2c+JiN4YTsJCTwvZz4mI3hhOwkJPHBhdGggZD0iTTQzLDMyLjdoOC44YzAuMSwwLDAuMywwLjEsMC4zLDAuM3YyMS40YzAsMC4xLTAuMSwwLjMtMC4zLDAuM0gxMi4zYy0wLjEsMC0wLjMtMC4xLTAuMy0wLjMmIzEwOyYjOTsmIzk7JiM5O1YzM2MwLTAuMSwwLjEtMC4zLDAuMy0wLjNoOSIgY2xhc3M9InN0MiIgaWQ9IlhNTElEXzQxM18iLz4mI3hhOwkJPGxpbmUgeTI9IjM3LjIiIHgyPSIxOC4xIiB5MT0iMzcuMiIgeDE9IjE1LjMiIGNsYXNzPSJzdDIiIGlkPSJYTUxJRF8zOTBfIi8+JiN4YTsJCTxsaW5lIHkyPSI0Mi44IiB4Mj0iMTguMSIgeTE9IjQyLjgiIHgxPSIxNS4zIiBjbGFzcz0ic3QyIiBpZD0iWE1MSURfMzkyXyIvPiYjeGE7CQk8bGluZSB5Mj0iNDIuOCIgeDI9IjIzLjEiIHkxPSI0Mi44IiB4MT0iMjAuMyIgY2xhc3M9InN0MiIgaWQ9IlhNTElEXzM5M18iLz4mI3hhOwkJPGxpbmUgeTI9IjQyLjgiIHgyPSIyOC4xIiB5MT0iNDIuOCIgeDE9IjI1LjMiIGNsYXNzPSJzdDIiIGlkPSJYTUxJRF8zOTRfIi8+JiN4YTsJCTxsaW5lIHkyPSI0Mi44IiB4Mj0iMzMuMiIgeTE9IjQyLjgiIHgxPSIzMC4zIiBjbGFzcz0ic3QyIiBpZD0iWE1MSURfMzk3XyIvPiYjeGE7CQk8bGluZSB5Mj0iNDIuOCIgeDI9IjM4LjIiIHkxPSI0Mi44IiB4MT0iMzUuNCIgY2xhc3M9InN0MiIgaWQ9IlhNTElEXzM5OF8iLz4mI3hhOwkJPGxpbmUgeTI9IjQyLjgiIHgyPSI0My4yIiB5MT0iNDIuOCIgeDE9IjQwLjQiIGNsYXNzPSJzdDIiIGlkPSJYTUxJRF80MDJfIi8+JiN4YTsJCTxsaW5lIHkyPSI0Mi44IiB4Mj0iNDguMyIgeTE9IjQyLjgiIHgxPSI0NS40IiBjbGFzcz0ic3QyIiBpZD0iWE1MSURfNDAzXyIvPiYjeGE7CQk8bGluZSB5Mj0iNDYuOCIgeDI9IjE4LjEiIHkxPSI0Ni44IiB4MT0iMTUuMyIgY2xhc3M9InN0MiIgaWQ9IlhNTElEXzQxMF8iLz4mI3hhOwkJPGxpbmUgeTI9IjQ2LjgiIHgyPSIyMy4xIiB5MT0iNDYuOCIgeDE9IjIwLjMiIGNsYXNzPSJzdDIiIGlkPSJYTUxJRF80MDlfIi8+JiN4YTsJCTxsaW5lIHkyPSI0Ni44IiB4Mj0iMjguMSIgeTE9IjQ2LjgiIHgxPSIyNS4zIiBjbGFzcz0ic3QyIiBpZD0iWE1MSURfNDA4XyIvPiYjeGE7CQk8bGluZSB5Mj0iNDYuOCIgeDI9IjMzLjIiIHkxPSI0Ni44IiB4MT0iMzAuMyIgY2xhc3M9InN0MiIgaWQ9IlhNTElEXzQwN18iLz4mI3hhOwkJPGxpbmUgeTI9IjQ2LjgiIHgyPSIzOC4yIiB5MT0iNDYuOCIgeDE9IjM1LjQiIGNsYXNzPSJzdDIiIGlkPSJYTUxJRF80MDZfIi8+JiN4YTsJCTxsaW5lIHkyPSI0Ni44IiB4Mj0iNDMuMiIgeTE9IjQ2LjgiIHgxPSI0MC40IiBjbGFzcz0ic3QyIiBpZD0iWE1MSURfNDA1XyIvPiYjeGE7CQk8bGluZSB5Mj0iNDYuOCIgeDI9IjQ4LjMiIHkxPSI0Ni44IiB4MT0iNDUuNCIgY2xhc3M9InN0MiIgaWQ9IlhNTElEXzQwNF8iLz4mI3hhOwkJPGxpbmUgeTI9IjUwLjgiIHgyPSIxOC4xIiB5MT0iNTAuOCIgeDE9IjE1LjMiIGNsYXNzPSJzdDIiIGlkPSJYTUxJRF80MThfIi8+JiN4YTsJCTxsaW5lIHkyPSI1MC44IiB4Mj0iMjMuMSIgeTE9IjUwLjgiIHgxPSIyMC4zIiBjbGFzcz0ic3QyIiBpZD0iWE1MSURfNDE2XyIvPiYjeGE7CQk8bGluZSB5Mj0iNTAuOCIgeDI9IjM4LjIiIHkxPSI1MC44IiB4MT0iMjUuMiIgY2xhc3M9InN0MiIgaWQ9IlhNTElEXzQxNF8iLz4mI3hhOwkJPGxpbmUgeTI9IjUwLjgiIHgyPSI0My4yIiB5MT0iNTAuOCIgeDE9IjQwLjQiIGNsYXNzPSJzdDIiIGlkPSJYTUxJRF80MTJfIi8+JiN4YTsJCTxsaW5lIHkyPSI1MC44IiB4Mj0iNDguMyIgeTE9IjUwLjgiIHgxPSI0NS40IiBjbGFzcz0ic3QyIiBpZD0iWE1MSURfNDExXyIvPiYjeGE7CQk8bGluZSB5Mj0iMzcuMiIgeDI9IjIzLjEiIHkxPSIzNy4yIiB4MT0iMjAuMyIgY2xhc3M9InN0MiIgaWQ9IlhNTElEXzM4OV8iLz4mI3hhOwkJPGxpbmUgeTI9IjM3LjIiIHgyPSI0My4yIiB5MT0iMzcuMiIgeDE9IjQwLjQiIGNsYXNzPSJzdDIiIGlkPSJYTUxJRF8zOTVfIi8+JiN4YTsJCTxsaW5lIHkyPSIzNy4yIiB4Mj0iNDguMyIgeTE9IjM3LjIiIHgxPSI0NS40IiBjbGFzcz0ic3QyIiBpZD0iWE1MSURfMzk2XyIvPiYjeGE7CTwvZz4mI3hhOwk8ZyBjbGFzcz0ic3QwIiBpZD0iWE1MSURfNDMxXyI+JiN4YTsJCTxnIGNsYXNzPSJzdDMiIGlkPSJYTUxJRF80MTlfIj4mI3hhOwkJCTxwYXRoIGQ9Ik01Mi41LDE1LjJjMC42LDAsMSwwLjQsMSwxVjQxYzAsMC42LTAuNCwxLTEsMWgtNDFjLTAuNiwwLTEtMC40LTEtMVYxNi4yYzAtMC42LDAuNC0xLDEtMSYjMTA7JiM5OyYjOTsmIzk7JiM5O0g1Mi41eiIgY2xhc3M9InN0NCIgaWQ9IlhNTElEXzQyNV8iLz4mI3hhOwkJCTxsaW5lIHkyPSIzNi4yIiB4Mj0iNTMuNSIgeTE9IjM2LjIiIHgxPSIxMC41IiBjbGFzcz0ic3Q0IiBpZD0iWE1MSURfNDIzXyIvPiYjeGE7CQkJPGxpbmUgeTI9IjQ4LjgiIHgyPSIyMS4zIiB5MT0iNDEuNCIgeDE9IjIxLjMiIGNsYXNzPSJzdDQiIGlkPSJYTUxJRF80MjJfIi8+JiN4YTsJCQk8bGluZSB5Mj0iNDguOCIgeDI9IjQyLjMiIHkxPSI0MS40IiB4MT0iNDIuMyIgY2xhc3M9InN0NCIgaWQ9IlhNTElEXzQyMV8iLz4mI3hhOwkJCTxsaW5lIHkyPSI0OC44IiB4Mj0iNDYuMiIgeTE9IjQ4LjgiIHgxPSIxNy41IiBjbGFzcz0ic3Q0IiBpZD0iWE1MSURfNDIwXyIvPiYjeGE7CQk8L2c+JiN4YTsJCTxnIGNsYXNzPSJzdDMiIGlkPSJYTUxJRF80MjhfIj4mI3hhOwkJCTxwYXRoIGQ9Ik0xNy45LDMyLjhWMjEuM2MwLTAuNSwwLjQtMC45LDAuOS0wLjloNi4xYzAuNSwwLDAuOSwwLjQsMC45LDAuOXYxMS42IiBjbGFzcz0ic3Q0IiBpZD0iWE1MSURfNDI2XyIvPiYjeGE7CQkJPGxpbmUgeTI9IjI2LjYiIHgyPSIyNS44IiB5MT0iMjYuNiIgeDE9IjE4LjIiIGNsYXNzPSJzdDQiIGlkPSJYTUxJRF80MjdfIi8+JiN4YTsJCQk8cGF0aCBkPSJNMzIuMiwzMi44VjIxLjNjMC0wLjUsMC40LTEsMS0xaDYuN2MwLjUsMCwxLDAuNCwxLDF2NC4zYzAsMC41LTAuNCwxLTEsMWgtNy42IiBjbGFzcz0ic3Q0IiBpZD0iWE1MSURfNDI0XyIvPiYjeGE7CQkJPGxpbmUgeTI9IjMyLjgiIHgyPSI0Ni4yIiB5MT0iMTkuNyIgeDE9IjQ2LjIiIGNsYXNzPSJzdDQiIGlkPSJYTUxJRF80MjlfIi8+JiN4YTsJCTwvZz4mI3hhOwkJPGxpbmUgeTI9IjIwLjQiIHgyPSI0Ny45IiB5MT0iMjAuNCIgeDE9IjQ0LjYiIGNsYXNzPSJzdDIiIGlkPSJYTUxJRF80MzNfIi8+JiN4YTsJCTxsaW5lIHkyPSIzMS44IiB4Mj0iNDcuOCIgeTE9IjMxLjgiIHgxPSI0NC42IiBjbGFzcz0ic3QyIiBpZD0iWE1MSURfNDMwXyIvPiYjeGE7CTwvZz4mI3hhOwk8ZyBjbGFzcz0ic3QwIiBpZD0iWE1MSURfNDM4XyI+JiN4YTsJCTxnIGNsYXNzPSJzdDMiIGlkPSJYTUxJRF80MzRfIj4mI3hhOwkJCTxwYXRoIGQ9Ik00MiwyMy40YzAuMSw2LjgtOC40LDE0LjYtOS40LDE1LjVjLTAuMSwwLjEtMC4xLDAuMS0wLjIsMGMtMS0wLjktOS40LTguNy05LjQtMTUuNSYjMTA7JiM5OyYjOTsmIzk7JiM5O2MwLTUuMiw0LjItOS41LDkuNS05LjVDMzcuOCwxMy45LDQyLDE4LjEsNDIsMjMuNHoiIGNsYXNzPSJzdDQiIGlkPSJYTUxJRF80MzlfIi8+JiN4YTsJCQk8Y2lyY2xlIHI9IjUuMiIgY3k9IjIzLjQiIGN4PSIzMi41IiBjbGFzcz0ic3Q0IiBpZD0iWE1MSURfNDQwXyIvPiYjeGE7CQk8L2c+JiN4YTsJCTxwYXRoIGQ9Ik0yMi4zLDMyLjdjLTIuMy0yLjYtMy41LTYtMy4zLTkuN2MwLjItMy43LDItNyw0LjYtOS4yYzIuNi0yLjMsNi0zLjUsOS43LTMuMyYjMTA7JiM5OyYjOTsmIzk7YzMuNywwLjIsNywyLDkuMiw0LjZjMi4zLDIuNiwzLjUsNiwzLjMsOS43Yy0wLjIsMy43LTIsNy00LjYsOS4yIiBjbGFzcz0ic3Q1IiBpZD0iWE1MSURfNDUyXyIvPiYjeGE7CQk8ZyBjbGFzcz0ic3QzIiBpZD0iWE1MSURfNDM1XyI+JiN4YTsJCQk8cGF0aCBkPSJNNTQuMiw1My42SDkuOGMtMC4xLDAtMC4yLTAuMS0wLjItMC4ybC0xLTVjMC0wLjEsMC4xLTAuMywwLjItMC4zaDIwLjFsMSwxaDQuMWwxLTFoMjAuMSYjMTA7JiM5OyYjOTsmIzk7JiM5O2MwLjEsMCwwLjMsMC4xLDAuMiwwLjNsLTEsNUM1NC40LDUzLjUsNTQuMyw1My42LDU0LjIsNTMuNnoiIGNsYXNzPSJzdDQiIGlkPSJYTUxJRF80MzZfIi8+JiN4YTsJCQk8cGF0aCBkPSJNMTUuMywyMy43aC0zLjljLTAuMiwwLTAuMywwLjEtMC4zLDAuM3YyMS43IiBjbGFzcz0ic3Q0IiBpZD0iWE1MSURfNTAxXyIvPiYjeGE7CQkJPHBhdGggZD0iTTUyLjksNDUuN1YyNGMwLTAuMi0wLjEtMC4zLTAuMy0wLjNoLTQuMiIgY2xhc3M9InN0NCIgaWQ9IlhNTElEXzUwMF8iLz4mI3hhOwkJPC9nPiYjeGE7CQk8cG9seWxpbmUgcG9pbnRzPSIxNS45LDQzLjEgNDguNCw0My4xIDQ4LjQsMzYuMSIgY2xhc3M9InN0MiIgaWQ9IlhNTElEXzQzN18iLz4mI3hhOwk8L2c+JiN4YTsJPGcgaWQ9IlhNTElEXzQ0Nl8iPiYjeGE7CQk8cGF0aCBkPSJNNTEuOCw0NS41VjExLjZjMC0wLjEtMC4xLTAuMy0wLjMtMC4zaC00MGMtMC4xLDAtMC4zLDAuMS0wLjMsMC4zdjQwLjYiIGNsYXNzPSJzdDQiIGlkPSJYTUxJRF80NTRfIi8+JiN4YTsJCTxsaW5lIHkyPSIxNy4xIiB4Mj0iNTEuOCIgeTE9IjE3LjEiIHgxPSIxMS4zIiBjbGFzcz0ic3Q0IiBpZD0iWE1MSURfNDUzXyIvPiYjeGE7CQk8bGluZSB5Mj0iMTQiIHgyPSIxOCIgeTE9IjE0IiB4MT0iMTUuMyIgY2xhc3M9InN0NCIgaWQ9IlhNTElEXzQ1MV8iLz4mI3hhOwkJPGxpbmUgeTI9IjE0IiB4Mj0iMjIuMiIgeTE9IjE0IiB4MT0iMTkuNiIgY2xhc3M9InN0NCIgaWQ9IlhNTElEXzQ1MF8iLz4mI3hhOwkJPGxpbmUgeTI9IjE0IiB4Mj0iMjYuNSIgeTE9IjE0IiB4MT0iMjMuOSIgY2xhc3M9InN0NCIgaWQ9IlhNTElEXzQ0OV8iLz4mI3hhOwkJPHBvbHlsaW5lIHBvaW50cz0iMjEuNCwzMS4yIDE2LjMsMzEuMiAxNi4zLDIwLjkgNDUuOSwyMC45IDQ1LjksMjYuMSIgY2xhc3M9InN0NCIgaWQ9IlhNTElEXzQ0Ml8iLz4mI3hhOwkJPHBvbHlsaW5lIHBvaW50cz0iMjEuNSwzNS43IDE2LjMsMzUuNyAxNi4zLDQyLjggMjQuMiw0Mi44IiBjbGFzcz0ic3Q0IiBpZD0iWE1MSURfNDQ1XyIvPiYjeGE7CQk8cGF0aCBkPSJNNTIuNyw1MC4xbC0yLjUsMi41Yy0wLjEsMC4xLTAuMiwwLjEtMC4zLDBsLTYuMy02LjNjLTAuMS0wLjEtMC4xLTAuMiwwLTAuM2wyLjUtMi41JiMxMDsmIzk7JiM5OyYjOTtjMC4xLTAuMSwwLjItMC4xLDAuMywwbDYuMyw2LjNDNTIuNyw0OS45LDUyLjcsNTAsNTIuNyw1MC4xeiIgY2xhc3M9InN0NCIgaWQ9IlhNTElEXzQ2MF8iLz4mI3hhOwkJPGxpbmUgeTI9IjQ0LjMiIHgyPSI0NC40IiB5MT0iNDIuMSIgeDE9IjQyLjIiIGNsYXNzPSJzdDQiIGlkPSJYTUxJRF80NThfIi8+JiN4YTsJCTxjaXJjbGUgcj0iMTEiIGN5PSIzNC4yIiBjeD0iMzQuOCIgY2xhc3M9InN0NCIgaWQ9IlhNTElEXzQ1NV8iLz4mI3hhOwkJPHBvbHlsaW5lIHBvaW50cz0iMzAuNywzMy41IDMzLjcsMzYuNSAzOC44LDMxLjMiIGNsYXNzPSJzdDQiIGlkPSJYTUxJRF80NDNfIi8+JiN4YTsJPC9nPiYjeGE7CTxnIGNsYXNzPSJzdDAiIGlkPSJYTUxJRF80NzNfIj4mI3hhOwkJPGcgY2xhc3M9InN0MyIgaWQ9IlhNTElEXzQ3NV8iPiYjeGE7CQkJPHBhdGggZD0iTTMzLjcsNDAuMXYtOS43YzAtMC44LTAuNy0xLjUtMS41LTEuNWwwLDBjLTAuOCwwLTEuNSwwLjctMS41LDEuNXYxMS45IiBjbGFzcz0ic3Q0IiBpZD0iWE1MSURfNDg5XyIvPiYjeGE7CQkJPHBhdGggZD0iTTM2LjYsMzcuNnYtMi41YzAtMC44LTAuNy0xLjUtMS41LTEuNWwwLDBjLTAuOCwwLTEuNSwwLjctMS41LDEuNXYyLjUiIGNsYXNzPSJzdDQiIGlkPSJYTUxJRF80ODhfIi8+JiN4YTsJCQk8cGF0aCBkPSJNMzkuNiw0MC4xdi0zLjVjMC0wLjgtMC43LTEuNS0xLjUtMS41bDAsMGMtMC44LDAtMS41LDAuNy0xLjUsMS41djMuNSIgY2xhc3M9InN0NCIgaWQ9IlhNTElEXzQ4M18iLz4mI3hhOwkJCTxwYXRoIGQ9Ik0zOS42LDM5LjV2LTEuNGMwLTAuOCwwLjctMS41LDEuNS0xLjVsMCwwYzAuOCwwLDEuNSwwLjcsMS41LDEuNXY4LjNjMCwwLjQtMC4yLDAuNy0wLjQsMSYjMTA7JiM5OyYjOTsmIzk7JiM5O0w0MC42LDQ5Yy0wLjIsMC4yLTAuNCwwLjUtMC40LDAuOHYwLjQiIGNsYXNzPSJzdDQiIGlkPSJYTUxJRF80ODFfIi8+JiN4YTsJCQk8cGF0aCBkPSJNMzAuOCwzOS42aC0yLjFjLTAuNSwwLTEsMC40LTEsMXY2LjVjMCwwLjUsMC4zLDEsMC44LDEuMmwxLjIsMC42YzAuNSwwLjIsMC44LDAuNywwLjgsMS4yJiMxMDsmIzk7JiM5OyYjOTsmIzk7djAiIGNsYXNzPSJzdDQiIGlkPSJYTUxJRF80NzhfIi8+JiN4YTsJCQk8cGF0aCBkPSJNMjguMiw1NC40di0zLjdjMC0wLjEsMC4xLTAuMiwwLjItMC4yaDEzLjljMC4xLDAsMC4yLDAuMSwwLjIsMC4ydjMuNyIgY2xhc3M9InN0NCIgaWQ9IlhNTElEXzQ3N18iLz4mI3hhOwkJPC9nPiYjeGE7CQk8cGF0aCBkPSJNMjksMzEuNGMtMC40LTAuNC0wLjgtMC45LTEtMS41Yy0wLjItMC41LTAuNC0xLjItMC40LTEuOGMwLTAuNiwwLjEtMS4yLDAuNC0xLjgmIzEwOyYjOTsmIzk7JiM5O2MwLjItMC41LDAuNi0xLDEtMS41YzAuNC0wLjQsMC45LTAuOCwxLjUtMWMwLjUtMC4yLDEuMi0wLjQsMS44LTAuNGMwLjYsMCwxLjIsMC4xLDEuOCwwLjRjMC41LDAuMiwxLDAuNiwxLjUsMSYjMTA7JiM5OyYjOTsmIzk7YzAuNCwwLjQsMC44LDAuOSwxLDEuNWMwLjIsMC41LDAuNCwxLjIsMC40LDEuOGMwLDAuNi0wLjEsMS4yLTAuNCwxLjgiIGNsYXNzPSJzdDIiIGlkPSJYTUxJRF80NjJfIi8+JiN4YTsJCTxsaW5lIHkyPSIyOC4zIiB4Mj0iMjUuNCIgeTE9IjI4LjMiIHgxPSIxOS4xIiBjbGFzcz0ic3Q1IiBpZD0iWE1MSURfNDYzXyIvPiYjeGE7CQk8bGluZSB5Mj0iMjMuMyIgeDI9IjI2LjgiIHkxPSIxOC43IiB4MT0iMjIuMiIgY2xhc3M9InN0NSIgaWQ9IlhNTElEXzQ1Nl8iLz4mI3hhOwkJPGxpbmUgeTI9IjIwLjciIHgyPSIzMi40IiB5MT0iMTUuMiIgeDE9IjMyLjMiIGNsYXNzPSJzdDUiIGlkPSJYTUxJRF80NTlfIi8+JiN4YTsJCTxsaW5lIHkyPSIyMi40IiB4Mj0iMzYuOCIgeTE9IjE3LjkiIHgxPSI0MS4yIiBjbGFzcz0ic3Q1IiBpZD0iWE1MSURfNDY0XyIvPiYjeGE7CQk8bGluZSB5Mj0iMjguMyIgeDI9IjM5IiB5MT0iMjguMyIgeDE9IjQ0LjkiIGNsYXNzPSJzdDUiIGlkPSJYTUxJRF80NjVfIi8+JiN4YTsJCTxjaXJjbGUgcj0iMi4xIiBjeT0iMjguMyIgY3g9IjE1LjMiIGNsYXNzPSJzdDIiIGlkPSJYTUxJRF80NjZfIi8+JiN4YTsJCTxjaXJjbGUgcj0iMi4xIiBjeT0iMTEuNiIgY3g9IjMyLjIiIGNsYXNzPSJzdDIiIGlkPSJYTUxJRF80NjdfIi8+JiN4YTsJCTxjaXJjbGUgcj0iMi4xIiBjeT0iMTYuMSIgY3g9IjE5LjgiIGNsYXNzPSJzdDIiIGlkPSJYTUxJRF80NjlfIi8+JiN4YTsJCTxjaXJjbGUgcj0iMi4xIiBjeT0iMTUuMiIgY3g9IjQzLjYiIGNsYXNzPSJzdDIiIGlkPSJYTUxJRF80NzBfIi8+JiN4YTsJCTxjaXJjbGUgcj0iMi4xIiBjeT0iMjguMyIgY3g9IjQ4LjciIGNsYXNzPSJzdDIiIGlkPSJYTUxJRF80NjhfIi8+JiN4YTsJPC9nPiYjeGE7CTxnIGNsYXNzPSJzdDAiIGlkPSJYTUxJRF80OThfIj4mI3hhOwkJPGcgY2xhc3M9InN0MyIgaWQ9IlhNTElEXzUxM18iPiYjeGE7CQkJPHBhdGggZD0iTTU1LjQsNTMuOEg4LjZjLTAuMSwwLTAuMi0wLjEtMC4yLTAuMnYtOC41YzAtMC4xLDAuMS0wLjIsMC4yLTAuMmg0Ni44JiMxMDsmIzk7JiM5OyYjOTsmIzk7YzAuMSwwLDAuMiwwLjEsMC4yLDAuMnY4LjVDNTUuNiw1My43LDU1LjUsNTMuOCw1NS40LDUzLjh6IiBjbGFzcz0ic3Q0IiBpZD0iWE1MSURfNTIzXyIvPiYjeGE7CQkJPGxpbmUgeTI9IjQ4LjUiIHgyPSIxMi45IiB5MT0iNDQuOSIgeDE9IjEyLjkiIGNsYXNzPSJzdDQiIGlkPSJYTUxJRF81MjJfIi8+JiN4YTsJCQk8bGluZSB5Mj0iNDguNSIgeDI9IjE3LjYiIHkxPSI0NC45IiB4MT0iMTcuNiIgY2xhc3M9InN0NCIgaWQ9IlhNTElEXzUyMV8iLz4mI3hhOwkJCTxsaW5lIHkyPSI0OC41IiB4Mj0iMjIuNCIgeTE9IjQ0LjkiIHgxPSIyMi40IiBjbGFzcz0ic3Q0IiBpZD0iWE1MSURfNTIwXyIvPiYjeGE7CQkJPGxpbmUgeTI9IjQ4LjUiIHgyPSIyNy4xIiB5MT0iNDQuOSIgeDE9IjI3LjEiIGNsYXNzPSJzdDQiIGlkPSJYTUxJRF81MTlfIi8+JiN4YTsJCQk8bGluZSB5Mj0iNDguNSIgeDI9IjMxLjgiIHkxPSI0NC45IiB4MT0iMzEuOCIgY2xhc3M9InN0NCIgaWQ9IlhNTElEXzUxOF8iLz4mI3hhOwkJCTxsaW5lIHkyPSI0OC41IiB4Mj0iMzYuNSIgeTE9IjQ0LjkiIHgxPSIzNi41IiBjbGFzcz0ic3Q0IiBpZD0iWE1MSURfNTE3XyIvPiYjeGE7CQkJPGxpbmUgeTI9IjQ4LjUiIHgyPSI0MS4yIiB5MT0iNDQuOSIgeDE9IjQxLjIiIGNsYXNzPSJzdDQiIGlkPSJYTUxJRF81MTZfIi8+JiN4YTsJCQk8bGluZSB5Mj0iNDguNSIgeDI9IjQ1LjkiIHkxPSI0NC45IiB4MT0iNDUuOSIgY2xhc3M9InN0NCIgaWQ9IlhNTElEXzUxNV8iLz4mI3hhOwkJCTxsaW5lIHkyPSI0OC41IiB4Mj0iNTAuNiIgeTE9IjQ0LjkiIHgxPSI1MC42IiBjbGFzcz0ic3Q0IiBpZD0iWE1MSURfNTE0XyIvPiYjeGE7CQk8L2c+JiN4YTsJCTxwYXRoIGQ9Ik00OS44LDQyLjlWMTAuNWMwLTAuMS0wLjEtMC4zLTAuMy0wLjNIMTQuMWMtMC4xLDAtMC4zLDAuMS0wLjMsMC4zdjMyLjQiIGNsYXNzPSJzdDIiIGlkPSJYTUxJRF81MTJfIi8+JiN4YTsJCTxsaW5lIHkyPSIxNS45IiB4Mj0iNDkuOCIgeTE9IjE1LjkiIHgxPSIxMy44IiBjbGFzcz0ic3QyIiBpZD0iWE1MSURfNTExXyIvPiYjeGE7CQk8bGluZSB5Mj0iMTIuOCIgeDI9IjE5LjYiIHkxPSIxMi44IiB4MT0iMTcuNyIgY2xhc3M9InN0MiIgaWQ9IlhNTElEXzUxMF8iLz4mI3hhOwkJPGxpbmUgeTI9IjEyLjgiIHgyPSIyMy42IiB5MT0iMTIuOCIgeDE9IjIxLjciIGNsYXNzPSJzdDIiIGlkPSJYTUxJRF80OTZfIi8+JiN4YTsJCTxsaW5lIHkyPSIxMi44IiB4Mj0iMjcuNiIgeTE9IjEyLjgiIHgxPSIyNS43IiBjbGFzcz0ic3QyIiBpZD0iWE1MSURfNDk3XyIvPiYjeGE7CQk8cGF0aCBkPSJNMjcuOSw0Mi42VjI4LjNsMy42LTEuOGMwLDAsMCwwLDAtMC4xdi01LjdjMCwwLDAsMCwwLTAuMWwtMy4xLTEuOGMtMC4xLDAtMC4yLDAtMC4yLDAuMSYjMTA7JiM5OyYjOTsmIzk7djQuNUwyNS4xLDI1TDIyLDIzLjV2LTQuNWMwLTAuMS0wLjEtMC4yLTAuMi0wLjFsLTMuMSwxLjhjMCwwLDAsMCwwLDAuMXY1LjdjMCwwLDAsMC4xLDAsMC4xbDMuOSwxLjl2MTQuMSIgY2xhc3M9InN0MiIgaWQ9IlhNTElEXzQ3MV8iLz4mI3hhOwkJPGcgY2xhc3M9InN0MyIgaWQ9IlhNTElEXzQ5MV8iPiYjeGE7CQkJPHBvbHlsaW5lIHBvaW50cz0iNDMuMiw0Mi42IDQzLjIsMzcuMyAzOC4zLDM3LjMgMzguMyw0Mi42IiBjbGFzcz0ic3Q0IiBpZD0iWE1MSURfNDk0XyIvPiYjeGE7CQkJPGxpbmUgeTI9IjM3LjMiIHgyPSIzNiIgeTE9IjM3LjMiIHgxPSI0NS40IiBjbGFzcz0ic3Q0IiBpZD0iWE1MSURfNTA5XyIvPiYjeGE7CQkJPHBvbHlsaW5lIHBvaW50cz0iMzkuMiwzNy4xIDM5LjIsMjMuMyAzOC42LDIzLjMgMzguOSwxOC42IDQyLjUsMTguNiA0Mi45LDIzLjMgNDIuMywyMy4zICYjMTA7JiM5OyYjOTsmIzk7JiM5OzQyLjMsMzcuMSIgY2xhc3M9InN0NCIgaWQ9IlhNTElEXzQ5NV8iLz4mI3hhOwkJPC9nPiYjeGE7CTwvZz4mI3hhOwk8ZyBjbGFzcz0ic3QwIiBpZD0iWE1MSURfNDkyXyI+JiN4YTsJCTxwb2x5Z29uIHBvaW50cz0iNDAuMyw1Mi4xIDIzLjcsNTIuMSAyMi42LDQ5LjcgMjIuNiw0Mi42IDQxLjQsNDIuNiA0MS40LDQ5LjYiIGNsYXNzPSJzdDIiIGlkPSJYTUxJRF81MjZfIi8+JiN4YTsJCTxyZWN0IGhlaWdodD0iMyIgd2lkdGg9IjUuMyIgY2xhc3M9InN0MiIgeT0iNTIuMSIgeD0iMjkuNCIgaWQ9IlhNTElEXzUyNV8iLz4mI3hhOwkJPHBhdGggZD0iTTQ1LjMsMjguMWMwLTcuMy01LjktMTMuMy0xMy4zLTEzLjNzLTEzLjMsNS45LTEzLjMsMTMuM2MwLDQuNywyLjQsOC44LDYuMSwxMS4xdjMuM2gxNC40JiMxMDsmIzk7JiM5OyYjOTt2LTMuM0M0Mi45LDM2LjksNDUuMywzMi44LDQ1LjMsMjguMXoiIGNsYXNzPSJzdDIiIGlkPSJYTUxJRF81MjRfIi8+JiN4YTsJCTxsaW5lIHkyPSI0Ny4zIiB4Mj0iMzAuOCIgeTE9IjQ3LjMiIHgxPSIyMi42IiBjbGFzcz0ic3QyIiBpZD0iWE1MSURfNTA4XyIvPiYjeGE7CQk8ZyBjbGFzcz0ic3QzIiBpZD0iWE1MSURfNTA0XyI+JiN4YTsJCQk8cGF0aCBkPSJNMTUuNSwzOS43Yy0yLjEtMy4xLTMuMy02LjktMy4zLTExQzEyLjIsMTcuOCwyMS4xLDksMzIsOXMxOS44LDguOSwxOS44LDE5LjgmIzEwOyYjOTsmIzk7JiM5OyYjOTtjMCw0LjQtMS41LDguNS0zLjksMTEuOCIgY2xhc3M9InN0NiIgaWQ9IlhNTElEXzUwNl8iLz4mI3hhOwkJPC9nPiYjeGE7CQk8cG9seWxpbmUgcG9pbnRzPSIzMy45LDE4LjggMjguOSwyNy44IDM1LjUsMjcuOCAyOS40LDM2LjkiIGNsYXNzPSJzdDIiIGlkPSJYTUxJRF80OTNfIi8+JiN4YTsJPC9nPiYjeGE7CTxnIGNsYXNzPSJzdDAiIGlkPSJYTUxJRF81NDJfIj4mI3hhOwkJPHBhdGggZD0iTTUxLjEsNTEuNGMwLjEsMCwwLjMtMC4xLDAuMy0wLjNWMTIuOGMwLTAuMS0wLjEtMC4zLTAuMy0wLjNIMTIuOWMtMC4xLDAtMC4zLDAuMS0wLjMsMC4zJiMxMDsmIzk7JiM5OyYjOTt2MzguM2MwLDAuMSwwLjEsMC4zLDAuMywwLjNINTEuMXoiIGNsYXNzPSJzdDIiIGlkPSJYTUxJRF81MzVfIi8+JiN4YTsJCTxsaW5lIHkyPSIxOS40IiB4Mj0iNTEuNCIgeTE9IjE5LjQiIHgxPSIxMi42IiBjbGFzcz0ic3QyIiBpZD0iWE1MSURfNTM0XyIvPiYjeGE7CQk8bGluZSB5Mj0iMTUuNyIgeDI9IjE4LjciIHkxPSIxNS43IiB4MT0iMTYuMyIgY2xhc3M9InN0MiIgaWQ9IlhNTElEXzUzM18iLz4mI3hhOwkJPGxpbmUgeTI9IjE1LjciIHgyPSIyMi42IiB5MT0iMTUuNyIgeDE9IjIwLjIiIGNsYXNzPSJzdDIiIGlkPSJYTUxJRF81MzJfIi8+JiN4YTsJCTxsaW5lIHkyPSIxNS43IiB4Mj0iMjYuNiIgeTE9IjE1LjciIHgxPSIyNC4yIiBjbGFzcz0ic3QyIiBpZD0iWE1MSURfNTMxXyIvPiYjeGE7CQk8Y2lyY2xlIHI9IjIuMSIgY3k9IjI5LjMiIGN4PSIyMiIgY2xhc3M9InN0MiIgaWQ9IlhNTElEXzUyN18iLz4mI3hhOwkJPGNpcmNsZSByPSIyLjEiIGN5PSI0My41IiBjeD0iMzIiIGNsYXNzPSJzdDIiIGlkPSJYTUxJRF81MjhfIi8+JiN4YTsJCTxjaXJjbGUgcj0iMi4xIiBjeT0iMzUiIGN4PSI0Mi4xIiBjbGFzcz0ic3QyIiBpZD0iWE1MSURfNTI5XyIvPiYjeGE7CQk8bGluZSB5Mj0iNDUuNiIgeDI9IjIyIiB5MT0iMzMuOSIgeDE9IjIyIiBjbGFzcz0ic3QyIiBpZD0iWE1MSURfNTM2XyIvPiYjeGE7CQk8bGluZSB5Mj0iMzkuNyIgeDI9IjMxLjciIHkxPSIyNy4zIiB4MT0iMzEuNyIgY2xhc3M9InN0MiIgaWQ9IlhNTElEXzUzMF8iLz4mI3hhOwkJPGxpbmUgeTI9IjQ1LjYiIHgyPSI0Mi4xIiB5MT0iMzkuMSIgeDE9IjQyLjEiIGNsYXNzPSJzdDIiIGlkPSJYTUxJRF81MzdfIi8+JiN4YTsJCTxsaW5lIHkyPSIzMS40IiB4Mj0iNDIuMSIgeTE9IjI3LjMiIHgxPSI0Mi4xIiBjbGFzcz0ic3QyIiBpZD0iWE1MSURfNTQwXyIvPiYjeGE7CTwvZz4mI3hhOwk8ZyBjbGFzcz0ic3QwIiBpZD0iWE1MSURfNTQ3XyI+JiN4YTsJCTxnIGNsYXNzPSJzdDMiIGlkPSJYTUxJRF81NTFfIj4mI3hhOwkJCTxwYXRoIGQ9Ik00MS43LDIwLjdoMTAuOGMwLjYsMCwxLDAuNCwxLDF2MjQuOGMwLDAuNi0wLjQsMS0xLDFoLTQxYy0wLjYsMC0xLTAuNC0xLTFWMjEuNyYjMTA7JiM5OyYjOTsmIzk7JiM5O2MwLTAuNiwwLjQtMSwxLTFoMTAuNyIgY2xhc3M9InN0NCIgaWQ9IlhNTElEXzU0OV8iLz4mI3hhOwkJCTxsaW5lIHkyPSI0MS43IiB4Mj0iNTMuNSIgeTE9IjQxLjciIHgxPSIxMC41IiBjbGFzcz0ic3Q0IiBpZD0iWE1MSURfNTU4XyIvPiYjeGE7CQkJPGxpbmUgeTI9IjU0LjMiIHgyPSIyMS4zIiB5MT0iNDciIHgxPSIyMS4zIiBjbGFzcz0ic3Q0IiBpZD0iWE1MSURfNTU2XyIvPiYjeGE7CQkJPGxpbmUgeTI9IjU0LjMiIHgyPSI0Mi4zIiB5MT0iNDciIHgxPSI0Mi4zIiBjbGFzcz0ic3Q0IiBpZD0iWE1MSURfNTUzXyIvPiYjeGE7CQkJPGxpbmUgeTI9IjU0LjMiIHgyPSI0Ni4yIiB5MT0iNTQuMyIgeDE9IjE3LjUiIGNsYXNzPSJzdDQiIGlkPSJYTUxJRF81NTJfIi8+JiN4YTsJCTwvZz4mI3hhOwkJPGcgY2xhc3M9InN0MyIgaWQ9IlhNTElEXzU0OF8iPiYjeGE7CQkJPHBhdGggZD0iTTM4LjYsMzAuMUgyNS40Yy0wLjEsMC0wLjItMC4xLTAuMi0wLjJWMTcuN2MwLTAuMSwwLjEtMC4yLDAuMi0wLjJoMTMuMSYjMTA7JiM5OyYjOTsmIzk7JiM5O2MwLjEsMCwwLjIsMC4xLDAuMiwwLjJWMzBDMzguOCwzMC4xLDM4LjcsMzAuMSwzOC42LDMwLjF6IiBjbGFzcz0ic3Q0IiBpZD0iWE1MSURfNTM4XyIvPiYjeGE7CQkJPHBhdGggZD0iTTI3LjMsMTcuNXYtMy4yYzAtMi42LDIuMS00LjcsNC43LTQuN2wwLDBjMi42LDAsNC43LDIuMSw0LjcsNC43djMuMiIgY2xhc3M9InN0NCIgaWQ9IlhNTElEXzU0NV8iLz4mI3hhOwkJCTxjaXJjbGUgcj0iMi40IiBjeT0iMjMuOCIgY3g9IjMyIiBjbGFzcz0ic3Q0IiBpZD0iWE1MSURfNTQxXyIvPiYjeGE7CQk8L2c+JiN4YTsJCTxwb2x5bGluZSBwb2ludHM9IjQxLDI3LjcgNDcuMywyNy43IDQ3LjMsMzcuMSAxNy41LDM3LjEgMTcuNSwyNy43IDIyLjcsMjcuNyIgY2xhc3M9InN0MiIgaWQ9IlhNTElEXzU2MF8iLz4mI3hhOwkJPGxpbmUgeTI9IjMyLjgiIHgyPSIyMi45IiB5MT0iMzIuOCIgeDE9IjIxLjMiIGNsYXNzPSJzdDIiIGlkPSJYTUxJRF81NjFfIi8+JiN4YTsJCTxsaW5lIHkyPSIzMi44IiB4Mj0iMjguMyIgeTE9IjMyLjgiIHgxPSIyNi42IiBjbGFzcz0ic3QyIiBpZD0iWE1MSURfNTUwXyIvPiYjeGE7CQk8bGluZSB5Mj0iMzIuOCIgeDI9IjMzLjYiIHkxPSIzMi44IiB4MT0iMzEuOSIgY2xhc3M9InN0MiIgaWQ9IlhNTElEXzU2Ml8iLz4mI3hhOwkJPGxpbmUgeTI9IjMyLjgiIHgyPSIzOC45IiB5MT0iMzIuOCIgeDE9IjM3LjMiIGNsYXNzPSJzdDIiIGlkPSJYTUxJRF81NjNfIi8+JiN4YTsJCTxsaW5lIHkyPSIzMi44IiB4Mj0iNDQuMyIgeTE9IjMyLjgiIHgxPSI0Mi42IiBjbGFzcz0ic3QyIiBpZD0iWE1MSURfNTY0XyIvPiYjeGE7CTwvZz4mI3hhOwk8ZyBjbGFzcz0ic3QwIiBpZD0iWE1MSURfNTgxXyI+JiN4YTsJCTxnIGNsYXNzPSJzdDMiIGlkPSJYTUxJRF81NjVfIj4mI3hhOwkJCTxwYXRoIGQ9Ik01NC4yLDUzLjhIOS44Yy0wLjEsMC0wLjItMC4xLTAuMi0wLjJsLTEtNWMwLTAuMSwwLjEtMC4zLDAuMi0wLjNoMjAuMWwxLDFoNC4xbDEtMWgyMC4xJiMxMDsmIzk7JiM5OyYjOTsmIzk7YzAuMSwwLDAuMywwLjEsMC4yLDAuM2wtMSw1QzU0LjQsNTMuNyw1NC4zLDUzLjgsNTQuMiw1My44eiIgY2xhc3M9InN0NCIgaWQ9IlhNTElEXzU2OF8iLz4mI3hhOwkJCTxwYXRoIGQ9Ik0xNS4zLDE4LjloLTMuOWMtMC4yLDAtMC4zLDAuMS0wLjMsMC4zVjQ2IiBjbGFzcz0ic3Q0IiBpZD0iWE1MSURfNTY3XyIvPiYjeGE7CQkJPHBhdGggZD0iTTUyLjksNDZWMTkuM2MwLTAuMi0wLjEtMC4zLTAuMy0wLjNINDkiIGNsYXNzPSJzdDQiIGlkPSJYTUxJRF81NjZfIi8+JiN4YTsJCTwvZz4mI3hhOwkJPHJlY3QgaGVpZ2h0PSIzMy41IiB3aWR0aD0iMjkuMiIgY2xhc3M9InN0MiIgeT0iMTAuMiIgeD0iMTcuNSIgaWQ9IlhNTElEXzU1N18iLz4mI3hhOwkJPHBvbHlsaW5lIHBvaW50cz0iMTcuNSwzMC43IDI3LjUsMjIuMyAzMS41LDI2LjEgNDYuOCwxNC44IiBjbGFzcz0ic3QyIiBpZD0iWE1MSURfMjM3XyIvPiYjeGE7CQk8bGluZSB5Mj0iNDMuOCIgeDI9IjIwLjgiIHkxPSIyOCIgeDE9IjIwLjgiIGNsYXNzPSJzdDIiIGlkPSJYTUxJRF8yNDZfIi8+JiN4YTsJCTxsaW5lIHkyPSI0My44IiB4Mj0iMjQiIHkxPSIyNC42IiB4MT0iMjQiIGNsYXNzPSJzdDIiIGlkPSJYTUxJRF8yMjNfIi8+JiN4YTsJCTxsaW5lIHkyPSI0My44IiB4Mj0iMjcuMyIgeTE9IjIyLjciIHgxPSIyNy4zIiBjbGFzcz0ic3QyIiBpZD0iWE1MSURfMjQ3XyIvPiYjeGE7CQk8bGluZSB5Mj0iNDMuOCIgeDI9IjMwLjUiIHkxPSIyNS4yIiB4MT0iMzAuNSIgY2xhc3M9InN0MiIgaWQ9IlhNTElEXzU1NF8iLz4mI3hhOwkJPGxpbmUgeTI9IjQzLjgiIHgyPSIzMy43IiB5MT0iMjQuNiIgeDE9IjMzLjciIGNsYXNzPSJzdDIiIGlkPSJYTUxJRF81NjlfIi8+JiN4YTsJCTxsaW5lIHkyPSI0My44IiB4Mj0iMzYuOSIgeTE9IjIyIiB4MT0iMzYuOSIgY2xhc3M9InN0MiIgaWQ9IlhNTElEXzU3MF8iLz4mI3hhOwkJPGxpbmUgeTI9IjQzLjgiIHgyPSI0MC4yIiB5MT0iMTkuNyIgeDE9IjQwLjIiIGNsYXNzPSJzdDIiIGlkPSJYTUxJRF81NzFfIi8+JiN4YTsJCTxsaW5lIHkyPSI0My44IiB4Mj0iNDMuNCIgeTE9IjE2LjgiIHgxPSI0My40IiBjbGFzcz0ic3QyIiBpZD0iWE1MSURfNTcyXyIvPiYjeGE7CQk8bGluZSB5Mj0iMTUuOCIgeDI9IjQwLjMiIHkxPSIxNS44IiB4MT0iMTcuNSIgY2xhc3M9InN0MiIgaWQ9IlhNTElEXzU3N18iLz4mI3hhOwkJPGxpbmUgeTI9IjEzLjEiIHgyPSIyMy4xIiB5MT0iMTMuMSIgeDE9IjIwLjgiIGNsYXNzPSJzdDIiIGlkPSJYTUxJRF81NzlfIi8+JiN4YTsJCTxsaW5lIHkyPSIxMy4xIiB4Mj0iMjcuMSIgeTE9IjEzLjEiIHgxPSIyNC44IiBjbGFzcz0ic3QyIiBpZD0iWE1MSURfNTc1XyIvPiYjeGE7CQk8bGluZSB5Mj0iMTMuMSIgeDI9IjMxLjEiIHkxPSIxMy4xIiB4MT0iMjguOCIgY2xhc3M9InN0MiIgaWQ9IlhNTElEXzU4MF8iLz4mI3hhOwk8L2c+JiN4YTs8L2c+JiN4YTs8ZyBjbGFzcz0ic3QwIiBpZD0iSWNvbl90ZXh0Ij4mI3hhOwk8ZyBjbGFzcz0ic3QzIiBpZD0iWE1MSURfNTVfIj4mI3hhOwkJPHRleHQgY2xhc3M9InN0NyBzdDggc3Q5IiB0cmFuc2Zvcm09Im1hdHJpeCgxIDAgMCAxIC0xNjQuNTMxNCAtNzYuOTU4NCkiIGlkPSJYTUxJRF80MDBfIj5DT0RJTkc8L3RleHQ+JiN4YTsJPC9nPiYjeGE7CTxnIGNsYXNzPSJzdDMiIGlkPSJYTUxJRF84NV8iPiYjeGE7CQk8dGV4dCBjbGFzcz0ic3Q3IHN0OCBzdDkiIHRyYW5zZm9ybT0ibWF0cml4KDEgMCAwIDEgLTgzLjY3MTkgLTc2Ljk1ODIpIiBpZD0iWE1MSURfNDAxXyI+V0lSRUZSQU1FUzwvdGV4dD4mI3hhOwk8L2c+JiN4YTsJPGcgY2xhc3M9InN0MyIgaWQ9IlhNTElEXzg3XyI+JiN4YTsJCTx0ZXh0IGNsYXNzPSJzdDcgc3Q4IHN0OSIgdHJhbnNmb3JtPSJtYXRyaXgoMSAwIDAgMSA2LjI0MzkgLTc2Ljk1ODQpIiBpZD0iWE1MSURfNDE3XyI+VUkvVVggREVTSUdOPC90ZXh0PiYjeGE7CTwvZz4mI3hhOwk8ZyBjbGFzcz0ic3QzIiBpZD0iWE1MSURfMTIzXyI+JiN4YTsJCTx0ZXh0IGNsYXNzPSJzdDcgc3Q4IHN0OSIgdHJhbnNmb3JtPSJtYXRyaXgoMSAwIDAgMSAxMDYuMzY5MSAtNzYuOTU4MikiIGlkPSJYTUxJRF80NDRfIj5TVEFSVFVQPC90ZXh0PiYjeGE7CTwvZz4mI3hhOwk8ZyBjbGFzcz0ic3QzIiBpZD0iWE1MSURfMTM3XyI+JiN4YTsJCTx0ZXh0IHRyYW5zZm9ybT0ibWF0cml4KDEgMCAwIDEgMTkwLjczNjMgLTc2Ljk1ODQpIiBpZD0iWE1MSURfNDQ4XyI+PHRzcGFuIGNsYXNzPSJzdDcgc3Q4IHN0OSIgeT0iMCIgeD0iMCI+UkVTUE9OU0lWRTwvdHNwYW4+PHRzcGFuIGNsYXNzPSJzdDcgc3Q4IHN0OSIgeT0iNyIgeD0iOS40Ij5ERVNJR048L3RzcGFuPjwvdGV4dD4mI3hhOwk8L2c+JiN4YTsJPGcgY2xhc3M9InN0MyIgaWQ9IlhNTElEXzE2NF8iPiYjeGE7CQk8dGV4dCB0cmFuc2Zvcm09Im1hdHJpeCgxIDAgMCAxIC0xNjUuODE5MyAxOSkiIGlkPSJYTUxJRF80NTdfIj48dHNwYW4gY2xhc3M9InN0NyBzdDggc3Q5IiB5PSIwIiB4PSIwIj5XRUJTSVRFPC90c3Bhbj48dHNwYW4gY2xhc3M9InN0NyBzdDggc3Q5IiB5PSI3IiB4PSItMTEuNSI+REVWRUxPUE1FTlQ8L3RzcGFuPjwvdGV4dD4mI3hhOwk8L2c+JiN4YTsJPGcgY2xhc3M9InN0MyIgaWQ9IlhNTElEXzE2MV8iPiYjeGE7CQk8dGV4dCB0cmFuc2Zvcm09Im1hdHJpeCgxIDAgMCAxIC02Ny4yMzY0IDE5LjAwMDEpIiBpZD0iWE1MSURfNDYxXyI+PHRzcGFuIGNsYXNzPSJzdDcgc3Q4IHN0OSIgeT0iMCIgeD0iMCI+V0VCPC90c3Bhbj48dHNwYW4gY2xhc3M9InN0NyBzdDggc3Q5IiB5PSI3IiB4PSItMTguOCI+T1BUSU1JWkFUSU9OPC90c3Bhbj48L3RleHQ+JiN4YTsJPC9nPiYjeGE7CTxnIGNsYXNzPSJzdDMiIGlkPSJYTUxJRF8xOTBfIj4mI3hhOwkJPHRleHQgY2xhc3M9InN0NyBzdDggc3Q5IiB0cmFuc2Zvcm09Im1hdHJpeCgxIDAgMCAxIDE3LjEzNjMgMTkpIiBpZD0iWE1MSURfNDcyXyI+VEVTVElORzwvdGV4dD4mI3hhOwk8L2c+JiN4YTsJPGcgY2xhc3M9InN0MyIgaWQ9IlhNTElEXzE5NF8iPiYjeGE7CQk8dGV4dCBjbGFzcz0ic3Q3IHN0OCBzdDkiIHRyYW5zZm9ybT0ibWF0cml4KDEgMCAwIDEgMTA4LjYwMTUgMTkuMDAwMSkiIGlkPSJYTUxJRF80NzZfIj5MQVlPVVQ8L3RleHQ+JiN4YTsJPC9nPiYjeGE7CTxnIGNsYXNzPSJzdDMiIGlkPSJYTUxJRF8yNDVfIj4mI3hhOwkJPHRleHQgY2xhc3M9InN0NyBzdDggc3Q5IiB0cmFuc2Zvcm09Im1hdHJpeCgxIDAgMCAxIDE5My4wMTI0IDE5LjAwMDEpIiBpZD0iWE1MSURfNDc5XyI+U1BFRURURVNUPC90ZXh0PiYjeGE7CTwvZz4mI3hhOwk8ZyBjbGFzcz0ic3QzIiBpZD0iWE1MSURfMjcyXyI+JiN4YTsJCTx0ZXh0IHRyYW5zZm9ybT0ibWF0cml4KDEgMCAwIDEgLTE1Ny4yMjY1IDExNS40MTY2KSIgaWQ9IlhNTElEXzQ4MF8iPjx0c3BhbiBjbGFzcz0ic3Q3IHN0OCBzdDkiIHk9IjAiIHg9IjAiPkFQUDwvdHNwYW4+PHRzcGFuIGNsYXNzPSJzdDcgc3Q4IHN0OSIgeT0iNyIgeD0iLTIwLjIiPkRFVkVMT1BNRU5UPC90c3Bhbj48L3RleHQ+JiN4YTsJPC9nPiYjeGE7CTxnIGNsYXNzPSJzdDMiIGlkPSJYTUxJRF8zMDJfIj4mI3hhOwkJPHRleHQgdHJhbnNmb3JtPSJtYXRyaXgoMSAwIDAgMSAtNzIuMTkwMiAxMTUuNDE2NikiIGlkPSJYTUxJRF80ODJfIj48dHNwYW4gY2xhc3M9InN0NyBzdDggc3Q5IiB5PSIwIiB4PSIwIj5DTE9VRDwvdHNwYW4+PHRzcGFuIGNsYXNzPSJzdDcgc3Q4IHN0OSIgeT0iNyIgeD0iLTQuNiI+U1RPUkFHRTwvdHNwYW4+PC90ZXh0PiYjeGE7CTwvZz4mI3hhOwk8ZyBjbGFzcz0ic3QzIiBpZD0iWE1MSURfMjg4XyI+JiN4YTsJCTx0ZXh0IHRyYW5zZm9ybT0ibWF0cml4KDEgMCAwIDEgMy43OTk0IDExNS40MTcpIiBpZD0iWE1MSURfNDg0XyI+PHRzcGFuIGNsYXNzPSJzdDcgc3Q4IHN0OSIgeT0iMCIgeD0iMCI+VEhJTksgT1VUU0lERTwvdHNwYW4+PHRzcGFuIGNsYXNzPSJzdDcgc3Q4IHN0OSIgeT0iNyIgeD0iNi41Ij5PRiBUSEUgQk9YPC90c3Bhbj48L3RleHQ+JiN4YTsJPC9nPiYjeGE7CTxnIGNsYXNzPSJzdDMiIGlkPSJYTUxJRF8zMTJfIj4mI3hhOwkJPHRleHQgdHJhbnNmb3JtPSJtYXRyaXgoMSAwIDAgMSAxMTAuNTUwNSAxMTUuNDE2NikiIGlkPSJYTUxJRF80ODVfIj48dHNwYW4gY2xhc3M9InN0NyBzdDggc3Q5IiB5PSIwIiB4PSIwIj5DTE9VRDwvdHNwYW4+PHRzcGFuIGNsYXNzPSJzdDcgc3Q4IHN0OSIgeT0iNyIgeD0iLTkuOCI+Q09NUFVUSU5HPC90c3Bhbj48L3RleHQ+JiN4YTsJPC9nPiYjeGE7CTxnIGNsYXNzPSJzdDMiIGlkPSJYTUxJRF8zNjNfIj4mI3hhOwkJPHRleHQgdHJhbnNmb3JtPSJtYXRyaXgoMSAwIDAgMSAxOTYuNTQ5IDExNS40MTY2KSIgaWQ9IlhNTElEXzU5Nl8iPjx0c3BhbiBjbGFzcz0ic3Q3IHN0OCBzdDkiIHk9IjAiIHg9IjAiPkNPTlRFTlQ8L3RzcGFuPjx0c3BhbiBjbGFzcz0ic3Q3IHN0OCBzdDkiIHk9IjciIHg9Ii00LjciPlBMQUNFTUVOVDwvdHNwYW4+PC90ZXh0PiYjeGE7CTwvZz4mI3hhOwk8ZyBjbGFzcz0ic3QzIiBpZD0iWE1MSURfNDE1XyI+JiN4YTsJCTx0ZXh0IHRyYW5zZm9ybT0ibWF0cml4KDEgMCAwIDEgLTE1OC4wMjE0IDIxMi4xNjcpIiBpZD0iWE1MSURfNTk3XyI+PHRzcGFuIGNsYXNzPSJzdDcgc3Q4IHN0OSIgeT0iMCIgeD0iMCI+V0VCPC90c3Bhbj48dHNwYW4gY2xhc3M9InN0NyBzdDggc3Q5IiB5PSI3IiB4PSItNi41Ij5DT0RJTkc8L3RzcGFuPjwvdGV4dD4mI3hhOwk8L2c+JiN4YTsJPGcgY2xhc3M9InN0MyIgaWQ9IlhNTElEXzQzMl8iPiYjeGE7CQk8dGV4dCB0cmFuc2Zvcm09Im1hdHJpeCgxIDAgMCAxIC02NC41MTA1IDIxMi4xNjcpIiBpZD0iWE1MSURfNTk4XyI+PHRzcGFuIGNsYXNzPSJzdDcgc3Q4IHN0OSIgeT0iMCIgeD0iMCI+QVBJPC90c3Bhbj48dHNwYW4gY2xhc3M9InN0NyBzdDggc3Q5IiB5PSI3IiB4PSItMTQuNCI+SU5URVJGQUNFPC90c3Bhbj48L3RleHQ+JiN4YTsJPC9nPiYjeGE7CTxnIGNsYXNzPSJzdDMiIGlkPSJYTUxJRF80NDFfIj4mI3hhOwkJPHRleHQgdHJhbnNmb3JtPSJtYXRyaXgoMSAwIDAgMSAyMy44ODk2IDIxMi4xNjY2KSIgaWQ9IlhNTElEXzU5OV8iPjx0c3BhbiBjbGFzcz0ic3Q3IHN0OCBzdDkiIHk9IjAiIHg9IjAiPldFQjwvdHNwYW4+PHRzcGFuIGNsYXNzPSJzdDcgc3Q4IHN0OSIgeT0iNyIgeD0iLTE1Ij5OQVZJR0FUSU9OPC90c3Bhbj48L3RleHQ+JiN4YTsJPC9nPiYjeGE7CTxnIGNsYXNzPSJzdDMiIGlkPSJYTUxJRF80NDdfIj4mI3hhOwkJPHRleHQgdHJhbnNmb3JtPSJtYXRyaXgoMSAwIDAgMSAxMDQuNzczNiAyMTIuMTY2NikiIGlkPSJYTUxJRF82MDBfIj48dHNwYW4gY2xhc3M9InN0NyBzdDggc3Q5IiB5PSIwIiB4PSIwIj5VU0FCSUxJVFk8L3RzcGFuPjx0c3BhbiBjbGFzcz0ic3Q3IHN0OCBzdDkiIHk9IjciIHg9IjMiPlRFU1RJTkc8L3RzcGFuPjwvdGV4dD4mI3hhOwk8L2c+JiN4YTsJPGcgY2xhc3M9InN0MyIgaWQ9IlhNTElEXzQ5MF8iPiYjeGE7CQk8dGV4dCB0cmFuc2Zvcm09Im1hdHJpeCgxIDAgMCAxIDIwNC41NzAzIDIxMi4xNjYzKSIgaWQ9IlhNTElEXzYwMV8iPjx0c3BhbiBjbGFzcz0ic3Q3IHN0OCBzdDkiIHk9IjAiIHg9IjAiPlVTRVI8L3RzcGFuPjx0c3BhbiBjbGFzcz0ic3Q3IHN0OCBzdDkiIHk9IjciIHg9Ii0xNS41Ij5JTlRFUkFDVElPTjwvdHNwYW4+PC90ZXh0PiYjeGE7CTwvZz4mI3hhOwk8ZyBjbGFzcz0ic3QzIiBpZD0iWE1MSURfNDc0XyI+JiN4YTsJCTx0ZXh0IHRyYW5zZm9ybT0ibWF0cml4KDEgMCAwIDEgLTE1Ny41NTIxIDMwNi40MTY3KSIgaWQ9IlhNTElEXzYwMl8iPjx0c3BhbiBjbGFzcz0ic3Q3IHN0OCBzdDkiIHk9IjAiIHg9IjAiPlNJVEU8L3RzcGFuPjx0c3BhbiBjbGFzcz0ic3Q3IHN0OCBzdDkiIHk9IjciIHg9Ii0xOS44Ij5NQUlOVEVOQU5DRTwvdHNwYW4+PC90ZXh0PiYjeGE7CTwvZz4mI3hhOwk8ZyBjbGFzcz0ic3QzIiBpZD0iWE1MSURfNDk5XyI+JiN4YTsJCTx0ZXh0IHRyYW5zZm9ybT0ibWF0cml4KDEgMCAwIDEgLTcyLjg3OSAzMDYuNDE2MykiIGlkPSJYTUxJRF82MDNfIj48dHNwYW4gY2xhc3M9InN0NyBzdDggc3Q5IiB5PSIwIiB4PSIwIj5TTUFSVCA8L3RzcGFuPjx0c3BhbiBjbGFzcz0ic3Q3IHN0OCBzdDkiIHk9IjciIHg9Ii01Ij5TT0xVVElPTjwvdHNwYW4+PC90ZXh0PiYjeGE7CTwvZz4mI3hhOwk8ZyBjbGFzcz0ic3QzIiBpZD0iWE1MSURfNTQ0XyI+JiN4YTsJCTx0ZXh0IHRyYW5zZm9ybT0ibWF0cml4KDEgMCAwIDEgMTkuMzc0MiAzMDYuNDE2NykiIGlkPSJYTUxJRF82MDRfIj48dHNwYW4gY2xhc3M9InN0NyBzdDggc3Q5IiB5PSIwIiB4PSIwIj5BRE1JTjwvdHNwYW4+PHRzcGFuIGNsYXNzPSJzdDcgc3Q4IHN0OSIgeT0iNyIgeD0iLTE4LjMiPkNPTlRST0wgUEFORUw8L3RzcGFuPjwvdGV4dD4mI3hhOwk8L2c+JiN4YTsJPGcgY2xhc3M9InN0MyIgaWQ9IlhNTElEXzU0Nl8iPiYjeGE7CQk8dGV4dCB0cmFuc2Zvcm09Im1hdHJpeCgxIDAgMCAxIDEwOC42MTMzIDMwNi40MTYzKSIgaWQ9IlhNTElEXzYwNV8iPjx0c3BhbiBjbGFzcz0ic3Q3IHN0OCBzdDkiIHk9IjAiIHg9IjAiPlNFQ1VSRTwvdHNwYW4+PHRzcGFuIGNsYXNzPSJzdDcgc3Q4IHN0OSIgeT0iNyIgeD0iMyI+TE9HSU48L3RzcGFuPjwvdGV4dD4mI3hhOwk8L2c+JiN4YTsJPGcgY2xhc3M9InN0MyIgaWQ9IlhNTElEXzU4Ml8iPiYjeGE7CQk8dGV4dCB0cmFuc2Zvcm09Im1hdHJpeCgxIDAgMCAxIDIwNS43MzMxIDMwNi40MTY3KSIgaWQ9IlhNTElEXzYwNl8iPjx0c3BhbiBjbGFzcz0ic3Q3IHN0OCBzdDkiIHk9IjAiIHg9IjAiPldFQjwvdHNwYW4+PHRzcGFuIGNsYXNzPSJzdDcgc3Q4IHN0OSIgeT0iNyIgeD0iLTkuNiI+QU5BTFlTSVM8L3RzcGFuPjwvdGV4dD4mI3hhOwk8L2c+JiN4YTs8L2c+JiN4YTs8ZyBjbGFzcz0ic3QwIiBpZD0iaGVhZGxpbmUiPiYjeGE7CTxjaXJjbGUgcj0iMTguMyIgY3k9Ii0yMDguNCIgY3g9Ii0xMzMuNSIgY2xhc3M9InN0MTAiIGlkPSJYTUxJRF82MV8iLz4mI3hhOwk8Y2lyY2xlIHI9IjE4LjMiIGN5PSItMjA4LjQiIGN4PSItMTEwLjEiIGNsYXNzPSJzdDExIiBpZD0iWE1MSURfNjBfIi8+JiN4YTsJPGNpcmNsZSByPSIxOC4zIiBjeT0iLTE5MC4xIiBjeD0iLTEyMi43IiBjbGFzcz0ic3QxMiIgaWQ9IlhNTElEXzYzXyIvPiYjeGE7CTxnIGNsYXNzPSJzdDMiIGlkPSJYTUxJRF8xXyI+JiN4YTsJCTx0ZXh0IHRyYW5zZm9ybT0ibWF0cml4KDEgMCAwIDEgLTE4My43NTUyIC0xOTQuMDg1MikiIGlkPSJYTUxJRF82MDdfIj48dHNwYW4gc3R5bGU9ImZpbGw6IzIzMUYyMDsgZm9udC1mYW1pbHk6J09zd2FsZC1Cb2xkJzsgZm9udC1zaXplOjIyLjUxMnB4OyIgeT0iMCIgeD0iMCI+RkxBVCA8L3RzcGFuPjx0c3BhbiBzdHlsZT0iZmlsbDojMjMxRjIwOyBmb250LWZhbWlseTonT3N3YWxkLUxpZ2h0JzsgZm9udC1zaXplOjIyLjUxMnB4OyIgeT0iMCIgeD0iNDUuNSI+TElORSA8L3RzcGFuPjx0c3BhbiBzdHlsZT0iZmlsbDojMjMxRjIwOyBmb250LWZhbWlseTonT3N3YWxkLUJvbGQnOyBmb250LXNpemU6MjIuNTEycHg7IiB5PSIwIiB4PSI4My45Ij5JQ09OUzwvdHNwYW4+PC90ZXh0PiYjeGE7CTwvZz4mI3hhOwk8ZyBjbGFzcz0ic3QzIiBpZD0iWE1MSURfMl8iPiYjeGE7CQkmI3hhOwkJCTx0ZXh0IHN0eWxlPSJmaWxsOiMyMzFGMjA7IGZvbnQtZmFtaWx5OidPc3dhbGQtTGlnaHQnOyBmb250LXNpemU6MTYuMTczNXB4OyIgdHJhbnNmb3JtPSJtYXRyaXgoMSAwIDAgMSA2Ni4wNDE2IC0xOTMuOTA1NikiIGlkPSJYTUxJRF82MDhfIj5XRUIgREVTSUdOICZhbXA7IERFVkVMT1BNRU5UPC90ZXh0PiYjeGE7CTwvZz4mI3hhOzwvZz4mI3hhOzwvc3ZnPg==;" vertex="1" parent="1">
          <mxGeometry x="370" y="240" width="150" height="150" as="geometry" />
        </mxCell>
        <mxCell id="3JoruSJg1Iiz7nWv7cRH-8" value="&lt;b&gt;Model Testing&lt;/b&gt;" style="text;html=1;align=center;verticalAlign=middle;resizable=0;points=[];autosize=1;strokeColor=none;fillColor=none;fontSize=16;" vertex="1" parent="1">
          <mxGeometry x="380" y="375" width="130" height="30" as="geometry" />
        </mxCell>
        <mxCell id="3JoruSJg1Iiz7nWv7cRH-10" value="" style="shape=image;imageAspect=0;aspect=fixed;verticalLabelPosition=bottom;verticalAlign=top;fontSize=16;image=data:image/svg+xml,PHN2ZyB4bWxuczp4bGluaz0iaHR0cDovL3d3dy53My5vcmcvMTk5OS94bGluayIgeG1sbnM9Imh0dHA6Ly93d3cudzMub3JnLzIwMDAvc3ZnIiB4bWw6c3BhY2U9InByZXNlcnZlIiB2aWV3Qm94PSIwIDAgNTEyIDUxMiIgdmVyc2lvbj0iMS4xIiBzdHlsZT0iZW5hYmxlLWJhY2tncm91bmQ6bmV3IDAgMCA1MTIgNTEyOyIgaWQ9IkxheWVyXzEiPjxzdHlsZSB0eXBlPSJ0ZXh0L2NzcyI+JiN4YTsJLnN0MHtmaWxsOiMyQjc5QzI7fSYjeGE7CS5zdDF7ZmlsbDojM0I0NjUyO30mI3hhOzwvc3R5bGU+PGc+PHBhdGggZD0iTTMzMy4yLDI0Mi41YzEuNi01LjYsMi41LTExLjYsMi41LTE3LjhjMC0zNS44LTI5LTY0LjctNjQuNy02NC43Yy0yOS4yLDAtNTMuOSwxOS40LTYyLDQ1LjkgICBjLTQuMi0wLjctOC42LTEuMS0xMy0xLjFjLTQ0LjUsMC04MC42LDM2LjEtODAuNiw4MC42YzAsNDQuNSwzNi4xLDgwLjYsODAuNiw4MC42aDEzNWMzNC4xLDAsNjEuOC0yNy43LDYxLjgtNjEuOCAgIEMzOTIuOCwyNzAuOCwzNjYuMywyNDMuNiwzMzMuMiwyNDIuNXoiIGNsYXNzPSJzdDAiLz48cGF0aCBkPSJNMTI3LjIsMTAxaDU4Ljl2NTAuN2MwLDMuOSwzLjEsNyw3LDdzNy0zLjEsNy03Vjk0YzAtMy45LTMuMS03LTctN2gtNjYuN2MtMy41LTEwLjQtMTMuNC0xOC0yNS0xOCAgIEM4Ni45LDY5LDc1LDgwLjgsNzUsOTUuNHMxMS44LDI2LjQsMjYuNCwyNi40QzExNCwxMjEuOCwxMjQuNiwxMTIuOCwxMjcuMiwxMDF6IE0xMDEuNCwxMDcuOGMtNi44LDAtMTIuNC01LjYtMTIuNC0xMi40ICAgUzk0LjYsODMsMTAxLjQsODNzMTIuNCw1LjYsMTIuNCwxMi40UzEwOC4yLDEwNy44LDEwMS40LDEwNy44eiIgY2xhc3M9InN0MSIvPjxwYXRoIGQ9Ik00MjksMTIxLjhjMTQuNSwwLDI2LjQtMTEuOCwyNi40LTI2LjRTNDQzLjUsNjksNDI5LDY5Yy0xMS42LDAtMjEuNSw3LjYtMjUsMThoLTY2LjdjLTMuOSwwLTcsMy4xLTcsN3Y1Ny43ICAgYzAsMy45LDMuMSw3LDcsN3M3LTMuMSw3LTdWMTAxaDU4LjlDNDA1LjgsMTEyLjgsNDE2LjMsMTIxLjgsNDI5LDEyMS44eiBNNDI5LDgzYzYuOCwwLDEyLjQsNS42LDEyLjQsMTIuNHMtNS42LDEyLjQtMTIuNCwxMi40ICAgcy0xMi40LTUuNi0xMi40LTEyLjRTNDIyLjEsODMsNDI5LDgzeiIgY2xhc3M9InN0MSIvPjxwYXRoIGQ9Ik0yNTUuMSw3MC4zdjYzLjJjMCwzLjksMy4xLDcsNyw3czctMy4xLDctN1Y3MC4zYzExLjItMy4xLDE5LjQtMTMuMywxOS40LTI1LjRjMC0xNC41LTExLjgtMjYuNC0yNi40LTI2LjQgICBzLTI2LjQsMTEuOC0yNi40LDI2LjRDMjM1LjcsNTcsMjQ0LDY3LjIsMjU1LjEsNzAuM3ogTTI2Mi4xLDMyLjVjNi44LDAsMTIuNCw1LjYsMTIuNCwxMi40cy01LjYsMTIuNC0xMi40LDEyLjQgICBzLTEyLjQtNS42LTEyLjQtMTIuNFMyNTUuMywzMi41LDI2Mi4xLDMyLjV6IiBjbGFzcz0ic3QxIi8+PHBhdGggZD0iTTg1LjgsMjU1LjhINTMuMXYtNDAuOWMxMS44LTIuNiwyMC44LTEzLjIsMjAuOC0yNS44YzAtMTQuNS0xMS44LTI2LjQtMjYuNC0yNi40UzIxLjEsMTc0LjUsMjEuMSwxODkgICBjMCwxMS42LDcuNiwyMS41LDE4LDI1djQ4LjdjMCwzLjksMy4xLDcsNyw3aDM5LjdjMy45LDAsNy0zLjEsNy03Uzg5LjYsMjU1LjgsODUuOCwyNTUuOHogTTM1LjEsMTg5YzAtNi44LDUuNi0xMi40LDEyLjQtMTIuNCAgIHMxMi40LDUuNiwxMi40LDEyLjRzLTUuNiwxMi40LTEyLjQsMTIuNFMzNS4xLDE5NS45LDM1LjEsMTg5eiIgY2xhc3M9InN0MSIvPjxwYXRoIGQ9Ik04NS44LDMxOC4xSDU4LjVjLTMuMS0xMS4yLTEzLjMtMTkuNC0yNS40LTE5LjRjLTE0LjUsMC0yNi40LDExLjgtMjYuNCwyNi40czExLjgsMjYuNCwyNi40LDI2LjQgICBjMTIuMSwwLDIyLjMtOC4yLDI1LjQtMTkuNGgyNy4yYzMuOSwwLDctMy4xLDctN1M4OS42LDMxOC4xLDg1LjgsMzE4LjF6IE0zMy4xLDMzNy40Yy02LjgsMC0xMi40LTUuNi0xMi40LTEyLjQgICBzNS42LTEyLjQsMTIuNC0xMi40czEyLjQsNS42LDEyLjQsMTIuNFMzOS45LDMzNy40LDMzLjEsMzM3LjR6IiBjbGFzcz0ic3QxIi8+PHBhdGggZD0iTTQ3Mi45LDM2MHYtNDguN2MwLTMuOS0zLjEtNy03LTdoLTM5LjdjLTMuOSwwLTcsMy4xLTcsN3MzLjEsNyw3LDdoMzIuN3Y0MC45Yy0xMS44LDIuNi0yMC44LDEzLjItMjAuOCwyNS44ICAgYzAsMTQuNSwxMS44LDI2LjQsMjYuNCwyNi40czI2LjQtMTEuOCwyNi40LTI2LjRDNDkwLjksMzczLjQsNDgzLjMsMzYzLjUsNDcyLjksMzYweiBNNDY0LjUsMzk3LjRjLTYuOCwwLTEyLjQtNS42LTEyLjQtMTIuNCAgIHM1LjYtMTIuNCwxMi40LTEyLjRzMTIuNCw1LjYsMTIuNCwxMi40UzQ3MS4zLDM5Ny40LDQ2NC41LDM5Ny40eiIgY2xhc3M9InN0MSIvPjxwYXRoIGQ9Ik00NzguOSwyMjIuNmMtMTIuMSwwLTIyLjMsOC4yLTI1LjQsMTkuNGgtMjcuMmMtMy45LDAtNywzLjEtNyw3czMuMSw3LDcsN2gyNy4yYzMuMSwxMS4yLDEzLjMsMTkuNCwyNS40LDE5LjQgICBjMTQuNSwwLDI2LjQtMTEuOCwyNi40LTI2LjRTNDkzLjQsMjIyLjYsNDc4LjksMjIyLjZ6IE00NzguOSwyNjEuNGMtNi44LDAtMTIuNC01LjYtMTIuNC0xMi40czUuNi0xMi40LDEyLjQtMTIuNCAgIHMxMi40LDUuNiwxMi40LDEyLjRTNDg1LjcsMjYxLjQsNDc4LjksMjYxLjR6IiBjbGFzcz0ic3QxIi8+PHBhdGggZD0iTTMyMS44LDQ0MS43di00NS4yYzAtMy45LTMuMS03LTctN3MtNywzLjEtNyw3djQ1LjJjLTExLjIsMy4xLTE5LjQsMTMuMy0xOS40LDI1LjQgICBjMCwxNC41LDExLjgsMjYuNCwyNi40LDI2LjRzMjYuNC0xMS44LDI2LjQtMjYuNEMzNDEuMSw0NTUsMzMyLjksNDQ0LjgsMzIxLjgsNDQxLjd6IE0zMTQuOCw0NzkuNWMtNi44LDAtMTIuNC01LjYtMTIuNC0xMi40ICAgczUuNi0xMi40LDEyLjQtMTIuNHMxMi40LDUuNiwxMi40LDEyLjRTMzIxLjYsNDc5LjUsMzE0LjgsNDc5LjV6IiBjbGFzcz0ic3QxIi8+PHBhdGggZD0iTTIyNy41LDQyNS4xYy0xMi4xLDAtMjIuMyw4LjItMjUuNCwxOS40aC0yMXYtNDhjMC0zLjktMy4xLTctNy03cy03LDMuMS03LDd2NTVjMCwzLjksMy4xLDcsNyw3aDI4ICAgYzMuMSwxMS4yLDEzLjMsMTkuNCwyNS40LDE5LjRjMTQuNSwwLDI2LjQtMTEuOCwyNi40LTI2LjRTMjQyLDQyNS4xLDIyNy41LDQyNS4xeiBNMjI3LjUsNDYzLjljLTYuOCwwLTEyLjQtNS42LTEyLjQtMTIuNCAgIHM1LjYtMTIuNCwxMi40LTEyLjRzMTIuNCw1LjYsMTIuNCwxMi40UzIzNC4zLDQ2My45LDIyNy41LDQ2My45eiIgY2xhc3M9InN0MSIvPjwvZz48L3N2Zz4=;" vertex="1" parent="1">
          <mxGeometry x="550" y="255" width="120" height="120" as="geometry" />
        </mxCell>
        <mxCell id="3JoruSJg1Iiz7nWv7cRH-11" value="&lt;b&gt;Model Packaging&lt;/b&gt;" style="text;html=1;align=center;verticalAlign=middle;resizable=0;points=[];autosize=1;strokeColor=none;fillColor=none;fontSize=16;" vertex="1" parent="1">
          <mxGeometry x="535" y="375" width="150" height="30" as="geometry" />
        </mxCell>
      </root>
    </mxGraphModel>
  </diagram>
</mxfile>
